<?xml version="1.0" standalone="no"?>
<!DOCTYPE svg PUBLIC "-//W3C//DTD SVG 1.1//EN" "http://www.w3.org/Graphics/SVG/1.1/DTD/svg11.dtd" >
<svg xmlns="http://www.w3.org/2000/svg" xmlns:xlink="http://www.w3.org/1999/xlink" version="1.1">
<metadata>
Created by FontForge 20161003 at Mon Apr 10 12:21:47 2017
 By www-data
Copyright (c) 2015 by Wei Huang. All rights reserved.
</metadata>
<defs>
<font id="WorkSansLight" horiz-adv-x="604" >
  <font-face 
    font-family="WorkSansLight"
    font-weight="300"
    font-stretch="normal"
    units-per-em="1000"
    panose-1="0 0 4 0 0 0 0 0 0 0"
    ascent="760"
    descent="-240"
    x-height="500"
    cap-height="660"
    bbox="-325 -334 1184 930"
    underline-thickness="50"
    underline-position="-150"
    unicode-range="U+0020-FB02"
  />
<missing-glyph horiz-adv-x="500" 
d="M50 0v660h400v-660h-400zM130 80h240v500h-240v-500z" />
    <glyph glyph-name="fi" unicode="fi" 
d="M282 683q-48 0 -74 -26.5t-26 -77.5v-79h174v-49h-174v-451h-57v451h-100v49h100v84q0 70 39.5 110.5t113.5 40.5q54 0 82 -26l-16 -46q-24 20 -62 20zM486 689q20 0 33 -12.5t13 -33.5t-13 -33.5t-33 -12.5q-21 0 -34 12.5t-13 33.5t13 33.5t34 12.5zM457 0v500h57v-500
h-57z" />
    <glyph glyph-name="fl" unicode="fl" horiz-adv-x="648" 
d="M282 683q-48 0 -74 -26.5t-26 -77.5v-79h174v-49h-174v-451h-57v451h-100v49h100v84q0 70 39.5 110.5t113.5 40.5q54 0 82 -26l-16 -46q-24 20 -62 20zM571 44q33 0 68 14l-9 -55q-29 -13 -68 -13q-109 0 -109 128v612h57v-606q0 -44 14 -62t47 -18z" />
    <glyph glyph-name=".notdef" horiz-adv-x="500" 
d="M50 0v660h400v-660h-400zM130 80h240v500h-240v-500z" />
    <glyph glyph-name=".null" horiz-adv-x="0" 
 />
    <glyph glyph-name="nonmarkingreturn" horiz-adv-x="333" 
 />
    <glyph glyph-name="space" unicode=" " horiz-adv-x="319" 
 />
    <glyph glyph-name="exclam" unicode="!" horiz-adv-x="240" 
d="M150 660v-312l-8 -154h-44l-8 154v312h60zM120 91q22 0 35.5 -14t13.5 -36t-13.5 -35.5t-35.5 -13.5t-36 13.5t-14 35.5q0 23 14 36.5t36 13.5z" />
    <glyph glyph-name="quotedbl" unicode="&#x22;" horiz-adv-x="345" 
d="M139 686l-17 -215h-46v215h63zM280 686l-17 -215h-45v215h62z" />
    <glyph glyph-name="numbersign" unicode="#" horiz-adv-x="637" 
d="M608 426h-138l-30 -186h129v-44h-136l-31 -196h-50l32 196h-177l-32 -196h-49l32 196h-130v44h137l30 186h-128v44h135l30 190h50l-31 -190h177l31 190h49l-30 -190h130v-44zM391 240l30 186h-177l-30 -186h177z" />
    <glyph glyph-name="dollar" unicode="$" horiz-adv-x="602" 
d="M283 -100v101q-88 5 -148.5 49t-83.5 121l52 27q13 -62 62.5 -101.5t117.5 -47.5v258q-39 8 -63 14.5t-55.5 20t-49.5 29.5t-30.5 43t-12.5 61q0 75 57 127t154 57v101h50v-101q77 -5 127 -39.5t80 -102.5l-47 -36q-22 62 -60.5 93t-99.5 36v-263q39 -8 63 -14.5
t55.5 -20t49.5 -30t30.5 -43.5t12.5 -62q0 -76 -57.5 -123.5t-153.5 -52.5v-101h-50zM283 357v254q-74 -4 -115 -39.5t-41 -92.5q0 -54 40 -80t116 -42zM333 48q72 4 114.5 35.5t42.5 89.5q0 55 -40.5 80.5t-116.5 43.5v-249z" />
    <glyph glyph-name="percent" unicode="%" horiz-adv-x="820" 
d="M191 666q72 0 112 -49.5t40 -127.5t-40 -126.5t-112 -48.5q-71 0 -111 48.5t-40 126.5t40 127.5t111 49.5zM167 0l430 660h55l-429 -660h-56zM191 621q-49 0 -74.5 -36t-25.5 -96q0 -59 25.5 -94.5t74.5 -35.5t75 35.5t26 94.5q0 60 -26 96t-75 36zM629 346q71 0 111 -49
t40 -127t-40 -127t-111 -49q-72 0 -112.5 49t-40.5 127t40.5 127t112.5 49zM629 301q-49 0 -75 -35.5t-26 -95.5t26 -95.5t75 -35.5t74.5 35.5t25.5 95.5t-25.5 95.5t-74.5 35.5z" />
    <glyph glyph-name="ampersand" unicode="&#x26;" horiz-adv-x="605" 
d="M478 110q41 -46 69.5 -61.5t62.5 -15.5l-13 -43q-38 0 -70.5 17t-78.5 66q-76 -83 -199 -83q-89 0 -145.5 45.5t-56.5 117.5q0 65 39 113t126 96q-47 60 -64 94t-17 71q0 59 40.5 100.5t109.5 41.5q63 0 105 -33.5t42 -96.5q0 -57 -29.5 -99.5t-112.5 -90.5
q24 -32 68 -87q49 -63 93 -116q54 86 49 213l46 -5q7 -140 -64 -244zM280 620q-44 0 -69.5 -26t-25.5 -66q0 -30 13 -56t59 -87q72 39 96 74t24 79q0 39 -26 60.5t-71 21.5zM246 37q105 0 171 71q-40 45 -101 122l-74 94q-78 -45 -109.5 -82t-31.5 -85q0 -53 42 -86.5
t103 -33.5z" />
    <glyph glyph-name="quotesingle" unicode="'" horiz-adv-x="203" 
d="M139 686l-17 -215h-46v215h63z" />
    <glyph glyph-name="parenleft" unicode="(" horiz-adv-x="315" 
d="M261 747l32 -33q-95 -84 -136 -186t-41 -246q0 -143 41 -245t136 -186l-32 -33q-203 174 -203 464q0 291 203 465z" />
    <glyph glyph-name="parenright" unicode=")" horiz-adv-x="315" 
d="M54 747q203 -174 203 -465q0 -290 -203 -464l-32 33q95 84 136 186t41 245q0 144 -41 246t-136 186z" />
    <glyph glyph-name="asterisk" unicode="*" horiz-adv-x="550" 
d="M301 493l54 -61l73 -102l-38 -27l-74 101l-41 70l-41 -70l-74 -101l-38 27l73 102l53 61l-79 18l-119 39l14 44l120 -37l74 -33l-7 80v126h48v-126l-8 -80l74 33l120 37l14 -44l-119 -39z" />
    <glyph glyph-name="plus" unicode="+" 
d="M541 343v-53h-212v-218h-54v218h-212v53h212v214h54v-214h212z" />
    <glyph glyph-name="comma" unicode="," horiz-adv-x="231" 
d="M116 91q28 0 44 -21.5t16 -56.5q0 -45 -23 -84t-68 -61l-32 28q36 13 59 43t24 60l-3 2q-7 -9 -24 -9t-30 13t-13 35q0 21 14.5 36t35.5 15z" />
    <glyph glyph-name="hyphen" unicode="-" horiz-adv-x="477" 
d="M394 294v-59h-312v59h312z" />
    <glyph glyph-name="period" unicode="." horiz-adv-x="231" 
d="M115 91q23 0 36.5 -13.5t13.5 -36.5q0 -22 -14 -35.5t-36 -13.5t-35.5 13.5t-13.5 35.5t13.5 36t35.5 14z" />
    <glyph glyph-name="slash" unicode="/" horiz-adv-x="406" 
d="M375 730l-290 -800h-54l289 800h55z" />
    <glyph glyph-name="zero" unicode="0" horiz-adv-x="611" 
d="M305 -10q-118 0 -180 87.5t-62 252.5t62 252.5t180 87.5t180 -87.5t62 -252.5t-62 -252.5t-180 -87.5zM305 41q89 0 136 74.5t47 214.5t-47 214.5t-136 74.5t-136 -74.5t-47 -214.5t47 -214.5t136 -74.5z" />
    <glyph glyph-name="one" unicode="1" horiz-adv-x="376" 
d="M227 660h50v-660h-57v496q0 26 2 88q-67 -77 -173 -104l-15 51q45 11 106.5 49.5t86.5 79.5z" />
    <glyph glyph-name="two" unicode="2" horiz-adv-x="565" 
d="M67 0v47q206 158 284.5 244.5t78.5 175.5q0 69 -42.5 109.5t-114.5 40.5q-75 0 -120.5 -47.5t-51.5 -128.5l-50 29q10 91 68.5 145.5t155.5 54.5q98 0 156 -55.5t58 -147.5q0 -96 -78 -189t-261 -226v-1q34 2 73 2h286v-53h-442z" />
    <glyph glyph-name="three" unicode="3" horiz-adv-x="561" 
d="M278 670q94 0 147 -48.5t53 -123.5q0 -67 -35.5 -113.5t-89.5 -50.5v-1q63 -2 102 -47t39 -112q0 -81 -62 -132.5t-159 -51.5q-170 0 -224 155l52 29q36 -131 176 -131q72 0 115.5 38t42.5 100q-1 125 -158 125h-35v53h35q69 0 105.5 34t36.5 93q1 63 -36 97t-104 34
q-60 0 -99 -29.5t-54 -81.5l-54 25q23 64 78.5 101.5t127.5 37.5z" />
    <glyph glyph-name="four" unicode="4" horiz-adv-x="589" 
d="M550 234v-49h-125v-185h-57v185h-326v42l311 433h72v-426h125zM311 521l-208 -287h265v288l3 90h-2q-22 -41 -58 -91z" />
    <glyph glyph-name="five" unicode="5" horiz-adv-x="565" 
d="M300 415q93 0 150 -58t57 -152q0 -98 -59.5 -156.5t-160.5 -58.5q-180 0 -229 154l55 28q31 -129 172 -129q75 0 119.5 43t43.5 116q0 75 -42 117.5t-116 42.5q-113 0 -164 -72h-50l36 370h367v-53h-319l-26 -244l-1 -13h1q56 65 166 65z" />
    <glyph glyph-name="six" unicode="6" horiz-adv-x="590" 
d="M320 670q144 0 196 -132l-52 -25q-34 104 -148 104q-93 0 -145 -86.5t-52 -214.5q0 -24 3 -56h4q8 70 64.5 110t124.5 40q99 0 157.5 -57.5t58.5 -152.5q0 -96 -59.5 -153t-160.5 -57q-119 0 -182.5 91t-63.5 249q0 163 71 251.5t184 88.5zM311 355q-71 0 -116 -45
t-45 -109q0 -69 44.5 -113t115.5 -44q75 0 118 42t43 115q0 70 -43 112t-117 42z" />
    <glyph glyph-name="seven" unicode="7" horiz-adv-x="537" 
d="M34 660h477v-53q-122 -129 -182 -277.5t-65 -329.5h-59q11 355 244 607h-415v53z" />
    <glyph glyph-name="eight" unicode="8" horiz-adv-x="597" 
d="M298 669q94 0 150 -45.5t56 -123.5q0 -54 -29.5 -94.5t-81.5 -57.5v-1q65 -18 102.5 -63.5t37.5 -108.5q0 -84 -64.5 -134.5t-170.5 -50.5q-105 0 -170 50.5t-65 134.5q0 63 38 108.5t103 63.5v1q-52 17 -81.5 57t-29.5 95q0 78 55.5 123.5t149.5 45.5zM298 616
q-67 0 -106.5 -32.5t-39.5 -88.5q0 -55 40 -88.5t106 -33.5q67 0 107 33.5t40 88.5q0 56 -39.5 88.5t-107.5 32.5zM298 43q80 0 128 37.5t48 99.5q0 63 -48 101t-128 38q-78 0 -127 -38t-49 -101q0 -62 48 -99.5t128 -37.5z" />
    <glyph glyph-name="nine" unicode="9" horiz-adv-x="603" 
d="M288 670q119 0 183 -91.5t64 -248.5q0 -166 -64 -253t-182 -87q-173 0 -222 146l57 30q30 -123 164 -123q195 0 195 306q0 31 -4 54h-3q-8 -75 -65.5 -114t-127.5 -39q-99 0 -158.5 57t-59.5 153t60.5 153t162.5 57zM289 616q-76 0 -120 -42t-44 -115q0 -71 43.5 -112.5
t118.5 -41.5q71 0 117.5 45t46.5 109q0 69 -45 113t-117 44z" />
    <glyph glyph-name="colon" unicode=":" horiz-adv-x="259" 
d="M129 506q23 0 36.5 -13.5t13.5 -35.5q0 -23 -13.5 -36.5t-36.5 -13.5q-22 0 -35.5 14t-13.5 36t13.5 35.5t35.5 13.5zM129 91q23 0 36.5 -13.5t13.5 -36.5q0 -22 -14 -35.5t-36 -13.5t-35.5 13.5t-13.5 35.5t13.5 36t35.5 14z" />
    <glyph glyph-name="semicolon" unicode=";" horiz-adv-x="259" 
d="M134 407q-22 0 -35.5 14t-13.5 36t13.5 35.5t35.5 13.5q23 0 36.5 -13.5t13.5 -35.5q0 -23 -14 -36.5t-36 -13.5zM131 91q28 0 44 -21.5t16 -56.5q0 -45 -23.5 -84t-68.5 -61l-31 28q36 13 59 43t24 60l-3 2q-8 -9 -25 -9q-16 0 -29 13t-13 35q0 21 14.5 36t35.5 15z" />
    <glyph glyph-name="less" unicode="&#x3c;" 
d="M542 560v-59l-419 -201l419 -202v-59l-464 227v67z" />
    <glyph glyph-name="equal" unicode="=" 
d="M532 434v-53h-460v53h460zM532 233v-53h-460v53h460z" />
    <glyph glyph-name="greater" unicode="&#x3e;" 
d="M62 560l464 -227v-67l-464 -227v59l419 202l-419 201v59z" />
    <glyph glyph-name="question" unicode="?" horiz-adv-x="517" 
d="M262 670q93 0 150.5 -46t57.5 -124q0 -163 -191 -197v-116h-59v147q104 22 147.5 58t43.5 102q0 57 -40.5 90t-112.5 33q-75 0 -119 -38t-53 -107l-50 28q15 80 73 125t153 45zM248 91q22 0 36 -13.5t14 -36.5q0 -22 -14 -35.5t-36 -13.5t-35.5 13.5t-13.5 35.5t13.5 36
t35.5 14z" />
    <glyph glyph-name="at" unicode="@" horiz-adv-x="970" 
d="M496 664q105 0 185 -33t127.5 -90.5t71.5 -129.5t24 -156q0 -122 -43.5 -192t-118.5 -70q-98 0 -110 113q-24 -51 -71 -80.5t-111 -29.5q-83 0 -136 59.5t-53 159.5q0 115 66 184.5t161 69.5q129 0 165 -108l13 97h39l-25 -316q-7 -108 71 -108q52 0 80 57t28 164
q0 161 -91.5 263.5t-271.5 102.5q-178 0 -282 -106.5t-104 -287.5q0 -174 104.5 -276t271.5 -102q136 0 223 71l26 -34q-105 -80 -249 -80q-192 0 -308 114.5t-116 306.5q0 196 118.5 316.5t315.5 120.5zM493 426q-82 0 -131.5 -56t-49.5 -153q0 -82 41 -129.5t112 -47.5
q70 0 117.5 46.5t53.5 124.5l4 43q5 76 -32 124t-115 48z" />
    <glyph glyph-name="A" unicode="A" horiz-adv-x="633" 
d="M552 0l-80 201h-312l-79 -201h-60l262 660h68l261 -660h-60zM181 254h270l-108 275l-26 76h-2l-24 -73z" />
    <glyph glyph-name="B" unicode="B" horiz-adv-x="637" 
d="M105 0v660h234q108 0 162 -45.5t54 -131.5q0 -56 -31 -96t-87 -52v-1q63 -10 99.5 -52.5t36.5 -102.5q0 -84 -61 -131.5t-174 -47.5h-233zM162 359h177q157 0 157 124t-157 124h-177v-248zM162 53h188q164 0 164 127q0 126 -164 126h-188v-253z" />
    <glyph glyph-name="C" unicode="C" horiz-adv-x="673" 
d="M629 168q-29 -84 -98.5 -131t-165.5 -47q-138 0 -219.5 92t-81.5 248t82 248t218 92q197 0 256 -161l-56 -26q-47 134 -196 134q-111 0 -178 -77t-67 -210t65.5 -210t176.5 -77q77 0 131.5 37.5t76.5 108.5z" />
    <glyph glyph-name="D" unicode="D" horiz-adv-x="708" 
d="M314 660q158 0 244 -84t86 -242q0 -161 -86 -247.5t-244 -86.5h-209v660h209zM319 53q127 0 196 73t69 208q0 131 -69 202t-196 71h-157v-554h157z" />
    <glyph glyph-name="E" unicode="E" horiz-adv-x="618" 
d="M162 53h412v-53h-469v660h453v-53h-396v-245h312v-53h-312v-256z" />
    <glyph glyph-name="F" unicode="F" horiz-adv-x="590" 
d="M557 607h-395v-245h312v-53h-312v-309h-57v660h452v-53z" />
    <glyph glyph-name="G" unicode="G" horiz-adv-x="707" 
d="M359 325h273v-325h-44l-2 108q-58 -118 -222 -118q-138 0 -219 91.5t-81 248.5q0 156 82.5 248t219.5 92q196 0 261 -159l-51 -28q-47 134 -210 134q-110 0 -176.5 -77.5t-66.5 -209.5q0 -134 64 -210.5t179 -76.5q102 0 158 56t56 139v34h-221v53z" />
    <glyph glyph-name="H" unicode="H" horiz-adv-x="720" 
d="M559 660h57v-660h-57v309h-397v-309h-57v660h57v-298h397v298z" />
    <glyph glyph-name="I" unicode="I" horiz-adv-x="267" 
d="M162 660v-660h-57v660h57z" />
    <glyph glyph-name="J" unicode="J" horiz-adv-x="542" 
d="M444 660v-440q0 -108 -56 -169t-157 -61q-107 0 -157 60t-32 162l53 12q-24 -181 134 -181q83 0 120.5 48t37.5 142v427h57z" />
    <glyph glyph-name="K" unicode="K" horiz-adv-x="620" 
d="M529 0l-239 351l-128 -131v-220h-57v660h57v-363l355 363h75l-261 -267l267 -393h-69z" />
    <glyph glyph-name="L" unicode="L" horiz-adv-x="578" 
d="M162 53h391v-53h-448v660h57v-607z" />
    <glyph glyph-name="M" unicode="M" horiz-adv-x="830" 
d="M725 660v-660h-55v474l6 132l-236 -606h-51l-235 606h-1l6 -132v-474h-54v660h86l187 -477l36 -116h1l37 115l186 478h87z" />
    <glyph glyph-name="N" unicode="N" horiz-adv-x="720" 
d="M615 660v-660h-71l-333 501l-54 97h-1l3 -89v-509h-54v660h71l332 -499l55 -99l-3 89v509h55z" />
    <glyph glyph-name="O" unicode="O" horiz-adv-x="736" 
d="M368 670q140 0 222 -91.5t82 -248.5t-82 -248.5t-222 -91.5t-222 91.5t-82 248.5t82 248.5t222 91.5zM368 617q-113 0 -179 -77t-66 -210t66 -210t179 -77t179 77t66 210t-66 210t-179 77z" />
    <glyph glyph-name="P" unicode="P" horiz-adv-x="592" 
d="M327 660q102 0 162.5 -52.5t60.5 -142.5t-60.5 -142.5t-162.5 -52.5h-165v-270h-57v660h222zM320 323q84 0 127.5 36.5t43.5 105.5t-43.5 105.5t-127.5 36.5h-158v-284h158z" />
    <glyph glyph-name="Q" unicode="Q" horiz-adv-x="736" 
d="M536 -138q76 0 113 37l20 -52q-47 -42 -134 -42q-80 0 -132.5 45.5t-58.5 140.5q-130 8 -205 98.5t-75 240.5q0 157 82 248.5t222 91.5t222 -91.5t82 -248.5q0 -149 -74 -239.5t-203 -99.5q10 -129 141 -129zM123 330q0 -133 66 -210t179 -77t179 77t66 210t-66 210
t-179 77t-179 -77t-66 -210z" />
    <glyph glyph-name="R" unicode="R" horiz-adv-x="646" 
d="M538 0l-188 283h-188v-283h-57v660h246q99 0 158.5 -50.5t59.5 -137.5q0 -72 -41 -120t-113 -62l190 -290h-67zM162 607v-271h188q78 0 118.5 35t40.5 101t-40.5 100.5t-118.5 34.5h-188z" />
    <glyph glyph-name="S" unicode="S" horiz-adv-x="624" 
d="M311 670q184 0 250 -145l-49 -39q-26 69 -73.5 100t-126.5 31q-85 0 -134 -37t-49 -94q0 -54 44 -83.5t159 -49.5q129 -21 183 -63.5t54 -117.5q0 -82 -68.5 -132t-180.5 -50q-103 0 -174.5 41t-99.5 114l49 39q22 -68 80.5 -104.5t145.5 -36.5q85 0 137 33.5t52 92.5
q0 51 -43.5 81t-151.5 48q-135 23 -190.5 65t-55.5 117q0 80 66 135t176 55z" />
    <glyph glyph-name="T" unicode="T" horiz-adv-x="582" 
d="M558 660v-53h-238v-607h-57v607h-239v53h534z" />
    <glyph glyph-name="U" unicode="U" horiz-adv-x="706" 
d="M608 660v-418q0 -123 -66 -187.5t-189 -64.5t-189.5 64.5t-66.5 187.5v418h57v-405q0 -212 199 -212q198 0 198 212v405h57z" />
    <glyph glyph-name="V" unicode="V" horiz-adv-x="622" 
d="M598 660l-254 -660h-66l-254 660h61l189 -498l37 -109l37 108l189 499h61z" />
    <glyph glyph-name="W" unicode="W" horiz-adv-x="942" 
d="M435 455l-129 -455h-71l-204 660h62l178 -614l169 614h65l169 -615l179 615h58l-203 -660h-71l-129 455l-36 144h-1z" />
    <glyph glyph-name="X" unicode="X" horiz-adv-x="574" 
d="M547 0h-66l-196 293l-198 -293h-67l235 338l-214 322h68l183 -275l185 275h63l-218 -320z" />
    <glyph glyph-name="Y" unicode="Y" horiz-adv-x="550" 
d="M538 660l-234 -403v-257h-57v257l-235 403h68l195 -344l196 344h67z" />
    <glyph glyph-name="Z" unicode="Z" horiz-adv-x="602" 
d="M113 53h445v-53h-512v51l429 556h-420v53h488v-51z" />
    <glyph glyph-name="bracketleft" unicode="[" horiz-adv-x="319" 
d="M294 680h-158v-798h158v-50h-211v898h211v-50z" />
    <glyph glyph-name="backslash" unicode="\" horiz-adv-x="406" 
d="M32 730h54l290 -800h-55z" />
    <glyph glyph-name="bracketright" unicode="]" horiz-adv-x="319" 
d="M236 730v-898h-211v50h158v798h-158v50h211z" />
    <glyph glyph-name="asciicircum" unicode="^" horiz-adv-x="550" 
d="M520 355h-59l-186 326l-186 -326h-58l216 375h56z" />
    <glyph glyph-name="underscore" unicode="_" horiz-adv-x="525" 
d="M525 -97v-53h-525v53h525z" />
    <glyph glyph-name="grave" unicode="`" horiz-adv-x="518" 
d="M199 743l80 -160h-47l-95 160h62z" />
    <glyph glyph-name="a" unicode="a" horiz-adv-x="548" 
d="M494 39q22 0 39 6l-3 -45q-20 -10 -52 -10q-76 0 -84 82q-23 -38 -72 -60t-104 -22q-74 0 -119.5 33.5t-45.5 94.5q0 119 191 152l149 26v40q0 58 -34.5 91t-97.5 33q-115 0 -156 -103l-43 31q21 58 73.5 90t125.5 32q87 0 138 -42.5t51 -124.5v-255q0 -49 44 -49z
M222 40q66 0 118.5 33t52.5 89v87l-131 -24q-150 -27 -150 -107q0 -37 29 -57.5t81 -20.5z" />
    <glyph glyph-name="b" unicode="b" horiz-adv-x="614" 
d="M327 510q106 0 167 -69t61 -191t-61 -191t-167 -69q-65 0 -113 31t-70 85l-3 -106h-51v730h57v-329q23 51 70 80t110 29zM320 40q84 0 131 56t47 154t-47 154t-131 56q-77 0 -124 -52.5t-49 -143.5v-28q2 -91 49.5 -143.5t123.5 -52.5z" />
    <glyph glyph-name="c" unicode="c" horiz-adv-x="550" 
d="M296 510q75 0 127 -35t76 -99l-54 -26q-33 110 -151 110q-84 0 -131.5 -56t-47.5 -154t47 -154t131 -56q63 0 105.5 30.5t52.5 84.5l53 -18q-21 -69 -76 -108t-133 -39q-112 0 -174.5 69t-62.5 191t63 191t175 69z" />
    <glyph glyph-name="d" unicode="d" horiz-adv-x="614" 
d="M467 730h57v-730h-51l-3 105q-22 -53 -70.5 -84t-112.5 -31q-106 0 -167 69t-61 191t61 191t167 69q63 0 110 -29t70 -80v329zM294 40q76 0 122.5 51t50.5 140v38q-4 89 -50.5 140t-122.5 51q-84 0 -131 -56t-47 -154t47 -154t131 -56z" />
    <glyph glyph-name="e" unicode="e" horiz-adv-x="564" 
d="M509 265q0 -18 -2 -38h-392q5 -88 52.5 -137.5t127.5 -49.5q58 0 99.5 23t59.5 65l47 -25q-59 -113 -206 -113q-111 0 -174 69t-63 191t61 191t171 69q103 0 161 -68t58 -177zM290 460q-78 0 -123.5 -47.5t-51.5 -134.5h340q-6 86 -49 134t-116 48z" />
    <glyph glyph-name="f" unicode="f" horiz-adv-x="367" 
d="M182 579v-79h174v-49h-174v-451h-57v451h-100v49h100v84q0 70 39.5 110.5t113.5 40.5q54 0 82 -26l-16 -46q-24 20 -62 20q-48 0 -74 -26.5t-26 -77.5z" />
    <glyph glyph-name="g" unicode="g" horiz-adv-x="519" 
d="M348 54q75 0 118 -31.5t43 -83.5q0 -70 -67.5 -112t-173.5 -42q-114 0 -173.5 36.5t-59.5 96.5q0 38 23 65.5t64 40.5q-63 32 -63 87q0 36 23 61.5t62 36.5q-82 44 -82 136q0 75 56 120t148 45q62 0 111 -22q7 48 42.5 76t86.5 28l13 -50q-97 0 -106 -76q57 -46 57 -121
q0 -74 -56 -119t-148 -45q-31 0 -68 7q-41 -4 -63 -23t-22 -46q0 -65 106 -65h129zM266 462q-67 0 -106.5 -31.5t-39.5 -85.5t39 -85t107 -31t107 31t39 85t-39 85.5t-107 31.5zM275 -167q83 0 132.5 28t49.5 71q0 73 -121 73h-129q-55 0 -87.5 -21.5t-32.5 -56.5
q0 -44 48.5 -69t139.5 -25z" />
    <glyph glyph-name="h" unicode="h" horiz-adv-x="603" 
d="M326 510q86 0 139 -48t53 -138v-324h-57v305q0 79 -38 117t-103 38q-71 0 -122 -48t-51 -134v-278h-57v730h57v-323q24 51 71 77t108 26z" />
    <glyph glyph-name="i" unicode="i" horiz-adv-x="237" 
d="M119 597q-21 0 -34 12.5t-13 33.5t13 33.5t34 12.5q20 0 33 -12.5t13 -33.5t-13 -33.5t-33 -12.5zM147 500v-500h-57v500h57z" />
    <glyph glyph-name="j" unicode="j" horiz-adv-x="237" 
d="M119 689q19 0 32.5 -13.5t13.5 -32.5t-13.5 -32.5t-32.5 -13.5q-20 0 -33.5 13.5t-13.5 32.5t13.5 32.5t33.5 13.5zM147 500v-556q0 -79 -42 -119t-103 -40q-55 0 -89 29l12 54q30 -28 77 -28q40 0 64 27.5t24 81.5v551h57z" />
    <glyph glyph-name="k" unicode="k" horiz-adv-x="536" 
d="M448 0l-186 261l-115 -113v-148h-57v730h57v-510l288 280h73l-204 -199l213 -301h-69z" />
    <glyph glyph-name="l" unicode="l" horiz-adv-x="281" 
d="M143 730v-606q0 -44 14 -62t47 -18t68 14l-9 -55q-29 -13 -68 -13q-109 0 -109 128v612h57z" />
    <glyph glyph-name="m" unicode="m" horiz-adv-x="958" 
d="M684 511q82 0 136 -48.5t54 -138.5v-323h-57v317q0 70 -37.5 106.5t-100.5 36.5q-71 0 -120 -49.5t-49 -127.5v-284h-57v317q0 70 -37.5 106.5t-99.5 36.5q-68 0 -118.5 -49t-50.5 -132v-279h-57v500h51l3 -94q25 50 72.5 77t104.5 27q62 0 109.5 -28.5t67.5 -83.5
q21 53 73.5 83t112.5 30z" />
    <glyph glyph-name="n" unicode="n" horiz-adv-x="603" 
d="M326 510q86 0 139 -48.5t53 -138.5v-323h-57v305q0 78 -38 116.5t-103 38.5q-71 0 -122 -48t-51 -133v-279h-57v500h51l3 -95q24 51 72.5 78t109.5 27z" />
    <glyph glyph-name="o" unicode="o" horiz-adv-x="594" 
d="M297 510q112 0 175.5 -69t63.5 -191t-63.5 -191t-175.5 -69t-175.5 69t-63.5 191t63.5 191t175.5 69zM297 461q-85 0 -133.5 -56.5t-48.5 -154.5t48.5 -154.5t133.5 -56.5t133.5 56.5t48.5 154.5t-48.5 154.5t-133.5 56.5z" />
    <glyph glyph-name="p" unicode="p" horiz-adv-x="614" 
d="M327 510q106 0 167 -69t61 -191t-61 -191t-167 -69q-63 0 -110 29t-70 80v-309h-57v710h51l3 -106q22 54 70 85t113 31zM320 40q84 0 131 56t47 154t-47 154t-131 56q-76 0 -123.5 -52.5t-49.5 -143.5v-28q2 -91 49 -143.5t124 -52.5z" />
    <glyph glyph-name="q" unicode="q" horiz-adv-x="615" 
d="M474 500h51v-710h-57v309q-23 -51 -70 -80t-110 -29q-106 0 -167 69t-61 191t61 191t167 69q65 0 113 -31t70 -84zM295 40q76 0 122.5 51t50.5 140v38q-4 89 -50.5 140t-122.5 51q-84 0 -131 -56t-47 -154t47 -154t131 -56z" />
    <glyph glyph-name="r" unicode="r" horiz-adv-x="385" 
d="M306 510q38 0 61 -15l-14 -54q-25 16 -63 16q-57 0 -100 -50t-43 -129v-278h-57v500h48l7 -97q41 107 161 107z" />
    <glyph glyph-name="s" unicode="s" horiz-adv-x="510" 
d="M255 -10q-75 0 -131.5 29.5t-79.5 86.5l47 31q16 -48 61 -72.5t109 -24.5q66 0 103 25t37 65q0 35 -32 56t-113 35q-106 19 -149 51.5t-43 92.5q0 61 53.5 103t139.5 42q157 0 193 -122l-48 -28q-30 100 -145 100q-58 0 -97 -26t-39 -63q0 -39 33 -61t117 -36
q102 -17 144.5 -49.5t42.5 -91.5q0 -65 -55 -104t-148 -39z" />
    <glyph glyph-name="t" unicode="t" horiz-adv-x="387" 
d="M352 80l21 -48q-45 -42 -117 -42q-61 0 -96.5 33.5t-35.5 101.5v326h-100v49h100v124l57 15v-139h188v-49h-188v-317q0 -91 85 -91q51 0 86 37z" />
    <glyph glyph-name="u" unicode="u" horiz-adv-x="599" 
d="M452 500h57v-500h-50l-4 93q-50 -103 -189 -103q-82 0 -131.5 45.5t-49.5 135.5v329h57v-315q0 -145 134 -145q79 0 127.5 49.5t48.5 127.5v283z" />
    <glyph glyph-name="v" unicode="v" horiz-adv-x="506" 
d="M430 500h60l-208 -500h-58l-208 500h64l174 -442z" />
    <glyph glyph-name="w" unicode="w" horiz-adv-x="828" 
d="M731 500h63l-171 -500h-57l-155 428l-149 -428h-57l-171 500h63l138 -434l150 434h58l151 -434z" />
    <glyph glyph-name="x" unicode="x" horiz-adv-x="511" 
d="M486 0h-71l-161 213l-161 -213h-68l196 255l-185 245h72l151 -200l147 200h68l-183 -242z" />
    <glyph glyph-name="y" unicode="y" horiz-adv-x="516" 
d="M497 500l-240 -590q-28 -69 -62.5 -97t-87.5 -28q-65 0 -99 38l21 49q26 -37 77 -37q34 0 58 19.5t44 69.5l31 76l-211 500h65l147 -367l26 -72l29 79l140 360h62z" />
    <glyph glyph-name="z" unicode="z" horiz-adv-x="512" 
d="M51 0v44l286 349l55 59l-81 -1h-261v49h406v-44l-280 -342l-60 -66l91 1h260v-49h-416z" />
    <glyph glyph-name="braceleft" unicode="{" horiz-adv-x="318" 
d="M187 -66q0 -70 97 -70l-8 -46q-142 0 -142 120v219q0 52 -27.5 76.5t-85.5 24.5v49q113 0 113 101v219q0 120 142 120l8 -47q-97 0 -97 -69v-228q0 -97 -101 -120q101 -25 101 -121v-228z" />
    <glyph glyph-name="bar" unicode="|" horiz-adv-x="216" 
d="M133 730v-898h-50v898h50z" />
    <glyph glyph-name="braceright" unicode="}" horiz-adv-x="318" 
d="M184 408q0 -101 113 -101v-49q-58 0 -85.5 -24.5t-27.5 -76.5v-219q0 -120 -142 -120l-9 46q98 0 98 70v228q0 98 102 121q-102 23 -102 120v228q0 69 -98 69l9 47q142 0 142 -120v-219z" />
    <glyph glyph-name="asciitilde" unicode="~" horiz-adv-x="518" 
d="M475 388q-12 -129 -117 -129q-48 0 -104 37t-88 37q-55 0 -69 -76h-54q12 129 118 129q38 0 71.5 -18.5t63 -37t57.5 -18.5q54 0 68 76h54z" />
    <glyph glyph-name="uni00A0" unicode="&#xa0;" horiz-adv-x="319" 
 />
    <glyph glyph-name="exclamdown" unicode="&#xa1;" horiz-adv-x="232" 
d="M116 409q-22 0 -36 13.5t-14 36.5q0 22 14 35.5t36 13.5t35.5 -13.5t13.5 -35.5t-13.5 -36t-35.5 -14zM86 -160v312l8 154h44l8 -154v-312h-60z" />
    <glyph glyph-name="cent" unicode="&#xa2;" horiz-adv-x="556" 
d="M508 138q-19 -65 -69 -104t-121 -43v-91h-48v91q-98 10 -152 78t-54 181q0 112 54 180t152 78v92h48v-90q139 -9 186 -134l-54 -26q-31 104 -132 113v-426q54 5 90.5 36t48.5 82zM117 250q0 -92 39.5 -147t113.5 -65v423q-73 -9 -113 -64.5t-40 -146.5z" />
    <glyph glyph-name="sterling" unicode="&#xa3;" horiz-adv-x="607" 
d="M524 139h46q0 -74 -35 -111.5t-98 -37.5q-30 0 -58.5 9.5t-47 20.5t-43.5 29q-54 -59 -140 -59q-48 0 -76.5 21.5t-28.5 57.5q0 35 30.5 58.5t81.5 23.5q64 0 124 -41q11 27 11 56q0 57 -48 121h-153v47h117q-60 77 -60 141q0 86 57 140.5t147 54.5q156 0 190 -152
l-50 -27q-24 127 -142 127q-69 0 -109 -37t-40 -98q0 -32 13.5 -62.5t50.5 -80.5l5 -6h196v-47h-165q35 -60 35 -118q0 -47 -21 -84q64 -49 117 -49q93 0 94 103zM154 30q63 0 101 41q-54 36 -99 36q-60 0 -60 -38q0 -18 16 -28.5t42 -10.5z" />
    <glyph glyph-name="currency" unicode="&#xa4;" horiz-adv-x="642" 
d="M519 330q0 -73 -38 -125l94 -93l-36 -37l-95 93q-51 -39 -122 -39q-74 0 -125 40l-93 -94l-37 37l93 94q-37 52 -37 124q0 74 38 124l-94 92l37 37l93 -92q53 40 125 40q73 0 125 -41l92 93l36 -37l-92 -94q36 -52 36 -122zM322 180q62 0 101 41.5t39 108.5t-39 108.5
t-101 41.5q-63 0 -102.5 -41.5t-39.5 -108.5t39.5 -108.5t102.5 -41.5z" />
    <glyph glyph-name="yen" unicode="&#xa5;" horiz-adv-x="601" 
d="M340 284l33 3h151v-43h-198v-87h198v-41h-198v-116h-51v116h-197v41h197v87h-197v43h151l32 -3l-223 376h66l160 -286l36 -72h2l35 73l160 285h67z" />
    <glyph glyph-name="brokenbar" unicode="&#xa6;" horiz-adv-x="228" 
d="M139 730v-364h-50v364h50zM139 196v-364h-50v364h50z" />
    <glyph glyph-name="section" unicode="&#xa7;" horiz-adv-x="576" 
d="M546 269q0 -87 -100 -131q43 -37 43 -102q0 -62 -54 -104t-144 -42q-145 0 -201 95l42 35q39 -80 158 -80q67 0 104.5 24.5t37.5 66.5q0 48 -39.5 73.5t-142.5 40.5q-117 16 -164.5 49.5t-47.5 96.5q0 87 100 131q-43 37 -43 102q0 62 54.5 104t148.5 42q141 0 196 -95
l-40 -34q-43 79 -157 79q-69 0 -107 -24.5t-38 -66.5q0 -49 40 -74.5t142 -39.5q117 -16 164.5 -49t47.5 -97zM393 167q96 32 96 98q0 41 -37.5 63.5t-131.5 34.5q-80 10 -130 30q-95 -32 -95 -98q0 -41 37 -63t132 -35q79 -10 129 -30z" />
    <glyph glyph-name="dieresis" unicode="&#xa8;" horiz-adv-x="518" 
d="M166 677q20 0 32 -12.5t12 -32.5t-12 -32t-32 -12t-32.5 12t-12.5 32t12.5 32.5t32.5 12.5zM356 677q20 0 32.5 -12.5t12.5 -32.5t-12.5 -32t-32.5 -12t-32 12t-12 32t12 32.5t32 12.5z" />
    <glyph glyph-name="copyright" unicode="&#xa9;" horiz-adv-x="811" 
d="M406 670q155 0 248.5 -93t93.5 -247t-93.5 -247t-248.5 -93t-248.5 93t-93.5 247t93.5 247t248.5 93zM406 623q-132 0 -211.5 -80t-79.5 -213t79.5 -213t211.5 -80q131 0 210.5 80t79.5 213t-79.5 213t-210.5 80zM414 513q115 0 154 -97l-42 -21q-27 75 -113 75
q-62 0 -97 -37.5t-35 -104.5t35 -104.5t97 -37.5q92 0 119 80l40 -16q-17 -50 -58 -78.5t-100 -28.5q-85 0 -133.5 49.5t-48.5 135.5t48.5 135.5t133.5 49.5z" />
    <glyph glyph-name="ordfeminine" unicode="&#xaa;" horiz-adv-x="371" 
d="M334 363q18 0 25 5l-4 -33q-14 -8 -34 -8q-54 0 -61 54q-34 -54 -127 -54q-50 0 -79.5 21.5t-29.5 60.5q0 79 129 102l100 17v21q0 36 -22 56t-63 20q-78 0 -102 -65l-36 21q12 39 48.5 61.5t91.5 22.5q64 0 98 -29t34 -85v-153q0 -35 32 -35zM145 366q40 0 74 21t34 56
v52l-84 -16q-50 -10 -72 -24.5t-22 -40.5q0 -48 70 -48zM30 209v39h312v-39h-312z" />
    <glyph glyph-name="guillemotleft" unicode="&#xab;" horiz-adv-x="452" 
d="M245 461l-134 -196l134 -196h-63l-133 196l133 196h63zM401 461l-134 -196l134 -196h-64l-132 196l132 196h64z" />
    <glyph glyph-name="logicalnot" unicode="&#xac;" 
d="M65 343h474v-196h-57v143h-417v53z" />
    <glyph glyph-name="uni00AD" unicode="&#xad;" horiz-adv-x="477" 
d="M394 294v-59h-312v59h312z" />
    <glyph glyph-name="registered" unicode="&#xae;" horiz-adv-x="811" 
d="M406 670q155 0 248.5 -93t93.5 -247t-93.5 -247t-248.5 -93t-248.5 93t-93.5 247t93.5 247t248.5 93zM406 37q131 0 210.5 80t79.5 213t-79.5 213t-210.5 80q-132 0 -211.5 -80t-79.5 -213t79.5 -213t211.5 -80zM565 401q0 -44 -25 -72t-70 -36l102 -150h-55l-96 146h-93
v-146h-49v370h153q62 0 97.5 -29.5t35.5 -82.5zM328 475v-148h104q84 0 84 74t-84 74h-104z" />
    <glyph glyph-name="macron" unicode="&#xaf;" horiz-adv-x="518" 
d="M422 647v-48h-326v48h326z" />
    <glyph glyph-name="degree" unicode="&#xb0;" horiz-adv-x="428" 
d="M214 362q-70 0 -113.5 43t-43.5 111t43.5 111t113.5 43q69 0 113 -43t44 -111t-44 -111t-113 -43zM214 408q47 0 76.5 30.5t29.5 77.5t-29.5 77t-76.5 30t-77 -30t-30 -77t30 -77.5t77 -30.5z" />
    <glyph glyph-name="plusminus" unicode="&#xb1;" 
d="M329 412h210v-53h-210v-222h-53v222h-211v53h211v222h53v-222zM65 0v53h474v-53h-474z" />
    <glyph glyph-name="uni00B2" unicode="&#xb2;" horiz-adv-x="352" 
d="M38 333v36q71 55 100 78q65 52 92.5 88t27.5 74q0 37 -23 60.5t-64 23.5q-43 0 -69 -26.5t-28 -73.5l-45 15q4 59 42 93t101 34q65 0 102 -35t37 -89q0 -84 -137 -184q-46 -36 -70 -53v-1q5 0 25 1t26 1h167v-42h-284z" />
    <glyph glyph-name="uni00B3" unicode="&#xb3;" horiz-adv-x="342" 
d="M167 735q61 0 95.5 -29.5t34.5 -77.5q0 -40 -22.5 -64.5t-54.5 -30.5v-1q35 -2 60.5 -27t25.5 -66q0 -50 -39.5 -81t-101.5 -31q-115 0 -145 94l48 22q14 -74 97 -74q40 0 64.5 20.5t24.5 55.5q0 68 -87 68h-24v37h22q38 0 58.5 19.5t20.5 51.5q0 34 -20.5 53t-58.5 19
q-72 0 -86 -65l-47 17q12 43 48 66.5t87 23.5z" />
    <glyph glyph-name="acute" unicode="&#xb4;" horiz-adv-x="518" 
d="M319 743h62l-95 -160h-47z" />
    <glyph glyph-name="uni00B5" unicode="&#xb5;" horiz-adv-x="588" 
d="M450 500h57v-500h-48l-4 96q-52 -106 -192 -106q-83 0 -124 62v-262h-57v710h57v-315q0 -145 134 -145q73 0 121.5 41.5t55.5 107.5v311z" />
    <glyph glyph-name="paragraph" unicode="&#xb6;" horiz-adv-x="606" 
d="M519 660v-760h-51v712h-132v-712h-53v314q-111 0 -178.5 61.5t-67.5 161.5t71 161.5t187 61.5h224zM283 612q-89 0 -140.5 -47.5t-51.5 -127.5q0 -81 51 -128t141 -47v350z" />
    <glyph glyph-name="periodcentered" unicode="&#xb7;" horiz-adv-x="214" 
d="M107 406q22 0 35.5 -13.5t13.5 -35.5q0 -23 -13.5 -36.5t-35.5 -13.5q-23 0 -36.5 13.5t-13.5 36.5q0 22 14 35.5t36 13.5z" />
    <glyph glyph-name="cedilla" unicode="&#xb8;" horiz-adv-x="518" 
d="M221 3l36 17q59 -22 88.5 -56.5t29.5 -75.5t-29 -69.5t-77 -28.5q-68 0 -104 37l22 40q28 -34 75 -34q27 0 45 17.5t18 44.5q0 32 -22 55.5t-82 52.5z" />
    <glyph glyph-name="uni00B9" unicode="&#xb9;" horiz-adv-x="225" 
d="M126 730h44v-397h-51v272q0 33 3 69q-51 -50 -112 -63v43q29 7 65 29t51 47z" />
    <glyph glyph-name="ordmasculine" unicode="&#xba;" horiz-adv-x="358" 
d="M179 327q-151 0 -151 169t151 169q150 0 150 -169t-150 -169zM179 367q100 0 100 129t-100 129t-100 -129t100 -129zM39 209v39h280v-39h-280z" />
    <glyph glyph-name="guillemotright" unicode="&#xbb;" horiz-adv-x="450" 
d="M49 461h64l132 -196l-132 -196h-64l134 196zM205 461h63l133 -196l-133 -196h-63l134 196z" />
    <glyph glyph-name="onequarter" unicode="&#xbc;" horiz-adv-x="733" 
d="M121 609q-47 -49 -111 -63v43q29 7 65 29t51 47h44v-397h-51v272q0 21 2 69zM548 660h58l-473 -660h-57zM638 140h75v-37h-75v-107h-43v107h-199v28l186 262h56v-253zM595 286q0 43 2 64h-3q-21 -35 -32 -51l-116 -159h149v146z" />
    <glyph glyph-name="onehalf" unicode="&#xbd;" horiz-adv-x="808" 
d="M121 609q-47 -49 -111 -63v43q29 7 65 29t51 47h44v-397h-51v272q0 21 2 69zM548 660h58l-473 -660h-57zM611 38h167v-42h-284v36q71 55 100 78q65 52 92.5 88t27.5 74t-23 61t-64 23q-43 0 -69 -26.5t-28 -73.5l-45 15q4 59 42 93t101 34q65 0 102 -35t37 -89
q0 -84 -137 -184q-46 -36 -70 -53v-1q5 0 25 1t26 1z" />
    <glyph glyph-name="threequarters" unicode="&#xbe;" horiz-adv-x="850" 
d="M167 670q61 0 95.5 -29.5t34.5 -77.5q0 -40 -22.5 -64.5t-54.5 -30.5v-1q35 -2 60.5 -27t25.5 -66q0 -50 -39.5 -81t-101.5 -31q-115 0 -145 94l48 22q14 -74 97 -74q40 0 64.5 20.5t24.5 55.5q0 68 -87 68h-24v37h22q38 0 58.5 19.5t20.5 51.5q0 34 -20.5 53t-58.5 19
q-72 0 -86 -65l-47 17q12 43 48 66.5t87 23.5zM193 0l472 660h58l-473 -660h-57zM831 140v-37h-75v-107h-43v107h-199v28l186 262h56v-253h75zM564 140h149v146q0 43 2 64h-3q-21 -35 -32 -51z" />
    <glyph glyph-name="questiondown" unicode="&#xbf;" horiz-adv-x="513" 
d="M267 407q-23 0 -36.5 13.5t-13.5 36.5q0 22 14 35.5t36 13.5t35.5 -13.5t13.5 -35.5t-13.5 -36t-35.5 -14zM253 -172q-93 0 -151 46t-58 124q0 163 192 197v116h59v-146q-105 -23 -148 -59t-43 -102q0 -57 40 -90t113 -33q75 0 119 38t52 107l51 -28q-15 -80 -73.5 -125
t-152.5 -45z" />
    <glyph glyph-name="Agrave" unicode="&#xc0;" horiz-adv-x="633" 
d="M338 743h-47l-83 148h66zM552 0l-80 201h-312l-79 -201h-60l262 660h68l261 -660h-60zM181 254h270l-108 275l-26 76h-2l-24 -73z" />
    <glyph glyph-name="Aacute" unicode="&#xc1;" horiz-adv-x="633" 
d="M419 891l-83 -148h-47l64 148h66zM552 0l-80 201h-312l-79 -201h-60l262 660h68l261 -660h-60zM181 254h270l-108 275l-26 76h-2l-24 -73z" />
    <glyph glyph-name="Acircumflex" unicode="&#xc2;" horiz-adv-x="633" 
d="M317 858l-92 -120h-53l113 158h64l113 -158h-53zM552 0l-80 201h-312l-79 -201h-60l262 660h68l261 -660h-60zM181 254h270l-108 275l-26 76h-2l-24 -73z" />
    <glyph glyph-name="Atilde" unicode="&#xc3;" horiz-adv-x="633" 
d="M246 817q-25 0 -37 -17t-19 -52h-46q12 116 103 116q32 0 56 -17t43.5 -34.5t40.5 -17.5q25 0 38 17.5t19 52.5h45q-12 -116 -102 -116q-32 0 -56.5 17t-44 34t-40.5 17zM552 0l-80 201h-312l-79 -201h-60l262 660h68l261 -660h-60zM181 254h270l-108 275l-26 76h-2
l-24 -73z" />
    <glyph glyph-name="Adieresis" unicode="&#xc4;" horiz-adv-x="633" 
d="M221 748q-20 0 -32.5 12t-12.5 32t12.5 32.5t32.5 12.5t32 -12.5t12 -32.5t-12.5 -32t-31.5 -12zM411 748q-19 0 -31.5 12t-12.5 32t12 32.5t32 12.5t32.5 -12.5t12.5 -32.5t-12.5 -32t-32.5 -12zM552 0l-80 201h-312l-79 -201h-60l262 660h68l261 -660h-60zM181 254h270
l-108 275l-26 76h-2l-24 -73z" />
    <glyph glyph-name="Aring" unicode="&#xc5;" horiz-adv-x="633" 
d="M552 0l-80 201h-312l-79 -201h-60l252 634q-62 23 -62 94q0 44 29.5 72t76.5 28q48 0 77 -28t29 -72q0 -72 -62 -94l251 -634h-60zM251 728q0 -29 18.5 -47t47.5 -18t47 18.5t18 46.5t-18.5 46t-46.5 18q-29 0 -47.5 -18t-18.5 -46zM181 254h270l-108 275l-26 76h-2
l-24 -73z" />
    <glyph glyph-name="AE" unicode="&#xc6;" horiz-adv-x="929" 
d="M503 53h382v-53h-439v228h-246l-136 -228h-63l398 660h471v-53h-367v-246h285v-53h-285v-255zM232 281h214v326h-20z" />
    <glyph glyph-name="Ccedilla" unicode="&#xc7;" horiz-adv-x="673" 
d="M629 168q-25 -75 -83.5 -120.5t-139.5 -55.5q62 -42 62 -104q0 -41 -29 -69.5t-77 -28.5q-68 0 -104 37l22 40q28 -34 75 -34q27 0 45 17.5t18 44.5q0 29 -17 50t-63 46q-126 10 -200 100.5t-74 238.5q0 156 82 248t218 92q197 0 256 -161l-56 -26q-47 134 -196 134
q-111 0 -178 -77t-67 -210t65.5 -210t176.5 -77q77 0 131.5 37.5t76.5 108.5z" />
    <glyph glyph-name="Egrave" unicode="&#xc8;" horiz-adv-x="618" 
d="M369 743h-47l-83 148h66zM162 53h412v-53h-469v660h453v-53h-396v-245h312v-53h-312v-256z" />
    <glyph glyph-name="Eacute" unicode="&#xc9;" horiz-adv-x="618" 
d="M430 891l-83 -148h-47l64 148h66zM162 53h412v-53h-469v660h453v-53h-396v-245h312v-53h-312v-256z" />
    <glyph glyph-name="Ecircumflex" unicode="&#xca;" horiz-adv-x="618" 
d="M331 858l-92 -120h-53l113 158h64l113 -158h-53zM162 53h412v-53h-469v660h453v-53h-396v-245h312v-53h-312v-256z" />
    <glyph glyph-name="Edieresis" unicode="&#xcb;" horiz-adv-x="618" 
d="M236 748q-20 0 -32.5 12t-12.5 32t12.5 32.5t32.5 12.5t32 -12.5t12 -32.5t-12 -32t-32 -12zM426 748q-20 0 -32 12t-12 32t12 32.5t32 12.5t32.5 -12.5t12.5 -32.5t-12.5 -32t-32.5 -12zM162 53h412v-53h-469v660h453v-53h-396v-245h312v-53h-312v-256z" />
    <glyph glyph-name="Igrave" unicode="&#xcc;" horiz-adv-x="267" 
d="M90 891l64 -148h-47l-83 148h66zM162 660v-660h-57v660h57z" />
    <glyph glyph-name="Iacute" unicode="&#xcd;" horiz-adv-x="267" 
d="M170 891h66l-83 -148h-47zM162 660v-660h-57v660h57z" />
    <glyph glyph-name="Icircumflex" unicode="&#xce;" horiz-adv-x="267" 
d="M278 738h-53l-92 120l-92 -120h-53l113 158h64zM162 660v-660h-57v660h57z" />
    <glyph glyph-name="Idieresis" unicode="&#xcf;" horiz-adv-x="267" 
d="M57 837q20 0 32 -12.5t12 -32.5t-12.5 -32t-31.5 -12t-31.5 12t-12.5 32t12 32.5t32 12.5zM210 837q20 0 32 -12.5t12 -32.5t-12 -32t-32 -12t-32.5 12t-12.5 32t12.5 32.5t32.5 12.5zM162 660v-660h-57v660h57z" />
    <glyph glyph-name="Eth" unicode="&#xd0;" horiz-adv-x="720" 
d="M327 660q158 0 244 -84t86 -242q0 -161 -86 -247.5t-244 -86.5h-209v312h-100v43h100v305h209zM332 53q127 0 196 73t69 208q0 131 -69 202t-196 71h-157v-252h200v-43h-200v-259h157z" />
    <glyph glyph-name="Ntilde" unicode="&#xd1;" horiz-adv-x="720" 
d="M537 865q-12 -116 -102 -116q-32 0 -56.5 17t-44 34t-40.5 17q-25 0 -37 -17t-19 -52h-46q12 116 103 116q32 0 56 -17t43.5 -34.5t40.5 -17.5q25 0 38 17.5t19 52.5h45zM615 660v-660h-71l-333 501l-54 97h-1l3 -89v-509h-54v660h71l332 -499l55 -99l-3 89v509h55z" />
    <glyph glyph-name="Ograve" unicode="&#xd2;" horiz-adv-x="736" 
d="M325 891l64 -148h-47l-83 148h66zM368 670q140 0 222 -91.5t82 -248.5t-82 -248.5t-222 -91.5t-222 91.5t-82 248.5t82 248.5t222 91.5zM368 617q-113 0 -179 -77t-66 -210t66 -210t179 -77t179 77t66 210t-66 210t-179 77z" />
    <glyph glyph-name="Oacute" unicode="&#xd3;" horiz-adv-x="736" 
d="M404 891h66l-83 -148h-47zM368 670q140 0 222 -91.5t82 -248.5t-82 -248.5t-222 -91.5t-222 91.5t-82 248.5t82 248.5t222 91.5zM368 617q-113 0 -179 -77t-66 -210t66 -210t179 -77t179 77t66 210t-66 210t-179 77z" />
    <glyph glyph-name="Ocircumflex" unicode="&#xd4;" horiz-adv-x="736" 
d="M513 738h-53l-92 120l-92 -120h-53l113 158h64zM368 670q140 0 222 -91.5t82 -248.5t-82 -248.5t-222 -91.5t-222 91.5t-82 248.5t82 248.5t222 91.5zM368 617q-113 0 -179 -77t-66 -210t66 -210t179 -77t179 77t66 210t-66 210t-179 77z" />
    <glyph glyph-name="Otilde" unicode="&#xd5;" horiz-adv-x="736" 
d="M540 865q-12 -116 -102 -116q-32 0 -56.5 17t-44 34t-40.5 17q-25 0 -37 -17t-19 -52h-46q12 116 103 116q32 0 56 -17t43.5 -34.5t40.5 -17.5q25 0 38 17.5t19 52.5h45zM368 670q140 0 222 -91.5t82 -248.5t-82 -248.5t-222 -91.5t-222 91.5t-82 248.5t82 248.5
t222 91.5zM368 617q-113 0 -179 -77t-66 -210t66 -210t179 -77t179 77t66 210t-66 210t-179 77z" />
    <glyph glyph-name="Odieresis" unicode="&#xd6;" horiz-adv-x="736" 
d="M273 837q20 0 32 -12.5t12 -32.5t-12.5 -32t-31.5 -12q-20 0 -32.5 12t-12.5 32t12.5 32.5t32.5 12.5zM463 837q20 0 32.5 -12.5t12.5 -32.5t-12.5 -32t-32.5 -12q-19 0 -31.5 12t-12.5 32t12 32.5t32 12.5zM368 670q140 0 222 -91.5t82 -248.5t-82 -248.5t-222 -91.5
t-222 91.5t-82 248.5t82 248.5t222 91.5zM368 617q-113 0 -179 -77t-66 -210t66 -210t179 -77t179 77t66 210t-66 210t-179 77z" />
    <glyph glyph-name="multiply" unicode="&#xd7;" 
d="M507 482l-167 -166l167 -167l-39 -39l-166 167l-167 -167l-39 39l167 167l-167 166l39 39l167 -167l166 167z" />
    <glyph glyph-name="Oslash" unicode="&#xd8;" horiz-adv-x="736" 
d="M581 588q91 -93 91 -258q0 -157 -82 -248.5t-222 -91.5q-102 0 -175 50l-53 -74h-53l72 102q-95 92 -95 262q0 157 82 248.5t222 91.5q104 0 180 -53l48 69h53zM123 330q0 -137 70 -215l322 455q-59 47 -147 47q-113 0 -179 -77t-66 -210zM368 43q113 0 179 77t66 210
t-66 210l-322 -454q60 -43 143 -43z" />
    <glyph glyph-name="Ugrave" unicode="&#xd9;" horiz-adv-x="706" 
d="M317 891l64 -148h-47l-83 148h66zM608 660v-418q0 -123 -66 -187.5t-189 -64.5t-189.5 64.5t-66.5 187.5v418h57v-405q0 -212 199 -212q198 0 198 212v405h57z" />
    <glyph glyph-name="Uacute" unicode="&#xda;" horiz-adv-x="706" 
d="M389 891h66l-83 -148h-47zM608 660v-418q0 -123 -66 -187.5t-189 -64.5t-189.5 64.5t-66.5 187.5v418h57v-405q0 -212 199 -212q198 0 198 212v405h57z" />
    <glyph glyph-name="Ucircumflex" unicode="&#xdb;" horiz-adv-x="706" 
d="M498 738h-53l-92 120l-92 -120h-53l113 158h64zM608 660v-418q0 -123 -66 -187.5t-189 -64.5t-189.5 64.5t-66.5 187.5v418h57v-405q0 -212 199 -212q198 0 198 212v405h57z" />
    <glyph glyph-name="Udieresis" unicode="&#xdc;" horiz-adv-x="706" 
d="M258 837q20 0 32 -12.5t12 -32.5t-12 -32t-32 -12t-32.5 12t-12.5 32t12.5 32.5t32.5 12.5zM448 837q20 0 32.5 -12.5t12.5 -32.5t-12.5 -32t-32.5 -12t-32 12t-12 32t12 32.5t32 12.5zM608 660v-418q0 -123 -66 -187.5t-189 -64.5t-189.5 64.5t-66.5 187.5v418h57v-405
q0 -212 199 -212q198 0 198 212v405h57z" />
    <glyph glyph-name="Yacute" unicode="&#xdd;" horiz-adv-x="550" 
d="M312 891h66l-83 -148h-47zM538 660l-234 -403v-257h-57v257l-235 403h68l195 -344l196 344h67z" />
    <glyph glyph-name="Thorn" unicode="&#xde;" horiz-adv-x="605" 
d="M315 536q120 0 180.5 -50.5t60.5 -147.5t-60.5 -147.5t-180.5 -50.5h-153v-140h-57v660h57v-124h153zM324 193q173 0 173 145t-173 145h-162v-290h162z" />
    <glyph glyph-name="germandbls" unicode="&#xdf;" horiz-adv-x="597" 
d="M355 386q92 -1 139 -57t47 -137q0 -86 -55.5 -144t-153.5 -58q-70 0 -105 37l18 45q34 -31 90 -31q70 0 110.5 43t40.5 113q0 78 -48 118t-135 40h-41v53h41q69 0 110.5 39t41.5 104q0 64 -38 97.5t-108 33.5q-86 0 -124 -49t-38 -148v-485h-57v504q0 231 224 231
q98 0 149 -53t51 -129q0 -66 -42.5 -115t-116.5 -50v-2z" />
    <glyph glyph-name="agrave" unicode="&#xe0;" horiz-adv-x="548" 
d="M295 583h-47l-95 160h62zM494 39q22 0 39 6l-3 -45q-20 -10 -52 -10q-76 0 -84 82q-23 -38 -72 -60t-104 -22q-74 0 -119.5 33.5t-45.5 94.5q0 119 191 152l149 26v40q0 58 -34.5 91t-97.5 33q-115 0 -156 -103l-43 31q21 58 73.5 90t125.5 32q87 0 138 -42.5t51 -124.5
v-255q0 -49 44 -49zM222 40q66 0 118.5 33t52.5 89v87l-131 -24q-150 -27 -150 -107q0 -37 29 -57.5t81 -20.5z" />
    <glyph glyph-name="aacute" unicode="&#xe1;" horiz-adv-x="548" 
d="M372 743l-95 -160h-47l80 160h62zM494 39q22 0 39 6l-3 -45q-20 -10 -52 -10q-76 0 -84 82q-23 -38 -72 -60t-104 -22q-74 0 -119.5 33.5t-45.5 94.5q0 119 191 152l149 26v40q0 58 -34.5 91t-97.5 33q-115 0 -156 -103l-43 31q21 58 73.5 90t125.5 32q87 0 138 -42.5
t51 -124.5v-255q0 -49 44 -49zM222 40q66 0 118.5 33t52.5 89v87l-131 -24q-150 -27 -150 -107q0 -37 29 -57.5t81 -20.5z" />
    <glyph glyph-name="acircumflex" unicode="&#xe2;" horiz-adv-x="548" 
d="M264 696l-90 -117h-53l110 158h66l110 -158h-53zM494 39q22 0 39 6l-3 -45q-20 -10 -52 -10q-76 0 -84 82q-23 -38 -72 -60t-104 -22q-74 0 -119.5 33.5t-45.5 94.5q0 119 191 152l149 26v40q0 58 -34.5 91t-97.5 33q-115 0 -156 -103l-43 31q21 58 73.5 90t125.5 32
q87 0 138 -42.5t51 -124.5v-255q0 -49 44 -49zM222 40q66 0 118.5 33t52.5 89v87l-131 -24q-150 -27 -150 -107q0 -37 29 -57.5t81 -20.5z" />
    <glyph glyph-name="atilde" unicode="&#xe3;" horiz-adv-x="548" 
d="M193 657q-25 0 -37 -17t-19 -52h-46q12 116 103 116q32 0 56 -17t43.5 -34.5t40.5 -17.5q25 0 38 17.5t19 52.5h45q-12 -116 -102 -116q-32 0 -56.5 17t-44 34t-40.5 17zM494 39q22 0 39 6l-3 -45q-20 -10 -52 -10q-76 0 -84 82q-23 -38 -72 -60t-104 -22
q-74 0 -119.5 33.5t-45.5 94.5q0 119 191 152l149 26v40q0 58 -34.5 91t-97.5 33q-115 0 -156 -103l-43 31q21 58 73.5 90t125.5 32q87 0 138 -42.5t51 -124.5v-255q0 -49 44 -49zM222 40q66 0 118.5 33t52.5 89v87l-131 -24q-150 -27 -150 -107q0 -37 29 -57.5t81 -20.5z
" />
    <glyph glyph-name="adieresis" unicode="&#xe4;" horiz-adv-x="548" 
d="M169 588q-20 0 -32.5 12t-12.5 32t12.5 32.5t32.5 12.5t32 -12.5t12 -32.5t-12.5 -32t-31.5 -12zM359 588q-19 0 -31.5 12t-12.5 32t12 32.5t32 12.5t32.5 -12.5t12.5 -32.5t-12.5 -32t-32.5 -12zM494 39q22 0 39 6l-3 -45q-20 -10 -52 -10q-76 0 -84 82q-23 -38 -72 -60
t-104 -22q-74 0 -119.5 33.5t-45.5 94.5q0 119 191 152l149 26v40q0 58 -34.5 91t-97.5 33q-115 0 -156 -103l-43 31q21 58 73.5 90t125.5 32q87 0 138 -42.5t51 -124.5v-255q0 -49 44 -49zM222 40q66 0 118.5 33t52.5 89v87l-131 -24q-150 -27 -150 -107q0 -37 29 -57.5
t81 -20.5z" />
    <glyph glyph-name="aring" unicode="&#xe5;" horiz-adv-x="548" 
d="M261 575q-49 0 -79.5 29t-30.5 76q0 46 30.5 75t79.5 29t79.5 -29t30.5 -75q0 -47 -30.5 -76t-79.5 -29zM261 748q-29 0 -49 -19.5t-20 -48.5t20 -48.5t49 -19.5q30 0 50 19.5t20 48.5t-20 48.5t-50 19.5zM494 39q22 0 39 6l-3 -45q-20 -10 -52 -10q-76 0 -84 82
q-23 -38 -72 -60t-104 -22q-74 0 -119.5 33.5t-45.5 94.5q0 119 191 152l149 26v40q0 58 -34.5 91t-97.5 33q-115 0 -156 -103l-43 31q21 58 73.5 90t125.5 32q87 0 138 -42.5t51 -124.5v-255q0 -49 44 -49zM222 40q66 0 118.5 33t52.5 89v87l-131 -24q-150 -27 -150 -107
q0 -37 29 -57.5t81 -20.5z" />
    <glyph glyph-name="ae" unicode="&#xe6;" horiz-adv-x="878" 
d="M822 272q0 -19 -2 -39h-371q4 -90 49.5 -141.5t118.5 -51.5q113 0 148 88l48 -25q-28 -56 -74.5 -84.5t-121.5 -28.5q-149 0 -195 136q-18 -67 -75.5 -101.5t-132.5 -34.5q-73 0 -117 34.5t-44 93.5t46.5 98t138.5 50l159 18v51q0 58 -35.5 91.5t-100.5 33.5
q-114 0 -156 -103l-43 31q22 59 74.5 90.5t126.5 31.5q64 0 108 -28.5t63 -83.5q56 112 178 112q103 0 156.5 -64t53.5 -174zM612 460q-68 0 -111.5 -46.5t-50.5 -129.5h319q-11 176 -157 176zM224 40q68 0 120.5 40t52.5 114v46l-141 -19q-144 -19 -144 -103q0 -38 30 -58
t82 -20z" />
    <glyph glyph-name="ccedilla" unicode="&#xe7;" horiz-adv-x="550" 
d="M504 137q-19 -61 -65 -99.5t-112 -45.5q62 -42 62 -104q0 -41 -29 -69.5t-77 -28.5q-68 0 -104 37l22 40q28 -34 75 -34q27 0 45 17.5t18 44.5q0 29 -17.5 50.5t-65.5 46.5q-94 12 -146 80t-52 178q0 122 63 191t175 69q75 0 127 -35t76 -99l-54 -26q-33 110 -151 110
q-84 0 -131.5 -56t-47.5 -154t47 -154t131 -56q63 0 105.5 30.5t52.5 84.5z" />
    <glyph glyph-name="egrave" unicode="&#xe8;" horiz-adv-x="564" 
d="M318 583h-47l-95 160h62zM509 265q0 -18 -2 -38h-392q5 -88 52.5 -137.5t127.5 -49.5q58 0 99.5 23t59.5 65l47 -25q-59 -113 -206 -113q-111 0 -174 69t-63 191t61 191t171 69q103 0 161 -68t58 -177zM290 460q-78 0 -123.5 -47.5t-51.5 -134.5h340q-6 86 -49 134
t-116 48z" />
    <glyph glyph-name="eacute" unicode="&#xe9;" horiz-adv-x="564" 
d="M394 743l-95 -160h-47l80 160h62zM509 265q0 -18 -2 -38h-392q5 -88 52.5 -137.5t127.5 -49.5q58 0 99.5 23t59.5 65l47 -25q-59 -113 -206 -113q-111 0 -174 69t-63 191t61 191t171 69q103 0 161 -68t58 -177zM290 460q-78 0 -123.5 -47.5t-51.5 -134.5h340
q-6 86 -49 134t-116 48z" />
    <glyph glyph-name="ecircumflex" unicode="&#xea;" horiz-adv-x="564" 
d="M286 696l-90 -117h-53l110 158h66l110 -158h-53zM509 265q0 -18 -2 -38h-392q5 -88 52.5 -137.5t127.5 -49.5q58 0 99.5 23t59.5 65l47 -25q-59 -113 -206 -113q-111 0 -174 69t-63 191t61 191t171 69q103 0 161 -68t58 -177zM290 460q-78 0 -123.5 -47.5t-51.5 -134.5
h340q-6 86 -49 134t-116 48z" />
    <glyph glyph-name="edieresis" unicode="&#xeb;" horiz-adv-x="564" 
d="M191 588q-20 0 -32.5 12t-12.5 32t12.5 32.5t32.5 12.5t32 -12.5t12 -32.5t-12.5 -32t-31.5 -12zM381 588q-19 0 -31.5 12t-12.5 32t12 32.5t32 12.5t32.5 -12.5t12.5 -32.5t-12.5 -32t-32.5 -12zM509 265q0 -18 -2 -38h-392q5 -88 52.5 -137.5t127.5 -49.5q58 0 99.5 23
t59.5 65l47 -25q-59 -113 -206 -113q-111 0 -174 69t-63 191t61 191t171 69q103 0 161 -68t58 -177zM290 460q-78 0 -123.5 -47.5t-51.5 -134.5h340q-6 86 -49 134t-116 48z" />
    <glyph glyph-name="igrave" unicode="&#xec;" horiz-adv-x="237" 
d="M70 743l80 -160h-47l-95 160h62zM147 500v-500h-57v500h57z" />
    <glyph glyph-name="iacute" unicode="&#xed;" horiz-adv-x="237" 
d="M164 743h62l-95 -160h-47zM147 500v-500h-57v500h57z" />
    <glyph glyph-name="icircumflex" unicode="&#xee;" horiz-adv-x="237" 
d="M262 579h-53l-90 117l-90 -117h-53l110 158h66zM147 500v-500h-57v500h57z" />
    <glyph glyph-name="idieresis" unicode="&#xef;" horiz-adv-x="237" 
d="M49 588q-19 0 -31.5 12t-12.5 32t12 32.5t32 12.5q21 0 33 -12.5t12 -32.5t-12 -32t-33 -12zM188 588q-20 0 -32.5 12t-12.5 32t12.5 32.5t32.5 12.5t32 -12.5t12 -32.5t-12 -32t-32 -12zM147 500v-500h-57v500h57z" />
    <glyph glyph-name="eth" unicode="&#xf0;" horiz-adv-x="605" 
d="M540 632l-100 -21q93 -124 93 -325q0 -139 -61 -217.5t-178 -78.5q-109 0 -172.5 66.5t-63.5 181.5q0 113 64.5 180t167.5 67q132 0 187 -94q-21 127 -87 208l-181 -44l-8 36l165 36q-56 57 -149 103h82q70 -39 118 -91l112 29zM297 40q83 0 131.5 57t50.5 148
q0 84 -48.5 137t-133.5 53q-83 0 -131.5 -53t-48.5 -144q0 -92 48.5 -145t131.5 -53z" />
    <glyph glyph-name="ntilde" unicode="&#xf1;" horiz-adv-x="603" 
d="M238 657q-25 0 -37 -17t-19 -52h-46q12 116 103 116q40 0 78.5 -34.5t61.5 -34.5q25 0 38 17.5t19 52.5h45q-12 -116 -102 -116q-32 0 -56.5 17t-44 34t-40.5 17zM326 510q86 0 139 -48.5t53 -138.5v-323h-57v305q0 78 -38 116.5t-103 38.5q-71 0 -122 -48t-51 -133v-279
h-57v500h51l3 -95q24 51 72.5 78t109.5 27z" />
    <glyph glyph-name="ograve" unicode="&#xf2;" horiz-adv-x="594" 
d="M248 743l80 -160h-47l-95 160h62zM297 510q112 0 175.5 -69t63.5 -191t-63.5 -191t-175.5 -69t-175.5 69t-63.5 191t63.5 191t175.5 69zM297 461q-85 0 -133.5 -56.5t-48.5 -154.5t48.5 -154.5t133.5 -56.5t133.5 56.5t48.5 154.5t-48.5 154.5t-133.5 56.5z" />
    <glyph glyph-name="oacute" unicode="&#xf3;" horiz-adv-x="594" 
d="M343 743h62l-95 -160h-47zM297 510q112 0 175.5 -69t63.5 -191t-63.5 -191t-175.5 -69t-175.5 69t-63.5 191t63.5 191t175.5 69zM297 461q-85 0 -133.5 -56.5t-48.5 -154.5t48.5 -154.5t133.5 -56.5t133.5 56.5t48.5 154.5t-48.5 154.5t-133.5 56.5z" />
    <glyph glyph-name="ocircumflex" unicode="&#xf4;" horiz-adv-x="594" 
d="M440 579h-53l-90 117l-90 -117h-53l110 158h66zM297 510q112 0 175.5 -69t63.5 -191t-63.5 -191t-175.5 -69t-175.5 69t-63.5 191t63.5 191t175.5 69zM297 461q-85 0 -133.5 -56.5t-48.5 -154.5t48.5 -154.5t133.5 -56.5t133.5 56.5t48.5 154.5t-48.5 154.5t-133.5 56.5z
" />
    <glyph glyph-name="otilde" unicode="&#xf5;" horiz-adv-x="594" 
d="M469 705q-12 -116 -102 -116q-32 0 -56.5 17t-44 34t-40.5 17q-25 0 -37 -17t-19 -52h-46q12 116 103 116q32 0 56 -17t43.5 -34.5t40.5 -17.5q25 0 38 17.5t19 52.5h45zM297 510q112 0 175.5 -69t63.5 -191t-63.5 -191t-175.5 -69t-175.5 69t-63.5 191t63.5 191
t175.5 69zM297 461q-85 0 -133.5 -56.5t-48.5 -154.5t48.5 -154.5t133.5 -56.5t133.5 56.5t48.5 154.5t-48.5 154.5t-133.5 56.5z" />
    <glyph glyph-name="odieresis" unicode="&#xf6;" horiz-adv-x="594" 
d="M202 677q20 0 32 -12.5t12 -32.5t-12 -32t-32 -12t-32.5 12t-12.5 32t12.5 32.5t32.5 12.5zM392 677q20 0 32.5 -12.5t12.5 -32.5t-12.5 -32t-32.5 -12t-32 12t-12 32t12 32.5t32 12.5zM297 510q112 0 175.5 -69t63.5 -191t-63.5 -191t-175.5 -69t-175.5 69t-63.5 191
t63.5 191t175.5 69zM297 461q-85 0 -133.5 -56.5t-48.5 -154.5t48.5 -154.5t133.5 -56.5t133.5 56.5t48.5 154.5t-48.5 154.5t-133.5 56.5z" />
    <glyph glyph-name="divide" unicode="&#xf7;" 
d="M302 557q22 0 36 -13.5t14 -35.5t-14 -36t-36 -14t-36 14t-14 36t14 35.5t36 13.5zM539 343v-53h-474v53h474zM302 174q22 0 36 -14t14 -36t-14 -35.5t-36 -13.5t-36 13.5t-14 35.5t14 36t36 14z" />
    <glyph glyph-name="oslash" unicode="&#xf8;" horiz-adv-x="595" 
d="M297 510q88 0 146 -44l46 60h51l-67 -86q63 -69 63 -190q0 -122 -63.5 -191t-175.5 -69q-81 0 -139 39l-49 -63h-50l67 88q-68 70 -68 196q0 122 63.5 191t175.5 69zM161 99h1l32 43l217 282q-46 37 -114 37q-85 0 -133.5 -56.5t-48.5 -154.5q0 -96 46 -151zM297 39
q85 0 133.5 56.5t48.5 154.5q0 89 -41 144h-1l-27 -37l-219 -285q41 -33 106 -33z" />
    <glyph glyph-name="ugrave" unicode="&#xf9;" horiz-adv-x="599" 
d="M329 583h-47l-95 160h62zM452 500h57v-500h-50l-4 93q-50 -103 -189 -103q-82 0 -131.5 45.5t-49.5 135.5v329h57v-315q0 -145 134 -145q79 0 127.5 49.5t48.5 127.5v283z" />
    <glyph glyph-name="uacute" unicode="&#xfa;" horiz-adv-x="599" 
d="M406 743l-95 -160h-47l80 160h62zM452 500h57v-500h-50l-4 93q-50 -103 -189 -103q-82 0 -131.5 45.5t-49.5 135.5v329h57v-315q0 -145 134 -145q79 0 127.5 49.5t48.5 127.5v283z" />
    <glyph glyph-name="ucircumflex" unicode="&#xfb;" horiz-adv-x="599" 
d="M298 696l-90 -117h-53l110 158h66l110 -158h-53zM452 500h57v-500h-50l-4 93q-50 -103 -189 -103q-82 0 -131.5 45.5t-49.5 135.5v329h57v-315q0 -145 134 -145q79 0 127.5 49.5t48.5 127.5v283z" />
    <glyph glyph-name="udieresis" unicode="&#xfc;" horiz-adv-x="599" 
d="M203 588q-20 0 -32.5 12t-12.5 32t12.5 32.5t32.5 12.5t32 -12.5t12 -32.5t-12.5 -32t-31.5 -12zM393 588q-19 0 -31.5 12t-12.5 32t12 32.5t32 12.5t32.5 -12.5t12.5 -32.5t-12.5 -32t-32.5 -12zM452 500h57v-500h-50l-4 93q-50 -103 -189 -103q-82 0 -131.5 45.5
t-49.5 135.5v329h57v-315q0 -145 134 -145q79 0 127.5 49.5t48.5 127.5v283z" />
    <glyph glyph-name="yacute" unicode="&#xfd;" horiz-adv-x="516" 
d="M308 743h62l-95 -160h-47zM497 500l-240 -590q-28 -69 -62.5 -97t-87.5 -28q-65 0 -99 38l21 49q26 -37 77 -37q34 0 58 19.5t44 69.5l31 76l-211 500h65l147 -367l26 -72l29 79l140 360h62z" />
    <glyph glyph-name="thorn" unicode="&#xfe;" horiz-adv-x="614" 
d="M327 510q106 0 167 -69t61 -191t-61 -191t-167 -69q-62 0 -109 27t-71 74v-301h-57v940h57v-321q24 47 71 74t109 27zM320 40q84 0 131 56t47 154t-47 154t-131 56q-79 0 -126 -55t-47 -150v-10q0 -95 47 -150t126 -55z" />
    <glyph glyph-name="ydieresis" unicode="&#xff;" horiz-adv-x="516" 
d="M167 677q20 0 32 -12.5t12 -32.5t-12.5 -32t-31.5 -12q-20 0 -32.5 12t-12.5 32t12.5 32.5t32.5 12.5zM357 677q20 0 32.5 -12.5t12.5 -32.5t-12.5 -32t-32.5 -12q-19 0 -31.5 12t-12.5 32t12 32.5t32 12.5zM497 500l-240 -590q-28 -69 -62.5 -97t-87.5 -28q-65 0 -99 38
l21 49q26 -37 77 -37q34 0 58 19.5t44 69.5l31 76l-211 500h65l147 -367l26 -72l29 79l140 360h62z" />
    <glyph glyph-name="Amacron" unicode="&#x100;" horiz-adv-x="633" 
d="M480 807v-48h-326v48h326zM552 0l-80 201h-312l-79 -201h-60l262 660h68l261 -660h-60zM181 254h270l-108 275l-26 76h-2l-24 -73z" />
    <glyph glyph-name="amacron" unicode="&#x101;" horiz-adv-x="548" 
d="M427 647v-48h-326v48h326zM494 39q22 0 39 6l-3 -45q-20 -10 -52 -10q-76 0 -84 82q-23 -38 -72 -60t-104 -22q-74 0 -119.5 33.5t-45.5 94.5q0 119 191 152l149 26v40q0 58 -34.5 91t-97.5 33q-115 0 -156 -103l-43 31q21 58 73.5 90t125.5 32q87 0 138 -42.5t51 -124.5
v-255q0 -49 44 -49zM222 40q66 0 118.5 33t52.5 89v87l-131 -24q-150 -27 -150 -107q0 -37 29 -57.5t81 -20.5z" />
    <glyph glyph-name="Abreve" unicode="&#x102;" horiz-adv-x="633" 
d="M317 738q-63 0 -100.5 38t-37.5 101h47q0 -41 25.5 -68t65.5 -27t65.5 27t25.5 68h47q0 -63 -38 -101t-100 -38zM552 0l-80 201h-312l-79 -201h-60l262 660h68l261 -660h-60zM181 254h270l-108 275l-26 76h-2l-24 -73z" />
    <glyph glyph-name="abreve" unicode="&#x103;" horiz-adv-x="548" 
d="M264 578q-63 0 -100.5 38t-37.5 101h47q0 -41 25.5 -68t65.5 -27t65.5 27t25.5 68h47q0 -63 -38 -101t-100 -38zM494 39q22 0 39 6l-3 -45q-20 -10 -52 -10q-76 0 -84 82q-23 -38 -72 -60t-104 -22q-74 0 -119.5 33.5t-45.5 94.5q0 119 191 152l149 26v40q0 58 -34.5 91
t-97.5 33q-115 0 -156 -103l-43 31q21 58 73.5 90t125.5 32q87 0 138 -42.5t51 -124.5v-255q0 -49 44 -49zM222 40q66 0 118.5 33t52.5 89v87l-131 -24q-150 -27 -150 -107q0 -37 29 -57.5t81 -20.5z" />
    <glyph glyph-name="Aogonek" unicode="&#x104;" horiz-adv-x="633" 
d="M613 -153l12 -38q-29 -19 -78 -19t-78.5 24.5t-29.5 69.5q0 80 109 127l-76 190h-312l-79 -201h-60l262 660h68l261 -660h1q-71 -25 -99 -52t-28 -60q0 -27 18.5 -42t48.5 -15q37 0 60 16zM181 254h270l-108 275l-26 76h-2l-24 -73z" />
    <glyph glyph-name="aogonek" unicode="&#x105;" horiz-adv-x="548" 
d="M463 -169q38 0 58 14l12 -38q-28 -17 -74 -17q-48 0 -77.5 24t-29.5 64q0 74 95 120q-44 19 -52 76q-22 -40 -72 -62t-105 -22q-74 0 -119.5 33.5t-45.5 94.5q0 119 191 152l149 26v40q0 58 -34.5 91t-97.5 33q-114 0 -156 -103l-43 31q21 58 73.5 90t125.5 32
q87 0 138 -42.5t51 -124.5v-255q0 -49 44 -49q22 0 39 6l-3 -45l-1 -1q-72 -25 -101 -51t-29 -61q0 -26 17.5 -41t46.5 -15zM222 40q66 0 118.5 33t52.5 89v87l-131 -24q-78 -15 -114 -40.5t-36 -66.5q0 -37 29 -57.5t81 -20.5z" />
    <glyph glyph-name="Cacute" unicode="&#x106;" horiz-adv-x="673" 
d="M397 891h66l-83 -148h-47zM629 168q-29 -84 -98.5 -131t-165.5 -47q-138 0 -219.5 92t-81.5 248t82 248t218 92q197 0 256 -161l-56 -26q-47 134 -196 134q-111 0 -178 -77t-67 -210t65.5 -210t176.5 -77q77 0 131.5 37.5t76.5 108.5z" />
    <glyph glyph-name="cacute" unicode="&#x107;" horiz-adv-x="550" 
d="M334 743h62l-95 -160h-47zM296 510q75 0 127 -35t76 -99l-54 -26q-33 110 -151 110q-84 0 -131.5 -56t-47.5 -154t47 -154t131 -56q63 0 105.5 30.5t52.5 84.5l53 -18q-21 -69 -76 -108t-133 -39q-112 0 -174.5 69t-62.5 191t63 191t175 69z" />
    <glyph glyph-name="Ccaron" unicode="&#x10c;" horiz-adv-x="673" 
d="M505 898l-113 -158h-64l-113 158h53l92 -120l92 120h53zM629 168q-29 -84 -98.5 -131t-165.5 -47q-138 0 -219.5 92t-81.5 248t82 248t218 92q197 0 256 -161l-56 -26q-47 134 -196 134q-111 0 -178 -77t-67 -210t65.5 -210t176.5 -77q77 0 131.5 37.5t76.5 108.5z" />
    <glyph glyph-name="ccaron" unicode="&#x10d;" horiz-adv-x="550" 
d="M431 741l-110 -158h-66l-110 158h53l90 -117l90 117h53zM296 510q75 0 127 -35t76 -99l-54 -26q-33 110 -151 110q-84 0 -131.5 -56t-47.5 -154t47 -154t131 -56q63 0 105.5 30.5t52.5 84.5l53 -18q-21 -69 -76 -108t-133 -39q-112 0 -174.5 69t-62.5 191t63 191t175 69z
" />
    <glyph glyph-name="Dcaron" unicode="&#x10e;" horiz-adv-x="708" 
d="M351 740h-64l-113 158h53l92 -120l92 120h53zM314 660q158 0 244 -84t86 -242q0 -161 -86 -247.5t-244 -86.5h-209v660h209zM319 53q127 0 196 73t69 208q0 131 -69 202t-196 71h-157v-554h157z" />
    <glyph glyph-name="dcaron" unicode="&#x10f;" horiz-adv-x="625" 
d="M467 401v329h57v-730h-51l-3 105q-22 -53 -70.5 -84t-112.5 -31q-106 0 -167 69t-61 191t61 191t167 69q63 0 110 -29t70 -80zM613 730h55l-37 -197h-40zM294 40q76 0 122.5 51t50.5 140v38q-4 89 -50.5 140t-122.5 51q-84 0 -131 -56t-47 -154t47 -154t131 -56z" />
    <glyph glyph-name="Dcroat" unicode="&#x110;" horiz-adv-x="720" 
d="M327 660q158 0 244 -84t86 -242q0 -161 -86 -247.5t-244 -86.5h-209v312h-100v43h100v305h209zM332 53q127 0 196 73t69 208q0 131 -69 202t-196 71h-157v-252h200v-43h-200v-259h157z" />
    <glyph glyph-name="dcroat" unicode="&#x111;" horiz-adv-x="613" 
d="M608 619v-43h-84v-576h-51l-3 105q-22 -53 -70.5 -84t-112.5 -31q-106 0 -167 69t-61 191t61 191t167 69q63 0 110 -29t70 -80v175h-166v43h166v111h57v-111h84zM294 40q76 0 122.5 51t50.5 140v38q-4 89 -50.5 140t-122.5 51q-84 0 -131 -56t-47 -154t47 -154t131 -56z
" />
    <glyph glyph-name="Emacron" unicode="&#x112;" horiz-adv-x="618" 
d="M494 807v-48h-326v48h326zM162 53h412v-53h-469v660h453v-53h-396v-245h312v-53h-312v-256z" />
    <glyph glyph-name="emacron" unicode="&#x113;" horiz-adv-x="564" 
d="M449 647v-48h-326v48h326zM509 265q0 -18 -2 -38h-392q5 -88 52.5 -137.5t127.5 -49.5q58 0 99.5 23t59.5 65l47 -25q-59 -113 -206 -113q-111 0 -174 69t-63 191t61 191t171 69q103 0 161 -68t58 -177zM290 460q-78 0 -123.5 -47.5t-51.5 -134.5h340q-6 86 -49 134
t-116 48z" />
    <glyph glyph-name="Edotaccent" unicode="&#x116;" horiz-adv-x="618" 
d="M331 757q-21 0 -33.5 12.5t-12.5 33.5t12.5 33.5t33.5 12.5t33.5 -12.5t12.5 -33.5t-12.5 -33.5t-33.5 -12.5zM162 53h412v-53h-469v660h453v-53h-396v-245h312v-53h-312v-256z" />
    <glyph glyph-name="edotaccent" unicode="&#x117;" horiz-adv-x="564" 
d="M286 597q-21 0 -33.5 12.5t-12.5 33.5t12.5 33.5t33.5 12.5t33.5 -12.5t12.5 -33.5t-12.5 -33.5t-33.5 -12.5zM509 265q0 -18 -2 -38h-392q5 -88 52.5 -137.5t127.5 -49.5q58 0 99.5 23t59.5 65l47 -25q-59 -113 -206 -113q-111 0 -174 69t-63 191t61 191t171 69
q103 0 161 -68t58 -177zM290 460q-78 0 -123.5 -47.5t-51.5 -134.5h340q-6 86 -49 134t-116 48z" />
    <glyph glyph-name="Eogonek" unicode="&#x118;" horiz-adv-x="618" 
d="M574 -153l12 -38q-28 -19 -78 -19q-49 0 -78.5 24t-29.5 66t24 70.5t75 49.5h-394v660h453v-53h-396v-245h312v-53h-312v-256h412v-53q-71 -25 -99 -52t-28 -60q0 -27 18.5 -42t48.5 -15q37 0 60 16z" />
    <glyph glyph-name="eogonek" unicode="&#x119;" horiz-adv-x="564" 
d="M509 265q0 -18 -2 -38h-392q5 -88 52.5 -137.5t127.5 -49.5q58 0 99.5 23t59.5 65l47 -25q-39 -75 -119 -101q-98 -57 -98 -111q0 -28 18.5 -44t48.5 -16q35 0 59 15l12 -37q-28 -19 -78 -19q-48 0 -78 25.5t-30 67.5q0 61 66 107h-7q-111 0 -174 69t-63 191t61 191
t171 69q103 0 161 -68t58 -177zM290 460q-78 0 -123.5 -47.5t-51.5 -134.5h340q-6 86 -49 134t-116 48z" />
    <glyph glyph-name="Ecaron" unicode="&#x11a;" horiz-adv-x="618" 
d="M363 740h-64l-113 158h53l92 -120l92 120h53zM162 53h412v-53h-469v660h453v-53h-396v-245h312v-53h-312v-256z" />
    <glyph glyph-name="ecaron" unicode="&#x11b;" horiz-adv-x="564" 
d="M319 583h-66l-110 158h53l90 -117l90 117h53zM509 265q0 -18 -2 -38h-392q5 -88 52.5 -137.5t127.5 -49.5q58 0 99.5 23t59.5 65l47 -25q-59 -113 -206 -113q-111 0 -174 69t-63 191t61 191t171 69q103 0 161 -68t58 -177zM290 460q-78 0 -123.5 -47.5t-51.5 -134.5h340
q-6 86 -49 134t-116 48z" />
    <glyph glyph-name="Gbreve" unicode="&#x11e;" horiz-adv-x="707" 
d="M362 738q-63 0 -100.5 38t-37.5 101h47q0 -41 25.5 -68t65.5 -27t65.5 27t25.5 68h47q0 -63 -38 -101t-100 -38zM359 325h273v-325h-44l-2 108q-58 -118 -222 -118q-138 0 -219 91.5t-81 248.5q0 156 82.5 248t219.5 92q196 0 261 -159l-51 -28q-47 134 -210 134
q-110 0 -176.5 -77.5t-66.5 -209.5q0 -134 64 -210.5t179 -76.5q102 0 158 56t56 139v34h-221v53z" />
    <glyph glyph-name="gbreve" unicode="&#x11f;" horiz-adv-x="519" 
d="M271 578q-62 0 -100 38t-38 101h47q0 -41 25.5 -68t65.5 -27t65.5 27t25.5 68h48q0 -63 -38 -101t-101 -38zM348 54q75 0 118 -31.5t43 -83.5q0 -70 -67.5 -112t-173.5 -42q-114 0 -173.5 36.5t-59.5 96.5q0 38 23 65.5t64 40.5q-63 32 -63 87q0 36 23 61.5t62 36.5
q-82 44 -82 136q0 75 56 120t148 45q62 0 111 -22q7 48 42.5 76t86.5 28l13 -50q-97 0 -106 -76q57 -46 57 -121q0 -74 -56 -119t-148 -45q-31 0 -68 7q-41 -4 -63 -23t-22 -46q0 -65 106 -65h129zM266 462q-67 0 -106.5 -31.5t-39.5 -85.5t39 -85t107 -31t107 31t39 85
t-39 85.5t-107 31.5zM275 -167q83 0 132.5 28t49.5 71q0 73 -121 73h-129q-55 0 -87.5 -21.5t-32.5 -56.5q0 -44 48.5 -69t139.5 -25z" />
    <glyph glyph-name="uni0122" unicode="&#x122;" horiz-adv-x="707" 
d="M359 325h273v-325h-44l-2 108q-58 -118 -222 -118q-138 0 -219 91.5t-81 248.5q0 156 82.5 248t219.5 92q196 0 261 -159l-51 -28q-47 134 -210 134q-110 0 -176.5 -77.5t-66.5 -209.5q0 -134 64 -210.5t179 -76.5q102 0 158 56t56 139v34h-221v53zM301 -234l46 161h60
l-61 -161h-45z" />
    <glyph glyph-name="uni0123" unicode="&#x123;" horiz-adv-x="519" 
d="M346 778l-46 -191h-63l66 191h43zM348 54q75 0 118 -31.5t43 -83.5q0 -70 -67.5 -112t-173.5 -42q-114 0 -173.5 36.5t-59.5 96.5q0 38 23 65.5t64 40.5q-63 32 -63 87q0 36 23 61.5t62 36.5q-82 44 -82 136q0 75 56 120t148 45q62 0 111 -22q7 48 42.5 76t86.5 28
l13 -50q-97 0 -106 -76q57 -46 57 -121q0 -74 -56 -119t-148 -45q-31 0 -68 7q-41 -4 -63 -23t-22 -46q0 -65 106 -65h129zM266 462q-67 0 -106.5 -31.5t-39.5 -85.5t39 -85t107 -31t107 31t39 85t-39 85.5t-107 31.5zM275 -167q83 0 132.5 28t49.5 71q0 73 -121 73h-129
q-55 0 -87.5 -21.5t-32.5 -56.5q0 -44 48.5 -69t139.5 -25z" />
    <glyph glyph-name="Imacron" unicode="&#x12a;" horiz-adv-x="267" 
d="M242 807v-48h-217v48h217zM162 660v-660h-57v660h57z" />
    <glyph glyph-name="imacron" unicode="&#x12b;" horiz-adv-x="237" 
d="M216 647v-48h-195v48h195zM147 500v-500h-57v500h57z" />
    <glyph glyph-name="Iogonek" unicode="&#x12e;" horiz-adv-x="267" 
d="M179 -151l15 -37q-32 -22 -78 -22t-75.5 25t-29.5 67q0 73 94 123v655h57v-660h-1q-58 -32 -80.5 -57t-22.5 -52q0 -28 17 -43.5t46 -15.5q35 0 58 17z" />
    <glyph glyph-name="iogonek" unicode="&#x12f;" horiz-adv-x="237" 
d="M119 597q-21 0 -34 12.5t-13 33.5t13 33.5t34 12.5q20 0 33 -12.5t13 -33.5t-13 -33.5t-33 -12.5zM174 -152l14 -37q-28 -21 -77 -21q-47 0 -76 25t-29 67q0 34 20.5 61.5t63.5 56.5v500h57v-500q-53 -34 -73 -58.5t-20 -54.5q0 -25 17 -40.5t44 -15.5q35 0 59 17z" />
    <glyph glyph-name="Idotaccent" unicode="&#x130;" horiz-adv-x="267" 
d="M133 849q21 0 33.5 -12.5t12.5 -33.5t-12.5 -33.5t-33.5 -12.5t-33.5 12.5t-12.5 33.5t12.5 33.5t33.5 12.5zM162 660v-660h-57v660h57z" />
    <glyph glyph-name="dotlessi" unicode="&#x131;" horiz-adv-x="237" 
d="M147 500v-500h-57v500h57z" />
    <glyph glyph-name="IJ" unicode="&#x132;" horiz-adv-x="808" 
d="M162 660v-660h-57v660h57zM711 660v-440q0 -108 -56 -169t-157 -61q-107 0 -157 60t-32 162l53 12q-24 -181 134 -181q83 0 120.5 48t37.5 142v427h57z" />
    <glyph glyph-name="ij" unicode="&#x133;" horiz-adv-x="475" 
d="M119 597q-21 0 -34 12.5t-13 33.5t13 33.5t34 12.5q20 0 33 -12.5t13 -33.5t-13 -33.5t-33 -12.5zM356 689q19 0 32.5 -13.5t13.5 -32.5t-13.5 -32.5t-32.5 -13.5q-20 0 -33.5 13.5t-13.5 32.5t13.5 32.5t33.5 13.5zM147 500v-500h-57v500h57zM384 500v-556
q0 -79 -42 -119t-103 -40q-55 0 -89 29l12 54q30 -28 77 -28q40 0 64 27.5t24 81.5v551h57z" />
    <glyph glyph-name="uni0136" unicode="&#x136;" horiz-adv-x="620" 
d="M331 393l267 -393h-69l-239 351l-128 -131v-220h-57v660h57v-363l355 363h75zM269 -234l46 161h60l-61 -161h-45z" />
    <glyph glyph-name="uni0137" unicode="&#x137;" horiz-adv-x="536" 
d="M304 301l213 -301h-69l-186 261l-115 -113v-148h-57v730h57v-510l288 280h73zM229 -234l46 161h60l-61 -161h-45z" />
    <glyph glyph-name="Lacute" unicode="&#x139;" horiz-adv-x="578" 
d="M236 891l-83 -148h-47l64 148h66zM162 53h391v-53h-448v660h57v-607z" />
    <glyph glyph-name="lacute" unicode="&#x13a;" horiz-adv-x="287" 
d="M128 930h63l-55 -133h-46zM143 730v-606q0 -44 14 -62t47 -18t68 14l-9 -55q-29 -13 -68 -13q-109 0 -109 128v612h57z" />
    <glyph glyph-name="uni013B" unicode="&#x13b;" horiz-adv-x="578" 
d="M162 53h391v-53h-448v660h57v-607zM267 -234l46 161h60l-61 -161h-45z" />
    <glyph glyph-name="uni013C" unicode="&#x13c;" horiz-adv-x="281" 
d="M143 730v-606q0 -44 14 -62t47 -18t68 14l-9 -55q-29 -13 -68 -13q-109 0 -109 128v612h57zM223 -73l-61 -161h-45l46 161h60z" />
    <glyph glyph-name="Lcaron" unicode="&#x13d;" horiz-adv-x="578" 
d="M341 700l-37 -197h-40l22 197h55zM162 53h391v-53h-448v660h57v-607z" />
    <glyph glyph-name="lcaron" unicode="&#x13e;" horiz-adv-x="281" 
d="M143 730v-606q0 -44 14 -62t47 -18t68 14l-9 -55q-29 -13 -68 -13q-109 0 -109 128v612h57zM288 730l-37 -197h-40l22 197h55z" />
    <glyph glyph-name="Ldot" unicode="&#x13f;" horiz-adv-x="598" 
d="M162 660v-607h391v-53h-448v660h57zM514 290q-22 0 -35.5 13.5t-13.5 35.5t13.5 36t35.5 14t36 -13.5t14 -36.5q0 -22 -14 -35.5t-36 -13.5z" />
    <glyph glyph-name="ldot" unicode="&#x140;" horiz-adv-x="366" 
d="M143 730v-606q0 -44 14 -62t47 -18t68 14l-9 -55q-29 -13 -68 -13q-109 0 -109 128v612h57zM299 406q23 0 36.5 -14t13.5 -36t-14 -35.5t-36 -13.5t-35.5 13.5t-13.5 35.5t13.5 36t35.5 14z" />
    <glyph glyph-name="Lslash" unicode="&#x141;" horiz-adv-x="601" 
d="M185 53h392v-53h-449v262l-104 -60v60l104 61v337h57v-304l188 110v-60l-188 -110v-243z" />
    <glyph glyph-name="lslash" unicode="&#x142;" horiz-adv-x="338" 
d="M244 44q33 0 68 14l-9 -55q-29 -13 -68 -13q-109 0 -109 128v188l-96 -63v59l96 63v365h57v-327l122 81v-59l-122 -81v-220q0 -44 14 -62t47 -18z" />
    <glyph glyph-name="Nacute" unicode="&#x143;" horiz-adv-x="720" 
d="M401 891h66l-83 -148h-47zM615 660v-660h-71l-333 501l-54 97h-1l3 -89v-509h-54v660h71l332 -499l55 -99l-3 89v509h55z" />
    <glyph glyph-name="nacute" unicode="&#x144;" horiz-adv-x="603" 
d="M417 743l-95 -160h-47l80 160h62zM326 510q86 0 139 -48.5t53 -138.5v-323h-57v305q0 78 -38 116.5t-103 38.5q-71 0 -122 -48t-51 -133v-279h-57v500h51l3 -95q24 51 72.5 78t109.5 27z" />
    <glyph glyph-name="uni0145" unicode="&#x145;" horiz-adv-x="720" 
d="M615 660v-660h-71l-333 501l-54 97h-1l3 -89v-509h-54v660h71l332 -499l55 -99l-3 89v509h55zM401 -73l-61 -161h-45l46 161h60z" />
    <glyph glyph-name="uni0146" unicode="&#x146;" horiz-adv-x="603" 
d="M326 510q86 0 139 -48.5t53 -138.5v-323h-57v305q0 78 -38 116.5t-103 38.5q-71 0 -122 -48t-51 -133v-279h-57v500h51l3 -95q24 51 72.5 78t109.5 27zM251 -234l46 161h60l-61 -161h-45z" />
    <glyph glyph-name="Ncaron" unicode="&#x147;" horiz-adv-x="720" 
d="M510 898l-113 -158h-64l-113 158h53l92 -120l92 120h53zM615 660v-660h-71l-333 501l-54 97h-1l3 -89v-509h-54v660h71l332 -499l55 -99l-3 89v509h55z" />
    <glyph glyph-name="ncaron" unicode="&#x148;" horiz-adv-x="603" 
d="M342 583h-66l-110 158h53l90 -117l90 117h53zM326 510q86 0 139 -48.5t53 -138.5v-323h-57v305q0 78 -38 116.5t-103 38.5q-71 0 -122 -48t-51 -133v-279h-57v500h51l3 -95q24 51 72.5 78t109.5 27z" />
    <glyph glyph-name="Omacron" unicode="&#x14c;" horiz-adv-x="736" 
d="M531 807v-48h-326v48h326zM368 670q140 0 222 -91.5t82 -248.5t-82 -248.5t-222 -91.5t-222 91.5t-82 248.5t82 248.5t222 91.5zM368 617q-113 0 -179 -77t-66 -210t66 -210t179 -77t179 77t66 210t-66 210t-179 77z" />
    <glyph glyph-name="omacron" unicode="&#x14d;" horiz-adv-x="594" 
d="M460 647v-48h-326v48h326zM297 510q112 0 175.5 -69t63.5 -191t-63.5 -191t-175.5 -69t-175.5 69t-63.5 191t63.5 191t175.5 69zM297 461q-85 0 -133.5 -56.5t-48.5 -154.5t48.5 -154.5t133.5 -56.5t133.5 56.5t48.5 154.5t-48.5 154.5t-133.5 56.5z" />
    <glyph glyph-name="Ohungarumlaut" unicode="&#x150;" horiz-adv-x="736" 
d="M329 891h67l-83 -148h-47zM485 891h67l-83 -148h-47zM368 670q140 0 222 -91.5t82 -248.5t-82 -248.5t-222 -91.5t-222 91.5t-82 248.5t82 248.5t222 91.5zM368 617q-113 0 -179 -77t-66 -210t66 -210t179 -77t179 77t66 210t-66 210t-179 77z" />
    <glyph glyph-name="ohungarumlaut" unicode="&#x151;" horiz-adv-x="594" 
d="M318 743l-94 -160h-47l79 160h62zM478 743l-94 -160h-47l79 160h62zM297 510q112 0 175.5 -69t63.5 -191t-63.5 -191t-175.5 -69t-175.5 69t-63.5 191t63.5 191t175.5 69zM297 461q-85 0 -133.5 -56.5t-48.5 -154.5t48.5 -154.5t133.5 -56.5t133.5 56.5t48.5 154.5
t-48.5 154.5t-133.5 56.5z" />
    <glyph glyph-name="OE" unicode="&#x152;" horiz-adv-x="1069" 
d="M641 53h384v-53h-437v119q-71 -129 -229 -129q-136 0 -215.5 91.5t-79.5 248.5t80 248.5t218 91.5q156 0 226 -127v117h421v-53h-368v-245h288v-53h-288v-256zM362 43q109 0 167.5 74t58.5 213t-58.5 213t-167.5 74q-112 0 -175.5 -76.5t-63.5 -210.5t63.5 -210.5
t175.5 -76.5z" />
    <glyph glyph-name="oe" unicode="&#x153;" horiz-adv-x="988" 
d="M932 265q0 -18 -2 -38h-392q5 -88 53 -137.5t128 -49.5q120 0 158 88l47 -25q-59 -113 -205 -113q-154 0 -209 132q-55 -132 -211 -132q-113 0 -177 69t-64 191t64 191t177 69q156 0 211 -131q51 131 203 131q103 0 161 -68t58 -177zM299 40q85 0 133.5 56t48.5 154
t-48.5 154t-133.5 56t-133.5 -56t-48.5 -154t48.5 -154t133.5 -56zM713 460q-78 0 -123.5 -47.5t-51.5 -134.5h340q-6 86 -49 134t-116 48z" />
    <glyph glyph-name="Racute" unicode="&#x154;" horiz-adv-x="646" 
d="M414 891l-83 -148h-47l64 148h66zM538 0l-188 283h-188v-283h-57v660h246q99 0 158.5 -50.5t59.5 -137.5q0 -72 -41 -120t-113 -62l190 -290h-67zM162 607v-271h188q78 0 118.5 35t40.5 101t-40.5 100.5t-118.5 34.5h-188z" />
    <glyph glyph-name="racute" unicode="&#x155;" horiz-adv-x="385" 
d="M319 743l-95 -160h-47l80 160h62zM306 510q38 0 61 -15l-14 -54q-25 16 -63 16q-57 0 -100 -50t-43 -129v-278h-57v500h48l7 -97q41 107 161 107z" />
    <glyph glyph-name="uni0156" unicode="&#x156;" horiz-adv-x="646" 
d="M415 290l190 -290h-67l-188 283h-188v-283h-57v660h246q99 0 158.5 -50.5t59.5 -137.5q0 -72 -41 -120t-113 -62zM162 607v-271h188q78 0 118.5 35t40.5 101t-40.5 100.5t-118.5 34.5h-188zM274 -234l46 161h60l-61 -161h-45z" />
    <glyph glyph-name="uni0157" unicode="&#x157;" horiz-adv-x="385" 
d="M306 510q38 0 61 -15l-14 -54q-25 16 -63 16q-57 0 -100 -50t-43 -129v-278h-57v500h48l7 -97q41 107 161 107zM48 -234l46 161h60l-61 -161h-45z" />
    <glyph glyph-name="Rcaron" unicode="&#x158;" horiz-adv-x="646" 
d="M344 740h-64l-113 158h53l92 -120l92 120h53zM538 0l-188 283h-188v-283h-57v660h246q99 0 158.5 -50.5t59.5 -137.5q0 -72 -41 -120t-113 -62l190 -290h-67zM162 607v-271h188q78 0 118.5 35t40.5 101t-40.5 100.5t-118.5 34.5h-188z" />
    <glyph glyph-name="rcaron" unicode="&#x159;" horiz-adv-x="385" 
d="M244 583h-66l-110 158h53l90 -117l90 117h53zM306 510q38 0 61 -15l-14 -54q-25 16 -63 16q-57 0 -100 -50t-43 -129v-278h-57v500h48l7 -97q41 107 161 107z" />
    <glyph glyph-name="Sacute" unicode="&#x15a;" horiz-adv-x="624" 
d="M350 891h66l-83 -148h-47zM311 670q184 0 250 -145l-49 -39q-26 69 -73.5 100t-126.5 31q-85 0 -134 -37t-49 -94q0 -54 44 -83.5t159 -49.5q129 -21 183 -63.5t54 -117.5q0 -82 -68.5 -132t-180.5 -50q-103 0 -174.5 41t-99.5 114l49 39q22 -68 80.5 -104.5t145.5 -36.5
q85 0 137 33.5t52 92.5q0 51 -43.5 81t-151.5 48q-135 23 -190.5 65t-55.5 117q0 80 66 135t176 55z" />
    <glyph glyph-name="sacute" unicode="&#x15b;" horiz-adv-x="510" 
d="M301 743h62l-95 -160h-47zM255 -10q-75 0 -131.5 29.5t-79.5 86.5l47 31q16 -48 61 -72.5t109 -24.5q66 0 103 25t37 65q0 35 -32 56t-113 35q-106 19 -149 51.5t-43 92.5q0 61 53.5 103t139.5 42q157 0 193 -122l-48 -28q-30 100 -145 100q-58 0 -97 -26t-39 -63
q0 -39 33 -61t117 -36q102 -17 144.5 -49.5t42.5 -91.5q0 -65 -55 -104t-148 -39z" />
    <glyph glyph-name="uni015E" unicode="&#x15e;" horiz-adv-x="624" 
d="M569 172q0 -74 -57.5 -123t-153.5 -57q61 -42 61 -104q0 -41 -29 -69.5t-77 -28.5q-68 0 -104 37l22 40q28 -34 75 -34q27 0 45 17.5t18 44.5q0 29 -17 50t-63 46q-91 6 -154 46.5t-89 107.5l49 39q22 -68 80.5 -104.5t145.5 -36.5q85 0 137 33.5t52 92.5q0 51 -43.5 81
t-151.5 48q-135 23 -190.5 65t-55.5 117q0 80 66 135t176 55q184 0 250 -145l-49 -39q-26 69 -73.5 100t-126.5 31q-85 0 -134 -37t-49 -94q0 -54 44 -83.5t159 -49.5q129 -21 183 -63.5t54 -117.5z" />
    <glyph glyph-name="uni015F" unicode="&#x15f;" horiz-adv-x="510" 
d="M458 133q0 -56 -41.5 -93t-114.5 -47q63 -42 63 -105q0 -41 -29 -69.5t-77 -28.5q-68 0 -104 37l22 40q28 -34 75 -34q27 0 45 17.5t18 44.5q0 28 -17.5 49.5t-62.5 46.5q-68 3 -119 32.5t-72 82.5l47 31q16 -48 61 -72.5t109 -24.5q66 0 103 25t37 65q0 35 -32 56
t-113 35q-106 19 -149 51.5t-43 92.5q0 61 53.5 103t139.5 42q157 0 193 -122l-48 -28q-30 100 -145 100q-58 0 -97 -26t-39 -63q0 -39 33 -61t117 -36q102 -17 144.5 -49.5t42.5 -91.5z" />
    <glyph glyph-name="Scaron" unicode="&#x160;" horiz-adv-x="624" 
d="M458 898l-113 -158h-64l-113 158h53l92 -120l92 120h53zM311 670q184 0 250 -145l-49 -39q-26 69 -73.5 100t-126.5 31q-85 0 -134 -37t-49 -94q0 -54 44 -83.5t159 -49.5q129 -21 183 -63.5t54 -117.5q0 -82 -68.5 -132t-180.5 -50q-103 0 -174.5 41t-99.5 114l49 39
q22 -68 80.5 -104.5t145.5 -36.5q85 0 137 33.5t52 92.5q0 51 -43.5 81t-151.5 48q-135 23 -190.5 65t-55.5 117q0 80 66 135t176 55z" />
    <glyph glyph-name="scaron" unicode="&#x161;" horiz-adv-x="510" 
d="M398 741l-110 -158h-66l-110 158h53l90 -117l90 117h53zM255 -10q-75 0 -131.5 29.5t-79.5 86.5l47 31q16 -48 61 -72.5t109 -24.5q66 0 103 25t37 65q0 35 -32 56t-113 35q-106 19 -149 51.5t-43 92.5q0 61 53.5 103t139.5 42q157 0 193 -122l-48 -28q-30 100 -145 100
q-58 0 -97 -26t-39 -63q0 -39 33 -61t117 -36q102 -17 144.5 -49.5t42.5 -91.5q0 -65 -55 -104t-148 -39z" />
    <glyph glyph-name="uni0162" unicode="&#x162;" horiz-adv-x="582" 
d="M558 607h-238v-600q75 -50 75 -119q0 -41 -29.5 -69.5t-77.5 -28.5q-66 0 -104 38l23 39q28 -34 74 -34q28 0 45.5 17.5t17.5 45.5q0 30 -18 52t-63 52v607h-239v53h534v-53z" />
    <glyph glyph-name="uni0163" unicode="&#x163;" horiz-adv-x="399" 
d="M278 -9q61 -42 61 -103q0 -41 -28.5 -69.5t-77.5 -28.5q-68 0 -104 37l22 40q29 -34 75 -34q27 0 44.5 17t17.5 45q0 30 -18.5 53t-68.5 51q-77 26 -77 126v326h-100v49h100v124l57 15v-139h188v-49h-188v-317q0 -91 85 -91q51 0 86 37l21 -48q-39 -35 -95 -41z" />
    <glyph glyph-name="Tcaron" unicode="&#x164;" horiz-adv-x="582" 
d="M323 740h-64l-113 158h53l92 -120l92 120h53zM558 660v-53h-238v-607h-57v607h-239v53h534z" />
    <glyph glyph-name="tcaron" unicode="&#x165;" horiz-adv-x="387" 
d="M330 767l-37 -197h-40l22 197h55zM352 80l21 -48q-45 -42 -117 -42q-61 0 -96.5 33.5t-35.5 101.5v326h-100v49h100v124l57 15v-139h188v-49h-188v-317q0 -91 85 -91q51 0 86 37z" />
    <glyph glyph-name="Umacron" unicode="&#x16a;" horiz-adv-x="706" 
d="M516 807v-48h-326v48h326zM608 660v-418q0 -123 -66 -187.5t-189 -64.5t-189.5 64.5t-66.5 187.5v418h57v-405q0 -212 199 -212q198 0 198 212v405h57z" />
    <glyph glyph-name="umacron" unicode="&#x16b;" horiz-adv-x="599" 
d="M461 647v-48h-326v48h326zM452 500h57v-500h-50l-4 93q-50 -103 -189 -103q-82 0 -131.5 45.5t-49.5 135.5v329h57v-315q0 -145 134 -145q79 0 127.5 49.5t48.5 127.5v283z" />
    <glyph glyph-name="Uring" unicode="&#x16e;" horiz-adv-x="706" 
d="M353 861q49 0 79.5 -29t30.5 -75q0 -47 -30.5 -76t-79.5 -29q-48 0 -79 29.5t-31 75.5t31 75t79 29zM353 825q-29 0 -49 -19.5t-20 -48.5t20 -48.5t49 -19.5q30 0 50 19.5t20 48.5t-20 48.5t-50 19.5zM608 660v-418q0 -123 -66 -187.5t-189 -64.5t-189.5 64.5
t-66.5 187.5v418h57v-405q0 -212 199 -212q198 0 198 212v405h57z" />
    <glyph glyph-name="uring" unicode="&#x16f;" horiz-adv-x="599" 
d="M295 575q-49 0 -79.5 29t-30.5 76q0 46 30.5 75t79.5 29t79.5 -29t30.5 -75q0 -47 -30.5 -76t-79.5 -29zM295 748q-29 0 -49 -19.5t-20 -48.5t20 -48.5t49 -19.5q30 0 50 19.5t20 48.5t-20 48.5t-50 19.5zM452 500h57v-500h-50l-4 93q-50 -103 -189 -103
q-82 0 -131.5 45.5t-49.5 135.5v329h57v-315q0 -145 134 -145q79 0 127.5 49.5t48.5 127.5v283z" />
    <glyph glyph-name="Uhungarumlaut" unicode="&#x170;" horiz-adv-x="706" 
d="M306 892h67l-83 -148h-47zM459 891h67l-83 -148h-47zM608 660v-418q0 -123 -66 -187.5t-189 -64.5t-189.5 64.5t-66.5 187.5v418h57v-405q0 -212 199 -212q198 0 198 212v405h57z" />
    <glyph glyph-name="uhungarumlaut" unicode="&#x171;" horiz-adv-x="599" 
d="M319 743l-94 -160h-47l79 160h62zM479 743l-94 -160h-47l79 160h62zM452 500h57v-500h-50l-4 93q-50 -103 -189 -103q-82 0 -131.5 45.5t-49.5 135.5v329h57v-315q0 -145 134 -145q79 0 127.5 49.5t48.5 127.5v283z" />
    <glyph glyph-name="Uogonek" unicode="&#x172;" horiz-adv-x="706" 
d="M551 660h57v-418q0 -101 -45.5 -163t-130.5 -81q-104 -53 -104 -110q0 -27 18.5 -42t48.5 -15q39 0 61 15l12 -37q-28 -19 -79 -19q-48 0 -78 24.5t-30 66.5q0 65 68 109q-121 1 -186.5 65.5t-65.5 186.5v418h57v-405q0 -212 199 -212q198 0 198 212v405z" />
    <glyph glyph-name="uogonek" unicode="&#x173;" horiz-adv-x="599" 
d="M512 -153l13 -36q-31 -21 -78 -21q-48 0 -74 23t-26 63q0 41 26.5 71t87.5 62l-7 93q-27 -52 -77.5 -82t-110.5 -30q-82 0 -131.5 45.5t-49.5 135.5v329h57v-315q0 -145 130 -145q79 0 129.5 53.5t50.5 128.5v278h57v-500q-66 -37 -91.5 -61t-25.5 -55q0 -53 61 -53
q36 0 59 16z" />
    <glyph glyph-name="Ydieresis" unicode="&#x178;" horiz-adv-x="550" 
d="M180 837q20 0 32 -12.5t12 -32.5t-12 -32t-32 -12t-32.5 12t-12.5 32t12.5 32.5t32.5 12.5zM370 837q20 0 32.5 -12.5t12.5 -32.5t-12.5 -32t-32.5 -12t-32 12t-12 32t12 32.5t32 12.5zM538 660l-234 -403v-257h-57v257l-235 403h68l195 -344l196 344h67z" />
    <glyph glyph-name="Zacute" unicode="&#x179;" horiz-adv-x="602" 
d="M398 891l-83 -148h-47l64 148h66zM113 53h445v-53h-512v51l429 556h-420v53h488v-51z" />
    <glyph glyph-name="zacute" unicode="&#x17a;" horiz-adv-x="512" 
d="M292 743h62l-95 -160h-47zM51 0v44l286 349l55 59l-81 -1h-261v49h406v-44l-280 -342l-60 -66l91 1h260v-49h-416z" />
    <glyph glyph-name="Zdotaccent" unicode="&#x17b;" horiz-adv-x="602" 
d="M296 757q-21 0 -33.5 12.5t-12.5 33.5t12.5 33.5t33.5 12.5t33.5 -12.5t12.5 -33.5t-12.5 -33.5t-33.5 -12.5zM113 53h445v-53h-512v51l429 556h-420v53h488v-51z" />
    <glyph glyph-name="zdotaccent" unicode="&#x17c;" horiz-adv-x="512" 
d="M247 689q21 0 33.5 -12.5t12.5 -33.5t-12.5 -33.5t-33.5 -12.5t-33.5 12.5t-12.5 33.5t12.5 33.5t33.5 12.5zM51 0v44l286 349l55 59l-81 -1h-261v49h406v-44l-280 -342l-60 -66l91 1h260v-49h-416z" />
    <glyph glyph-name="Zcaron" unicode="&#x17d;" horiz-adv-x="602" 
d="M328 740h-64l-113 158h53l92 -120l92 120h53zM113 53h445v-53h-512v51l429 556h-420v53h488v-51z" />
    <glyph glyph-name="zcaron" unicode="&#x17e;" horiz-adv-x="512" 
d="M390 741l-110 -158h-66l-110 158h53l90 -117l90 117h53zM51 0v44l286 349l55 59l-81 -1h-261v49h406v-44l-280 -342l-60 -66l91 1h260v-49h-416z" />
    <glyph glyph-name="longs" unicode="&#x17f;" horiz-adv-x="242" 
d="M86 0v587q0 148 126 148q50 0 72 -24l-12 -46q-19 18 -50 18q-79 0 -79 -101v-582h-57z" />
    <glyph glyph-name="florin" unicode="&#x192;" horiz-adv-x="456" 
d="M378 683q-77 0 -93 -101l-29 -182h156v-49h-163l-52 -331q-24 -148 -144 -148q-45 0 -82 21l10 51q27 -20 67 -20q76 0 91 101l52 326h-147v49h154l30 187q24 148 142 148q47 0 82 -20l-9 -51q-29 19 -65 19z" />
    <glyph glyph-name="uni0218" unicode="&#x218;" horiz-adv-x="624" 
d="M311 670q184 0 250 -145l-49 -39q-26 69 -73.5 100t-126.5 31q-85 0 -134 -37t-49 -94q0 -54 44 -83.5t159 -49.5q129 -21 183 -63.5t54 -117.5q0 -82 -68.5 -132t-180.5 -50q-103 0 -174.5 41t-99.5 114l49 39q22 -68 80.5 -104.5t145.5 -36.5q85 0 137 33.5t52 92.5
q0 51 -43.5 81t-151.5 48q-135 23 -190.5 65t-55.5 117q0 80 66 135t176 55zM363 -73l-61 -161h-45l46 161h60z" />
    <glyph glyph-name="uni0219" unicode="&#x219;" horiz-adv-x="510" 
d="M255 -10q-75 0 -131.5 29.5t-79.5 86.5l47 31q16 -48 61 -72.5t109 -24.5q66 0 103 25t37 65q0 35 -32 56t-113 35q-106 19 -149 51.5t-43 92.5q0 61 53.5 103t139.5 42q157 0 193 -122l-48 -28q-30 100 -145 100q-58 0 -97 -26t-39 -63q0 -39 33 -61t117 -36
q102 -17 144.5 -49.5t42.5 -91.5q0 -65 -55 -104t-148 -39zM291 -73l-61 -161h-45l46 161h60z" />
    <glyph glyph-name="uni021A" unicode="&#x21a;" horiz-adv-x="582" 
d="M24 660h534v-53h-238v-607h-57v607h-239v53zM219 -234l46 161h60l-61 -161h-45z" />
    <glyph glyph-name="uni021B" unicode="&#x21b;" horiz-adv-x="387" 
d="M256 -10q-61 0 -96.5 33.5t-35.5 101.5v326h-100v49h100v124l57 15v-139h188v-49h-188v-317q0 -91 85 -91q51 0 86 37l21 -48q-45 -42 -117 -42zM159 -234l46 161h60l-61 -161h-45z" />
    <glyph glyph-name="circumflex" unicode="&#x2c6;" horiz-adv-x="518" 
d="M402 579h-53l-90 117l-90 -117h-53l110 158h66z" />
    <glyph glyph-name="caron" unicode="&#x2c7;" horiz-adv-x="518" 
d="M393 741l-110 -158h-66l-110 158h53l90 -117l90 117h53z" />
    <glyph glyph-name="uni02C9" unicode="&#x2c9;" horiz-adv-x="518" 
d="M422 647v-48h-326v48h326z" />
    <glyph glyph-name="breve" unicode="&#x2d8;" horiz-adv-x="518" 
d="M390 717q0 -63 -38 -101t-100 -38q-63 0 -100.5 38t-37.5 101h47q0 -41 25.5 -68t65.5 -27t65.5 27t25.5 68h47z" />
    <glyph glyph-name="dotaccent" unicode="&#x2d9;" horiz-adv-x="518" 
d="M259 689q21 0 33.5 -12.5t12.5 -33.5t-12.5 -33.5t-33.5 -12.5t-33.5 12.5t-12.5 33.5t12.5 33.5t33.5 12.5z" />
    <glyph glyph-name="ring" unicode="&#x2da;" horiz-adv-x="518" 
d="M250 784q49 0 79.5 -29t30.5 -75q0 -47 -30.5 -76t-79.5 -29t-79.5 29t-30.5 76q0 46 30.5 75t79.5 29zM250 748q-29 0 -49 -19.5t-20 -48.5t20 -48.5t49 -19.5q30 0 50 19.5t20 48.5t-20 48.5t-50 19.5z" />
    <glyph glyph-name="ogonek" unicode="&#x2db;" horiz-adv-x="518" 
d="M342 13q-74 -32 -105 -62.5t-31 -62.5q0 -27 18.5 -42t48.5 -15q39 0 61 15l12 -37q-29 -19 -79 -19q-48 0 -78 24.5t-30 66.5q0 49 34.5 82.5t111.5 65.5z" />
    <glyph glyph-name="tilde" unicode="&#x2dc;" horiz-adv-x="518" 
d="M423 705q-12 -116 -102 -116q-32 0 -56.5 17t-44 34t-40.5 17q-25 0 -37 -17t-19 -52h-46q12 116 103 116q32 0 56 -17t43.5 -34.5t40.5 -17.5q25 0 38 17.5t19 52.5h45z" />
    <glyph glyph-name="hungarumlaut" unicode="&#x2dd;" horiz-adv-x="518" 
d="M253 743l-94 -160h-47l79 160h62zM413 743l-94 -160h-47l79 160h62z" />
    <glyph glyph-name="uni0326" unicode="&#x326;" horiz-adv-x="0" 
d="M-219 -73l-61 -161h-45l46 161h60z" />
    <glyph glyph-name="pi" unicode="&#x3c0;" horiz-adv-x="715" 
d="M684 452h-158v-331q0 -41 27.5 -57t83.5 -16l-12 -48q-82 0 -119 25.5t-37 88.5v338h-243v-452h-57v452h-147v48h662v-48z" />
    <glyph glyph-name="uni1E9E" unicode="&#x1e9e;" horiz-adv-x="672" 
d="M428 361q96 0 149.5 -45.5t53.5 -132.5q0 -84 -55.5 -136t-143.5 -52q-58 0 -102.5 18t-61.5 45l26 42q40 -54 133 -54q64 0 104 38t40 99q0 129 -164 129h-82v49l198 246h-200q-70 0 -115.5 -46.5t-45.5 -118.5v-442h-57v443q0 97 60.5 157t157.5 60h268v-54l-205 -245
h42z" />
    <glyph glyph-name="endash" unicode="&#x2013;" horiz-adv-x="644" 
d="M567 291v-53h-490v53h490z" />
    <glyph glyph-name="emdash" unicode="&#x2014;" horiz-adv-x="987" 
d="M910 291v-53h-833v53h833z" />
    <glyph glyph-name="quoteleft" unicode="&#x2018;" horiz-adv-x="226" 
d="M113 474q-28 0 -44 21.5t-16 56.5q0 44 23 83t68 61l32 -28q-36 -12 -59 -42t-24 -61l3 -1q9 9 24 9q16 0 29.5 -13.5t13.5 -35.5q0 -20 -14.5 -35t-35.5 -15z" />
    <glyph glyph-name="quoteright" unicode="&#x2019;" horiz-adv-x="225" 
d="M117 696q28 0 44 -22t16 -57q0 -44 -23 -83t-68 -61l-32 28q36 13 59 43t24 60l-3 1q-8 -8 -24 -8q-17 0 -30 13t-13 35q0 21 14.5 36t35.5 15z" />
    <glyph glyph-name="quotesinglbase" unicode="&#x201a;" horiz-adv-x="233" 
d="M114 91q28 0 44 -21.5t16 -56.5q0 -45 -23 -84t-68 -61l-31 28q36 13 59 43t24 60l-4 2q-6 -9 -24 -9q-16 0 -29 13t-13 35q0 21 14 36t35 15z" />
    <glyph glyph-name="quotedblleft" unicode="&#x201c;" horiz-adv-x="381" 
d="M113 473q-28 0 -44 21.5t-16 56.5q0 45 23 84t68 61l32 -28q-36 -13 -59 -43t-24 -60l3 -2q8 9 24 9q17 0 30 -13t13 -35q0 -21 -14.5 -36t-35.5 -15zM269 473q-28 0 -44 21.5t-16 56.5q0 45 23 84t68 61l32 -28q-36 -13 -59 -43t-24 -60l3 -2q8 9 24 9q17 0 30 -13
t13 -35q0 -21 -14.5 -36t-35.5 -15z" />
    <glyph glyph-name="quotedblright" unicode="&#x201d;" horiz-adv-x="381" 
d="M117 696q28 0 44 -21.5t16 -56.5q0 -45 -23 -84t-68 -61l-32 28q36 13 59 43t24 60l-3 2q-8 -9 -24 -9q-17 0 -30 13t-13 35q0 21 14.5 36t35.5 15zM273 696q28 0 44 -21.5t16 -56.5q0 -45 -23 -84t-68 -61l-32 28q36 13 59 43t24 60l-3 2q-8 -9 -24 -9q-17 0 -30 13
t-13 35q0 21 14.5 36t35.5 15z" />
    <glyph glyph-name="quotedblbase" unicode="&#x201e;" horiz-adv-x="388" 
d="M114 91q28 0 44 -21.5t16 -56.5q0 -45 -23 -84t-68 -61l-31 28q36 13 59 43t24 60l-4 2q-6 -9 -24 -9q-16 0 -29 13t-13 35q0 21 14 36t35 15zM270 91q28 0 44 -21.5t16 -56.5q0 -45 -23 -84t-68 -61l-31 28q36 13 59 43.5t23 59.5l-3 2q-6 -9 -24 -9q-17 0 -30 13
t-13 35q0 21 14.5 36t35.5 15z" />
    <glyph glyph-name="dagger" unicode="&#x2020;" horiz-adv-x="512" 
d="M469 450v-49h-184v-501h-57v501h-185v49h185v210h57v-210h184z" />
    <glyph glyph-name="daggerdbl" unicode="&#x2021;" horiz-adv-x="512" 
d="M469 401h-184v-242h184v-49h-184v-210h-57v210h-185v49h185v242h-185v49h185v210h57v-210h184v-49z" />
    <glyph glyph-name="bullet" unicode="&#x2022;" horiz-adv-x="430" 
d="M215 437q44 0 73 -28t29 -71t-29 -71t-73 -28t-73 28t-29 71t29 71t73 28z" />
    <glyph glyph-name="ellipsis" unicode="&#x2026;" horiz-adv-x="742" 
d="M122 91q22 0 36 -13.5t14 -36.5q0 -22 -14 -35.5t-36 -13.5t-36 13.5t-14 35.5q0 23 14 36.5t36 13.5zM371 91q23 0 36.5 -13.5t13.5 -36.5q0 -22 -14 -35.5t-36 -13.5t-35.5 13.5t-13.5 35.5q0 23 13.5 36.5t35.5 13.5zM620 91q22 0 36 -13.5t14 -36.5q0 -22 -14 -35.5
t-36 -13.5t-35.5 13.5t-13.5 35.5q0 23 13.5 36.5t35.5 13.5z" />
    <glyph glyph-name="perthousand" unicode="&#x2030;" horiz-adv-x="1195" 
d="M191 666q72 0 112 -49.5t40 -127.5t-40 -126.5t-112 -48.5q-71 0 -111 48.5t-40 126.5t40 127.5t111 49.5zM167 0l430 660h55l-429 -660h-56zM191 621q-49 0 -74.5 -36t-25.5 -96q0 -59 25.5 -94.5t74.5 -35.5t75 35.5t26 94.5q0 60 -26 96t-75 36zM629 346q71 0 111 -49
t40 -127t-40 -127t-111 -49q-72 0 -112.5 49t-40.5 127t40.5 127t112.5 49zM1004 346q72 0 112 -49t40 -127t-40 -127t-112 -49q-71 0 -111.5 49t-40.5 127t40.5 127t111.5 49zM629 301q-49 0 -75 -35.5t-26 -95.5t26 -95.5t75 -35.5t74.5 35.5t25.5 95.5t-25.5 95.5
t-74.5 35.5zM1004 301q-49 0 -75 -35.5t-26 -95.5t26 -95.5t75 -35.5t75 35.5t26 95.5t-26 95.5t-75 35.5z" />
    <glyph glyph-name="guilsinglleft" unicode="&#x2039;" horiz-adv-x="296" 
d="M245 461l-134 -196l134 -196h-63l-133 196l133 196h63z" />
    <glyph glyph-name="guilsinglright" unicode="&#x203a;" horiz-adv-x="296" 
d="M51 461h64l132 -196l-132 -196h-64l134 196z" />
    <glyph glyph-name="fraction" unicode="&#x2044;" horiz-adv-x="231" 
d="M-149 0l472 660h58l-473 -660h-57z" />
    <glyph glyph-name="uni2070" unicode="&#x2070;" horiz-adv-x="382" 
d="M191 327q-76 0 -116 52t-40 152t40 152t116 52t116 -52t40 -152t-40 -152t-116 -52zM191 369q105 0 105 162t-105 162t-105 -162t105 -162z" />
    <glyph glyph-name="uni2074" unicode="&#x2074;" horiz-adv-x="348" 
d="M328 477v-37h-75v-107h-43v107h-199v28l186 262h56v-253h75zM61 477h149v146q0 43 2 64h-3q-21 -35 -32 -51z" />
    <glyph glyph-name="uni2075" unicode="&#x2075;" horiz-adv-x="349" 
d="M190 585q57 0 92.5 -35t35.5 -90q0 -62 -39 -97t-103 -35q-112 0 -146 89l45 25q16 -72 99 -72q42 0 68 25t26 64q0 42 -23.5 65t-67.5 23q-66 0 -93 -43h-40l18 226h237v-42h-197l-10 -112q-3 -22 -5 -28h1q30 37 102 37z" />
    <glyph glyph-name="uni2076" unicode="&#x2076;" horiz-adv-x="362" 
d="M191 327q-75 0 -115 52.5t-40 151.5t44.5 151.5t117.5 52.5q94 0 125 -79l-42 -21q-20 58 -84 58q-56 0 -85 -47t-29 -115q0 -18 1 -26h1q28 73 112 73q61 0 97 -34t36 -91q0 -58 -37 -92t-102 -34zM191 368q43 0 67 22.5t24 62.5q0 39 -24.5 62t-65.5 23t-67 -26
t-26 -59q0 -37 25.5 -61t66.5 -24z" />
    <glyph glyph-name="uni2077" unicode="&#x2077;" horiz-adv-x="306" 
d="M4 730h294v-42q-142 -149 -142 -355h-50q0 204 142 355h-244v42z" />
    <glyph glyph-name="uni2078" unicode="&#x2078;" horiz-adv-x="371" 
d="M185 734q62 0 98 -28t36 -76q0 -69 -72 -91v-1q41 -11 64.5 -36.5t23.5 -62.5q0 -52 -40.5 -82t-109.5 -30q-68 0 -109 30.5t-41 81.5q0 37 23.5 63t64.5 36v1q-34 11 -53 34.5t-19 56.5q0 48 36 76t98 28zM185 695q-39 0 -61.5 -18t-22.5 -50q0 -31 23 -50t61 -19t61 19
t23 50q0 32 -22.5 50t-61.5 18zM185 367q45 0 72 20.5t27 54.5q0 35 -27 56t-72 21q-44 0 -71.5 -21.5t-27.5 -55.5t27 -54.5t72 -20.5z" />
    <glyph glyph-name="uni2079" unicode="&#x2079;" horiz-adv-x="370" 
d="M178 735q74 0 115 -53.5t41 -151.5t-41.5 -150.5t-115.5 -52.5q-111 0 -140 86l47 20q15 -65 94 -65q56 0 82.5 45t26.5 108q0 19 -3 39h-1q-4 -32 -37.5 -54.5t-71.5 -22.5q-65 0 -102 34t-37 91q0 59 38.5 93t104.5 34zM179 693q-44 0 -69 -23t-25 -62t25 -62t68 -23
q40 0 66.5 25t26.5 60q0 37 -25.5 61t-66.5 24z" />
    <glyph glyph-name="uni207A" unicode="&#x207a;" horiz-adv-x="338" 
d="M308 549v-36h-118v-122h-42v122h-118v36h118v121h42v-121h118z" />
    <glyph glyph-name="uni207B" unicode="&#x207b;" horiz-adv-x="338" 
d="M32 513v36h274v-36h-274z" />
    <glyph glyph-name="uni207C" unicode="&#x207c;" horiz-adv-x="385" 
d="M57 571v39h271v-39h-271zM57 451v39h271v-39h-271z" />
    <glyph glyph-name="uni207D" unicode="&#x207d;" horiz-adv-x="213" 
d="M192 817l28 -25q-102 -105 -102 -261t102 -261l-28 -25q-122 111 -122 286t122 286z" />
    <glyph glyph-name="uni207E" unicode="&#x207e;" horiz-adv-x="213" 
d="M21 817q123 -111 123 -286t-123 -286l-28 25q103 106 103 261t-103 261z" />
    <glyph glyph-name="uni2080" unicode="&#x2080;" horiz-adv-x="382" 
d="M191 -195q-76 0 -116 52t-40 152t40 152t116 52t116 -52t40 -152t-40 -152t-116 -52zM191 -153q105 0 105 162t-105 162t-105 -162t105 -162z" />
    <glyph glyph-name="uni2081" unicode="&#x2081;" horiz-adv-x="225" 
d="M126 208h44v-397h-51v272q0 21 2 69q-47 -49 -111 -63v43q29 7 65 29t51 47z" />
    <glyph glyph-name="uni2082" unicode="&#x2082;" horiz-adv-x="352" 
d="M38 -189v36q71 55 100 78q65 52 92.5 88t27.5 74q0 37 -23 60.5t-64 23.5q-43 0 -69 -26.5t-28 -73.5l-45 15q4 59 42 93t101 34q65 0 102 -35t37 -89q0 -84 -137 -184q-46 -36 -70 -53v-1q5 0 25 1t26 1h167v-42h-284z" />
    <glyph glyph-name="uni2083" unicode="&#x2083;" horiz-adv-x="342" 
d="M167 213q61 0 95.5 -29.5t34.5 -77.5q0 -40 -22.5 -64.5t-54.5 -30.5v-1q35 -2 60.5 -27t25.5 -66q0 -50 -39.5 -81t-101.5 -31q-115 0 -145 94l48 22q14 -74 97 -74q40 0 64.5 20.5t24.5 55.5q0 68 -87 68h-24v37h22q38 0 58.5 19.5t20.5 51.5q0 34 -20.5 53t-58.5 19
q-72 0 -86 -65l-47 17q12 43 48 66.5t87 23.5z" />
    <glyph glyph-name="uni2084" unicode="&#x2084;" horiz-adv-x="348" 
d="M328 -45v-37h-75v-107h-43v107h-199v28l186 262h56v-253h75zM61 -45h149v146q0 43 2 64h-3q-21 -35 -32 -51z" />
    <glyph glyph-name="uni2085" unicode="&#x2085;" horiz-adv-x="349" 
d="M190 63q57 0 92.5 -35t35.5 -90q0 -62 -39 -97t-103 -35q-112 0 -146 89l45 25q16 -72 99 -72q42 0 68 25t26 64q0 42 -23.5 65t-67.5 23q-66 0 -93 -43h-40l18 226h237v-42h-197l-10 -112q-3 -22 -5 -28h1q30 37 102 37z" />
    <glyph glyph-name="uni2086" unicode="&#x2086;" horiz-adv-x="362" 
d="M191 -195q-75 0 -115 52.5t-40 151.5t44.5 151.5t117.5 52.5q94 0 125 -79l-42 -21q-20 58 -84 58q-56 0 -85 -47t-29 -115q0 -18 1 -26h1q28 73 112 73q61 0 97 -34t36 -91q0 -58 -37 -92t-102 -34zM191 -154q43 0 67 22.5t24 62.5q0 39 -24.5 62t-65.5 23t-67 -26
t-26 -59q0 -37 25.5 -61t66.5 -24z" />
    <glyph glyph-name="uni2087" unicode="&#x2087;" horiz-adv-x="306" 
d="M4 208h294v-42q-142 -149 -142 -355h-50q0 204 142 355h-244v42z" />
    <glyph glyph-name="uni2088" unicode="&#x2088;" horiz-adv-x="371" 
d="M185 212q62 0 98 -28t36 -76q0 -69 -72 -91v-1q41 -11 64.5 -36.5t23.5 -62.5q0 -52 -40.5 -82t-109.5 -30q-68 0 -109 30.5t-41 81.5q0 37 23.5 63t64.5 36v1q-34 11 -53 34.5t-19 56.5q0 48 36 76t98 28zM185 173q-39 0 -61.5 -18t-22.5 -50q0 -31 23 -50t61 -19t61 19
t23 50q0 32 -22.5 50t-61.5 18zM185 -155q45 0 72 20.5t27 54.5q0 35 -27 56t-72 21q-44 0 -71.5 -21.5t-27.5 -55.5t27 -54.5t72 -20.5z" />
    <glyph glyph-name="uni2089" unicode="&#x2089;" horiz-adv-x="370" 
d="M178 213q74 0 115 -53.5t41 -151.5t-41.5 -150.5t-115.5 -52.5q-111 0 -140 86l47 20q15 -65 94 -65q56 0 82.5 45t26.5 108q0 19 -3 39h-1q-4 -32 -37.5 -54.5t-71.5 -22.5q-65 0 -102 34t-37 91q0 59 38.5 93t104.5 34zM179 171q-44 0 -69 -23t-25 -62t25 -62t68 -23
q40 0 66.5 25t26.5 60q0 37 -25.5 61t-66.5 24z" />
    <glyph glyph-name="uni208A" unicode="&#x208a;" horiz-adv-x="338" 
d="M308 27v-36h-118v-122h-42v122h-118v36h118v121h42v-121h118z" />
    <glyph glyph-name="uni208B" unicode="&#x208b;" horiz-adv-x="338" 
d="M32 -9v36h274v-36h-274z" />
    <glyph glyph-name="uni208C" unicode="&#x208c;" horiz-adv-x="385" 
d="M57 49v39h271v-39h-271zM57 -71v39h271v-39h-271z" />
    <glyph glyph-name="uni208D" unicode="&#x208d;" horiz-adv-x="213" 
d="M192 295l28 -25q-102 -105 -102 -261t102 -261l-28 -25q-122 111 -122 286t122 286z" />
    <glyph glyph-name="uni208E" unicode="&#x208e;" horiz-adv-x="213" 
d="M21 295q122 -111 122 -286t-122 -286l-28 25q102 105 102 261t-102 261z" />
    <glyph glyph-name="Euro" unicode="&#x20ac;" horiz-adv-x="681" 
d="M586 189l51 -20q-25 -85 -89 -132t-145 -47q-105 0 -173 62t-89 174h-89v47h82q-2 36 -2 57q0 32 2 47h-82v47h87q20 116 88 181t174 65q83 0 142 -38.5t84 -111.5l-51 -25q-19 60 -63.5 92.5t-107.5 32.5q-80 0 -134.5 -51.5t-72.5 -144.5h258l-17 -47h-248
q-2 -30 -2 -47q0 -30 3 -57h224l-17 -47h-200q20 -88 73 -137t131 -49q63 0 113.5 39t69.5 110z" />
    <glyph glyph-name="uni20BA" unicode="&#x20ba;" horiz-adv-x="622" 
d="M524 264h55q-3 -130 -66.5 -197t-182.5 -67h-149v269l-125 -36v42l125 36v101l-125 -37v43l125 36v206h54v-190l216 63v-42l-216 -64v-100l216 63v-42l-216 -64v-235h86q100 0 151.5 54.5t51.5 160.5z" />
    <glyph glyph-name="uni20BD" unicode="&#x20bd;" horiz-adv-x="624" 
d="M364 272h-169v-81h198v-45h-198v-146h-54v146h-97v45h97v81h-97v50h97v338h223q102 0 162.5 -52.5t60.5 -142.5q0 -89 -60.5 -141t-162.5 -52zM195 608v-286h161q171 0 171 143t-171 143h-161z" />
    <glyph glyph-name="uni2113" unicode="&#x2113;" horiz-adv-x="373" 
d="M250 39q37 0 79 15l-4 -49q-31 -15 -79 -15q-66 0 -96.5 30t-30.5 97v109q-35 -21 -75 -36v49q39 14 75 38v268q0 125 99 125q49 0 73 -28.5t24 -91.5q0 -77 -38 -154.5t-107 -134.5v-138q0 -39 20.5 -61.5t59.5 -22.5zM170 548v-230q97 97 97 235q0 72 -48 72
q-49 0 -49 -77z" />
    <glyph glyph-name="trademark" unicode="&#x2122;" horiz-adv-x="808" 
d="M317 660v-40h-110v-290h-51v290h-110v40h271zM660 660h61v-330h-50v198l6 68h-1l-9 -26l-98 -240h-38l-98 240l-9 26h-1l6 -68v-198h-50v330h62l92 -225l17 -46h1l16 46z" />
    <glyph glyph-name="uni2126" unicode="&#x2126;" horiz-adv-x="756" 
d="M525 49h164v-49h-250v49q86 25 136 98.5t50 186.5q0 131 -67 207t-180 76t-180 -76t-67 -207q0 -113 50 -186.5t136 -98.5v-49h-250v49h165q-76 41 -117 114t-41 171q0 154 82.5 245t221.5 91t221.5 -91t82.5 -245q0 -198 -157 -285z" />
    <glyph glyph-name="estimated" unicode="&#x212e;" horiz-adv-x="796" 
d="M404 670q160 0 249.5 -94t89.5 -269h-557v-182q85 -91 238 -91q185 0 287 160v-63q-88 -141 -287 -141q-168 0 -264 92t-96 248q0 154 93 247t247 93zM403 626q-137 0 -217 -88v-184h435v180q-80 92 -218 92z" />
    <glyph glyph-name="arrowleft" unicode="&#x2190;" horiz-adv-x="750" 
d="M697 303h-419q-88 0 -152 6q124 -79 254 -266l-46 -37q-70 108 -140.5 182t-163.5 141v4q93 67 163.5 141.5t140.5 181.5l46 -37q-130 -187 -254 -266q75 7 152 7h419v-57z" />
    <glyph glyph-name="arrowup" unicode="&#x2191;" horiz-adv-x="750" 
d="M376 667q68 -93 141.5 -163.5t181.5 -139.5l-37 -46q-184 127 -265 252q6 -84 6 -150v-420h-57v420q0 80 5 150q-81 -125 -265 -252l-37 46q107 69 181.5 139.5t141.5 163.5h4z" />
    <glyph glyph-name="arrowright" unicode="&#x2192;" horiz-adv-x="750" 
d="M416 656q70 -107 140.5 -181.5t163.5 -141.5v-4q-93 -67 -163.5 -141t-140.5 -182l-46 37q130 187 254 266q-65 -6 -152 -6h-419v57h419q77 0 152 -7q-124 79 -254 266z" />
    <glyph glyph-name="arrowdown" unicode="&#x2193;" horiz-adv-x="750" 
d="M664 342l37 -46q-107 -69 -181.5 -139.5t-141.5 -163.5h-4q-68 93 -141.5 163.5t-181.5 139.5l37 46q187 -130 266 -253q-6 64 -6 151v420h57v-420q0 -76 -7 -151q79 123 266 253z" />
    <glyph glyph-name="arrowboth" unicode="&#x2194;" horiz-adv-x="1018" 
d="M685 674q69 -108 139.5 -181.5t163.5 -141.5v-4q-93 -67 -163.5 -141.5t-139.5 -181.5l-51 31q133 191 256 271q-58 -5 -124 -5h-514q-66 0 -124 5q123 -80 256 -271l-51 -31q-69 107 -139.5 181.5t-163.5 141.5v4q94 67 164 141t139 182l51 -31q-131 -188 -256 -271
q72 6 124 6h514q52 0 124 -6q-125 83 -256 271z" />
    <glyph glyph-name="arrowupdn" unicode="&#x2195;" horiz-adv-x="750" 
d="M397 -51q81 124 271 256l31 -51q-108 -69 -182 -139t-141 -164h-4q-67 93 -141.5 163.5t-181.5 139.5l31 51q190 -132 271 -256q-5 60 -5 124v514q0 64 5 124q-81 -124 -271 -256l-31 51q107 69 181.5 139.5t141.5 163.5h4q67 -94 141 -164t182 -139l-31 -51
q-190 132 -271 256q6 -72 6 -124v-514q0 -52 -6 -124z" />
    <glyph glyph-name="uni2196" unicode="&#x2196;" horiz-adv-x="750" 
d="M335 412l281 -282l-40 -40l-281 282q-52 51 -110 118q36 -171 11 -384l-56 5q28 215 -10 461l5 4q241 -38 460 -9l5 -57q-211 -25 -382 11q66 -58 117 -109z" />
    <glyph glyph-name="uni2197" unicode="&#x2197;" horiz-adv-x="750" 
d="M620 572q-38 -246 -10 -461l-56 -5q-26 208 11 383q-64 -72 -110 -117l-281 -282l-40 40l281 282q57 57 118 109q-172 -36 -383 -11l5 57q219 -29 460 9z" />
    <glyph glyph-name="uni2198" unicode="&#x2198;" horiz-adv-x="750" 
d="M598 568q-28 -215 10 -461l-5 -4q-246 39 -460 9l-5 57q211 25 382 -11q-66 58 -117 109l-281 282l40 40l281 -282q52 -51 110 -118q-36 171 -11 384z" />
    <glyph glyph-name="uni2199" unicode="&#x2199;" horiz-adv-x="750" 
d="M229 158q170 36 383 11l-6 -57q-214 30 -460 -9l-4 5q38 241 9 460l57 5q25 -212 -11 -383q58 67 109 118l282 281l40 -40l-282 -282q-54 -55 -117 -109z" />
    <glyph glyph-name="partialdiff" unicode="&#x2202;" horiz-adv-x="596" 
d="M268 670q134 0 196.5 -86t62.5 -254q0 -165 -64 -252.5t-185 -87.5q-100 0 -161 61.5t-61 158.5q0 96 61 157.5t157 61.5q66 0 118.5 -28t81.5 -79v8q0 151 -51.5 221t-155.5 70q-83 0 -139 -63l-31 42q70 70 171 70zM278 41q162 0 190 204q-20 64 -70 99t-125 35
q-74 0 -117 -46t-43 -122q0 -78 44 -124t121 -46z" />
    <glyph glyph-name="uni2206" unicode="&#x2206;" horiz-adv-x="665" 
d="M368 660l262 -612v-48h-594v48l262 612h70zM332 617l-243 -569h487z" />
    <glyph glyph-name="product" unicode="&#x220f;" horiz-adv-x="673" 
d="M586 660v-788h-57v735h-386v-735h-57v788h500z" />
    <glyph glyph-name="summation" unicode="&#x2211;" horiz-adv-x="613" 
d="M557 660v-53h-435l332 -331v-10l-333 -341h436v-53h-509v53l334 346l-334 336v53h509z" />
    <glyph glyph-name="minus" unicode="&#x2212;" 
d="M539 343v-53h-474v53h474z" />
    <glyph glyph-name="uni2215" unicode="&#x2215;" horiz-adv-x="231" 
d="M-149 0l472 660h58l-473 -660h-57z" />
    <glyph glyph-name="uni2219" unicode="&#x2219;" horiz-adv-x="214" 
d="M107 394q22 0 35.5 -13.5t13.5 -36.5q0 -22 -13.5 -35.5t-35.5 -13.5t-36 13.5t-14 35.5t13.5 36t36.5 14z" />
    <glyph glyph-name="radical" unicode="&#x221a;" horiz-adv-x="645" 
d="M586 818h57l-322 -818h-57l-141 348h-103v53h136l116 -282l21 -66l22 67z" />
    <glyph glyph-name="infinity" unicode="&#x221e;" horiz-adv-x="879" 
d="M654 498q67 0 112.5 -53t45.5 -144t-45.5 -144t-112.5 -53q-55 0 -96 30t-122 126q-88 -105 -122.5 -130.5t-88.5 -25.5q-67 0 -112.5 53t-45.5 144t45.5 144t112.5 53q56 0 97.5 -30t119.5 -125q61 73 96 105.5t57.5 41t58.5 8.5zM654 160q42 -1 72 39.5t30 107.5
t-30 107.5t-72 40.5q-38 0 -68.5 -25t-112.5 -125q72 -87 107.5 -115.5t73.5 -29.5zM225 147q39 0 66 23t113 127q-80 94 -110.5 119.5t-68.5 25.5q-42 0 -72 -40.5t-30 -107.5t30 -107t72 -40z" />
    <glyph glyph-name="integral" unicode="&#x222b;" horiz-adv-x="433" 
d="M331 758q47 0 82 -21l-10 -51q-28 20 -68 20t-64.5 -24t-24.5 -73v-593q0 -68 -37 -106t-104 -38q-47 0 -84 23l10 50q29 -21 68 -21q90 0 90 97v593q0 67 38 105.5t104 38.5z" />
    <glyph glyph-name="approxequal" unicode="&#x2248;" 
d="M193 477q41 0 114 -34.5t108 -34.5q63 0 119 55v-53q-54 -53 -120 -53q-39 0 -111.5 34.5t-109.5 34.5q-67 0 -123 -55v53q31 29 58 41t65 12zM193 282q41 0 114 -34.5t108 -34.5q63 0 119 55v-53q-54 -53 -120 -53q-39 0 -111.5 34t-109.5 34q-68 0 -123 -54v53
q31 29 58 41t65 12z" />
    <glyph glyph-name="notequal" unicode="&#x2260;" 
d="M532 384h-162l-77 -154h239v-50h-263l-55 -112h-57l55 112h-140v50h164l77 154h-241v50h265l55 110h56l-54 -110h138v-50z" />
    <glyph glyph-name="lessequal" unicode="&#x2264;" 
d="M541 628v-61l-426 -191l426 -194v-61l-468 221v70zM73 0v53h468v-53h-468z" />
    <glyph glyph-name="greaterequal" unicode="&#x2265;" 
d="M63 628l468 -216v-70l-468 -221v61l426 195l-426 190v61zM63 0v53h468v-53h-468z" />
    <glyph glyph-name="uni25AA" unicode="&#x25aa;" horiz-adv-x="600" 
d="M66 484h468v-468h-468v468z" />
    <glyph glyph-name="uni25AB" unicode="&#x25ab;" horiz-adv-x="600" 
d="M66 16v468h468v-468h-468zM123 66h354v368h-354v-368z" />
    <glyph glyph-name="uni25C6" unicode="&#x25c6;" horiz-adv-x="600" 
d="M300 -6l-262 262l262 262l262 -262z" />
    <glyph glyph-name="uni25C7" unicode="&#x25c7;" horiz-adv-x="600" 
d="M300 -6l-262 262l262 262l262 -262zM300 77l180 179l-180 180l-180 -180z" />
    <glyph glyph-name="lozenge" unicode="&#x25ca;" horiz-adv-x="546" 
d="M308 660l194 -330l-194 -330h-70l-193 330l193 330h70zM273 41l164 289l-164 289l-163 -289z" />
    <glyph glyph-name="circle" unicode="&#x25cb;" horiz-adv-x="600" 
d="M300 6q-104 0 -173.5 70t-69.5 174t69.5 174t173.5 70t173.5 -70t69.5 -174t-69.5 -174t-173.5 -70zM300 59q80 0 133 54.5t53 136.5t-53 136.5t-133 54.5t-133 -54.5t-53 -136.5t53 -136.5t133 -54.5z" />
    <glyph glyph-name="uni25CF" unicode="&#x25cf;" horiz-adv-x="600" 
d="M300 6q-104 0 -174 70t-70 174t70 174t174 70t174 -70t70 -174t-70 -174t-174 -70z" />
    <glyph glyph-name="uni275B" unicode="&#x275b;" horiz-adv-x="710" 
d="M578 663l34 -48q-115 5 -200.5 -11.5t-138.5 -51.5t-83.5 -72t-53.5 -89l7 -5q42 44 95.5 64.5t133.5 20.5q128 0 203.5 -62.5t75.5 -176.5q0 -117 -74 -179.5t-210 -62.5q-306 0 -306 287q0 67 15.5 124t53 108t95 85.5t148 53.5t205.5 15z" />
    <glyph glyph-name="uni275C" unicode="&#x275c;" horiz-adv-x="710" 
d="M132 -133l-35 48q93 -4 167.5 7t123 31t87 51.5t60 63t39.5 71.5l-8 5q-42 -44 -95.5 -64.5t-132.5 -20.5q-128 0 -204 62.5t-76 176.5q0 117 74.5 179.5t210.5 62.5q305 0 305 -287q0 -67 -15.5 -124t-52.5 -108t-95 -85.5t-148 -53.5t-205 -15z" />
    <glyph glyph-name="uni275D" unicode="&#x275d;" horiz-adv-x="1243" 
d="M905 471q128 0 203.5 -62.5t75.5 -176.5q0 -117 -74 -179.5t-210 -62.5q-203 0 -272 130q-62 -130 -261 -130q-306 0 -306 287q0 67 15.5 124t53 108t95 85.5t148 53.5t205.5 15l34 -48q-115 5 -200.5 -11.5t-138.5 -51.5t-83.5 -72t-53.5 -89l7 -5q42 44 95.5 64.5
t133.5 20.5q160 0 233 -93q14 66 48 117.5t93 91.5t151.5 60t213.5 16l35 -48q-93 4 -167.5 -7t-123 -31t-87 -51.5t-60 -63t-39.5 -71.5l8 -5q42 44 95.5 64.5t132.5 20.5z" />
    <glyph glyph-name="uni275E" unicode="&#x275e;" horiz-adv-x="1243" 
d="M876 540q306 0 306 -287q0 -67 -15.5 -124t-53 -108t-95 -85.5t-148 -53.5t-205.5 -15l-34 48q115 -5 200.5 11.5t138.5 51.5t83.5 72t53.5 89l-7 5q-42 -44 -95.5 -64.5t-133.5 -20.5q-160 0 -233 93q-14 -66 -48 -117.5t-93 -91.5t-151.5 -60t-213.5 -16l-35 48
q93 -4 167.5 7t123 31t87 51.5t60 63t39.5 71.5l-8 5q-42 -44 -95.5 -64.5t-132.5 -20.5q-128 0 -203.5 62.5t-75.5 176.5q0 117 74 179.5t210 62.5q203 0 272 -130q60 130 261 130z" />
    <glyph glyph-name="uni2761" unicode="&#x2761;" horiz-adv-x="606" 
d="M519 660v-624q0 -251 -265 -251q-90 0 -138 50.5t-26 129.5l41 9q-17 -64 14 -105t86 -41q105 0 105 131v255h-53q-111 0 -178.5 61.5t-67.5 161.5t71 161.5t187 61.5h224zM283 262h53v350h-53q-89 0 -140.5 -47.5t-51.5 -127.5q0 -81 51 -128t141 -47zM468 612h-86v-671
q0 -34 -14.5 -66t-38.5 -45l2 -3q137 41 137 201v584z" />
    <glyph glyph-name="uni2780" unicode="&#x2780;" horiz-adv-x="910" 
d="M455 700q165 0 267.5 -103t102.5 -267t-102.5 -267t-267.5 -103t-267.5 103t-102.5 267t102.5 267t267.5 103zM455 3q143 0 232.5 91t89.5 236t-89.5 236t-232.5 91t-232.5 -91t-89.5 -236t89.5 -236t232.5 -91zM339 457q29 7 65 29t51 47h44v-397h-51v272q0 21 2 69
q-47 -49 -111 -63v43z" />
    <glyph glyph-name="uni2781" unicode="&#x2781;" horiz-adv-x="910" 
d="M455 -40q-165 0 -267.5 103t-102.5 267t102.5 267t267.5 103t267.5 -103t102.5 -267t-102.5 -267t-267.5 -103zM455 3q143 0 232.5 91t89.5 236t-89.5 236t-232.5 91t-232.5 -91t-89.5 -236t89.5 -236t232.5 -91zM318 146v36q71 55 100 78q65 52 92.5 88t27.5 74t-23 61
t-64 23q-43 0 -69 -26.5t-28 -73.5l-45 15q4 59 42 93t101 34q65 0 102 -35t37 -89q0 -84 -137 -184q-46 -36 -70 -53v-1q5 0 25 1t26 1h167v-42h-284z" />
    <glyph glyph-name="uni2782" unicode="&#x2782;" horiz-adv-x="910" 
d="M455 -40q-165 0 -267.5 103t-102.5 267t102.5 267t267.5 103t267.5 -103t102.5 -267t-102.5 -267t-267.5 -103zM455 3q143 0 232.5 91t89.5 236t-89.5 236t-232.5 91t-232.5 -91t-89.5 -236t89.5 -236t232.5 -91zM460 535q61 0 95.5 -29.5t34.5 -77.5q0 -40 -22.5 -64.5
t-54.5 -30.5v-1q35 -2 60.5 -27t25.5 -66q0 -50 -39.5 -81t-101.5 -31q-115 0 -145 94l48 22q14 -74 97 -74q40 0 64.5 20.5t24.5 55.5q0 68 -87 68h-24v37h22q38 0 58.5 19.5t20.5 51.5q0 34 -20.5 53t-58.5 19q-72 0 -86 -65l-47 17q12 43 48 66.5t87 23.5z" />
    <glyph glyph-name="uni2783" unicode="&#x2783;" horiz-adv-x="910" 
d="M455 -40q-165 0 -267.5 103t-102.5 267t102.5 267t267.5 103t267.5 -103t102.5 -267t-102.5 -267t-267.5 -103zM455 3q143 0 232.5 91t89.5 236t-89.5 236t-232.5 91t-232.5 -91t-89.5 -236t89.5 -236t232.5 -91zM590 280v-37h-75v-107h-43v107h-199v28l186 262h56v-253
h75zM323 280h149v146q0 43 2 64h-3q-21 -35 -32 -51z" />
    <glyph glyph-name="uni2784" unicode="&#x2784;" horiz-adv-x="910" 
d="M455 -40q-165 0 -267.5 103t-102.5 267t102.5 267t267.5 103t267.5 -103t102.5 -267t-102.5 -267t-267.5 -103zM455 3q143 0 232.5 91t89.5 236t-89.5 236t-232.5 91t-232.5 -91t-89.5 -236t89.5 -236t232.5 -91zM469 380q57 0 92.5 -35t35.5 -90q0 -62 -39 -97t-103 -35
q-112 0 -146 89l45 25q16 -72 99 -72q42 0 68 25t26 64q0 42 -23.5 65t-67.5 23q-66 0 -93 -43h-40l18 226h237v-42h-197l-10 -112q-3 -22 -5 -28h1q30 37 102 37z" />
    <glyph glyph-name="uni2785" unicode="&#x2785;" horiz-adv-x="910" 
d="M455 -40q-165 0 -267.5 103t-102.5 267t102.5 267t267.5 103t267.5 -103t102.5 -267t-102.5 -267t-267.5 -103zM455 3q143 0 232.5 91t89.5 236t-89.5 236t-232.5 91t-232.5 -91t-89.5 -236t89.5 -236t232.5 -91zM453 127q-75 0 -115 52.5t-40 151.5t44.5 151.5
t117.5 52.5q94 0 125 -79l-42 -21q-20 58 -84 58q-56 0 -85 -47t-29 -115q0 -18 1 -26h1q28 73 112 73q61 0 97 -34t36 -91q0 -58 -37 -92t-102 -34zM453 168q43 0 67 22.5t24 62.5q0 39 -24.5 62t-65.5 23t-67 -26t-26 -59q0 -37 25.5 -61t66.5 -24z" />
    <glyph glyph-name="uni2786" unicode="&#x2786;" horiz-adv-x="910" 
d="M455 700q165 0 267.5 -103t102.5 -267t-102.5 -267t-267.5 -103t-267.5 103t-102.5 267t102.5 267t267.5 103zM455 3q143 0 232.5 91t89.5 236t-89.5 236t-232.5 91t-232.5 -91t-89.5 -236t89.5 -236t232.5 -91zM314 475v42h294v-42q-142 -149 -142 -355h-50
q0 204 142 355h-244z" />
    <glyph glyph-name="uni2787" unicode="&#x2787;" horiz-adv-x="910" 
d="M455 -40q-165 0 -267.5 103t-102.5 267t102.5 267t267.5 103t267.5 -103t102.5 -267t-102.5 -267t-267.5 -103zM455 3q143 0 232.5 91t89.5 236t-89.5 236t-232.5 91t-232.5 -91t-89.5 -236t89.5 -236t232.5 -91zM455 534q62 0 98 -28t36 -76q0 -69 -72 -91v-1
q41 -11 64.5 -36.5t23.5 -62.5q0 -52 -40.5 -82t-109.5 -30q-68 0 -109 30.5t-41 81.5q0 37 23.5 63t64.5 36v1q-34 11 -53 34.5t-19 56.5q0 48 36 76t98 28zM455 495q-39 0 -61.5 -18t-22.5 -50q0 -31 23 -50t61 -19t61 19t23 50q0 32 -22.5 50t-61.5 18zM455 167
q45 0 72 20.5t27 54.5q0 35 -27 56t-72 21q-44 0 -71.5 -21.5t-27.5 -55.5t27 -54.5t72 -20.5z" />
    <glyph glyph-name="uni2788" unicode="&#x2788;" horiz-adv-x="910" 
d="M455 -40q-165 0 -267.5 103t-102.5 267t102.5 267t267.5 103t267.5 -103t102.5 -267t-102.5 -267t-267.5 -103zM455 3q143 0 232.5 91t89.5 236t-89.5 236t-232.5 91t-232.5 -91t-89.5 -236t89.5 -236t232.5 -91zM456 535q74 0 115 -53.5t41 -151.5t-41.5 -150.5
t-115.5 -52.5q-111 0 -140 86l47 20q15 -65 94 -65q56 0 82.5 45t26.5 108q0 19 -3 39h-1q-4 -32 -37.5 -54.5t-71.5 -22.5q-65 0 -102 34t-37 91q0 59 38.5 93t104.5 34zM457 493q-44 0 -69 -23t-25 -62t25 -62t68 -23q40 0 66.5 25t26.5 60q0 37 -25.5 61t-66.5 24z" />
    <glyph glyph-name="uniF8FF" unicode="&#xf8ff;" horiz-adv-x="1130" 
d="M1030 326l51 -43l-63 -30l41 -51l-69 -12l28 -61l-61 -4q-14 -9 -28 -15v-81q0 -29 -29 -29h-46q-29 0 -29 23q0 25 29 25h11v39q-28 -7 -66 -10v-48q0 -29 -29 -29h-46q-29 0 -29 23q0 25 29 25h11v27h-226v-46q0 -29 -29 -29h-46q-30 0 -30 23q0 25 30 25h12v27h-88
v-46q0 -29 -30 -29h-44q-31 0 -31 23q0 25 31 25h10v37q-67 3 -129.5 25t-101.5 56h-5q-16 0 -28.5 12t-12.5 29t12.5 29t28.5 12q5 0 11 -2q38 29 66.5 79t28.5 93l4 83l56 -28v69l56 -30l-4 62l67 -26l5 66l65 -33l8 65l67 -36l17 65l57 -50l30 64l49 -50l49 54l37 -59
l50 55l26 -64l63 44l7 -69l70 31l-11 -69l76 16l-21 -64l73 3l-40 -56l66 -23l-54 -38l57 -39zM395 247q24 8 37 27.5t12 45.5q-1 33 -25.5 54t-58.5 19q-19 -1 -37 -17l11 -19q12 11 27 12q25 1 40 -12.5t16 -38.5q3 -42 -34 -50zM238 232q30 0 47.5 17t17.5 47h-24
q0 -37 -41 -37t-41 37h-24q0 -30 17.5 -47t47.5 -17z" />
    <glyph glyph-name="E.swsh.001" horiz-adv-x="725" 
d="M602 315q50 -5 81.5 -46t31.5 -107q0 -79 -51.5 -120.5t-144.5 -41.5h-414v660h486v-53h-429v-251h243v-53h-243v-250h345q77 0 114 26t37 84q0 49 -21 76t-59 31z" />
    <glyph glyph-name="Eacute.swsh.001" horiz-adv-x="725" 
d="M465 891l-83 -148h-47l64 148h66zM602 315q50 -5 81.5 -46t31.5 -107q0 -79 -51.5 -120.5t-144.5 -41.5h-414v660h486v-53h-429v-251h243v-53h-243v-250h345q77 0 114 26t37 84q0 49 -21 76t-59 31z" />
    <glyph glyph-name="Ecaron.swsh.001" horiz-adv-x="725" 
d="M394 740h-64l-113 158h53l92 -120l92 120h53zM602 315q50 -5 81.5 -46t31.5 -107q0 -79 -51.5 -120.5t-144.5 -41.5h-414v660h486v-53h-429v-251h243v-53h-243v-250h345q77 0 114 26t37 84q0 49 -21 76t-59 31z" />
    <glyph glyph-name="Ecircumflex.swsh.001" horiz-adv-x="725" 
d="M362 858l-92 -120h-53l113 158h64l113 -158h-53zM602 315q50 -5 81.5 -46t31.5 -107q0 -79 -51.5 -120.5t-144.5 -41.5h-414v660h486v-53h-429v-251h243v-53h-243v-250h345q77 0 114 26t37 84q0 49 -21 76t-59 31z" />
    <glyph glyph-name="Edieresis.swsh.001" horiz-adv-x="725" 
d="M267 748q-20 0 -32.5 12t-12.5 32t12.5 32.5t32.5 12.5t32 -12.5t12 -32.5t-12.5 -32t-31.5 -12zM457 748q-19 0 -31.5 12t-12.5 32t12 32.5t32 12.5t32.5 -12.5t12.5 -32.5t-12.5 -32t-32.5 -12zM602 315q50 -5 81.5 -46t31.5 -107q0 -79 -51.5 -120.5t-144.5 -41.5
h-414v660h486v-53h-429v-251h243v-53h-243v-250h345q77 0 114 26t37 84q0 49 -21 76t-59 31z" />
    <glyph glyph-name="Edotaccent.swsh.001" horiz-adv-x="725" 
d="M362 757q-21 0 -33.5 12.5t-12.5 33.5t12.5 33.5t33.5 12.5t33.5 -12.5t12.5 -33.5t-12.5 -33.5t-33.5 -12.5zM602 315q50 -5 81.5 -46t31.5 -107q0 -79 -51.5 -120.5t-144.5 -41.5h-414v660h486v-53h-429v-251h243v-53h-243v-250h345q77 0 114 26t37 84q0 49 -21 76
t-59 31z" />
    <glyph glyph-name="Egrave.swsh.001" horiz-adv-x="725" 
d="M383 743h-47l-83 148h66zM602 315q50 -5 81.5 -46t31.5 -107q0 -79 -51.5 -120.5t-144.5 -41.5h-414v660h486v-53h-429v-251h243v-53h-243v-250h345q77 0 114 26t37 84q0 49 -21 76t-59 31z" />
    <glyph glyph-name="Emacron.swsh.001" horiz-adv-x="725" 
d="M525 807v-48h-326v48h326zM602 315q50 -5 81.5 -46t31.5 -107q0 -79 -51.5 -120.5t-144.5 -41.5h-414v660h486v-53h-429v-251h243v-53h-243v-250h345q77 0 114 26t37 84q0 49 -21 76t-59 31z" />
    <glyph glyph-name="M.swsh.001" horiz-adv-x="1047" 
d="M856 660h86v-660h-54v474l6 132h-1l-236 -606h-50l-236 606h-1l6 -132v-474h-54v613h-103q-152 0 -152 -125q0 -49 30.5 -81.5t82.5 -42.5l-24 -45q-64 11 -105 56t-41 114q0 81 52 126t144 45h202l187 -477l36 -116h2l37 115z" />
    <glyph glyph-name="R.swsh.001" horiz-adv-x="677" 
d="M547 49q21 -30 59 -60.5t71 -41.5l-30 -39q-62 28 -93.5 55.5t-61.5 69.5l-172 250h-158v-283h-57v660h246q99 0 158.5 -50.5t59.5 -137.5q0 -80 -50.5 -129.5t-136.5 -57.5zM162 607v-271h188q78 0 118.5 35t40.5 101t-40.5 100.5t-118.5 34.5h-188z" />
    <glyph glyph-name="Racute.swsh.001" horiz-adv-x="677" 
d="M414 891l-83 -148h-47l64 148h66zM547 49q21 -30 59 -60.5t71 -41.5l-30 -39q-62 28 -93.5 55.5t-61.5 69.5l-172 250h-158v-283h-57v660h246q99 0 158.5 -50.5t59.5 -137.5q0 -80 -50.5 -129.5t-136.5 -57.5zM162 607v-271h188q78 0 118.5 35t40.5 101t-40.5 100.5
t-118.5 34.5h-188z" />
    <glyph glyph-name="Rcaron.swsh.001" horiz-adv-x="677" 
d="M344 740h-64l-113 158h53l92 -120l92 120h53zM547 49q21 -30 59 -60.5t71 -41.5l-30 -39q-62 28 -93.5 55.5t-61.5 69.5l-172 250h-158v-283h-57v660h246q99 0 158.5 -50.5t59.5 -137.5q0 -80 -50.5 -129.5t-136.5 -57.5zM162 607v-271h188q78 0 118.5 35t40.5 101
t-40.5 100.5t-118.5 34.5h-188z" />
    <glyph glyph-name="Rcommaaccent.swsh.001" horiz-adv-x="677" 
d="M547 49q21 -30 59 -60.5t71 -41.5l-30 -39q-62 28 -93.5 55.5t-61.5 69.5l-172 250h-158v-283h-57v660h246q99 0 158.5 -50.5t59.5 -137.5q0 -80 -50.5 -129.5t-136.5 -57.5zM162 607v-271h188q78 0 118.5 35t40.5 101t-40.5 100.5t-118.5 34.5h-188zM274 -234l46 161h60
l-61 -161h-45z" />
    <glyph glyph-name="Iacute_J.loclNLD" horiz-adv-x="808" 
d="M170 891h66l-83 -148h-47zM724 891h66l-83 -148h-47zM162 660v-660h-57v660h57zM711 660v-440q0 -108 -56 -169t-157 -61q-107 0 -157 60t-32 162l53 12q-24 -181 134 -181q83 0 120.5 48t37.5 142v427h57z" />
    <glyph glyph-name="R.ss03" horiz-adv-x="640" 
d="M105 0v660h246q99 0 158.5 -50.5t59.5 -137.5q0 -67 -37.5 -111t-104.5 -58v-1q118 -19 123 -139q3 -59 8 -94t9 -45t12 -21v-3h-62q-18 41 -24 156q-5 127 -157 127h-174v-283h-57zM162 336h188q78 0 118.5 35t40.5 101t-40.5 100.5t-118.5 34.5h-188v-271z" />
    <glyph glyph-name="Racute.ss03" horiz-adv-x="640" 
d="M348 891h66l-83 -148h-47zM105 0v660h246q99 0 158.5 -50.5t59.5 -137.5q0 -67 -37.5 -111t-104.5 -58v-1q118 -19 123 -139q3 -59 8 -94t9 -45t12 -21v-3h-62q-18 41 -24 156q-5 127 -157 127h-174v-283h-57zM162 336h188q78 0 118.5 35t40.5 101t-40.5 100.5
t-118.5 34.5h-188v-271z" />
    <glyph glyph-name="Rcaron.ss03" horiz-adv-x="640" 
d="M457 898l-113 -158h-64l-113 158h53l92 -120l92 120h53zM105 0v660h246q99 0 158.5 -50.5t59.5 -137.5q0 -67 -37.5 -111t-104.5 -58v-1q118 -19 123 -139q3 -59 8 -94t9 -45t12 -21v-3h-62q-18 41 -24 156q-5 127 -157 127h-174v-283h-57zM162 336h188q78 0 118.5 35
t40.5 101t-40.5 100.5t-118.5 34.5h-188v-271z" />
    <glyph glyph-name="Rcommaaccent.ss03" horiz-adv-x="640" 
d="M105 0v660h246q99 0 158.5 -50.5t59.5 -137.5q0 -67 -37.5 -111t-104.5 -58v-1q118 -19 123 -139q3 -59 8 -94t9 -45t12 -21v-3h-62q-18 41 -24 156q-5 127 -157 127h-174v-283h-57zM162 336h188q78 0 118.5 35t40.5 101t-40.5 100.5t-118.5 34.5h-188v-271zM380 -73
l-61 -161h-45l46 161h60z" />
    <glyph glyph-name="G.ss04" horiz-adv-x="700" 
d="M359 325h284v-45q0 -129 -70.5 -209.5t-208.5 -80.5t-219 91.5t-81 248.5q0 156 82.5 248t219.5 92q196 0 261 -159l-51 -28q-47 134 -210 134q-110 0 -176.5 -77.5t-66.5 -209.5q0 -134 64.5 -210.5t180.5 -76.5q62 0 107 21t68.5 56.5t34 72t10.5 76.5v3h-229v53z" />
    <glyph glyph-name="Gbreve.ss04" horiz-adv-x="700" 
d="M362 738q-63 0 -100.5 38t-37.5 101h47q0 -41 25.5 -68t65.5 -27t65.5 27t25.5 68h47q0 -63 -38 -101t-100 -38zM359 325h284v-45q0 -129 -70.5 -209.5t-208.5 -80.5t-219 91.5t-81 248.5q0 156 82.5 248t219.5 92q196 0 261 -159l-51 -28q-47 134 -210 134
q-110 0 -176.5 -77.5t-66.5 -209.5q0 -134 64.5 -210.5t180.5 -76.5q62 0 107 21t68.5 56.5t34 72t10.5 76.5v3h-229v53z" />
    <glyph glyph-name="Gcommaaccent.ss04" horiz-adv-x="700" 
d="M359 325h284v-45q0 -129 -70.5 -209.5t-208.5 -80.5t-219 91.5t-81 248.5q0 156 82.5 248t219.5 92q196 0 261 -159l-51 -28q-47 134 -210 134q-110 0 -176.5 -77.5t-66.5 -209.5q0 -134 64.5 -210.5t180.5 -76.5q62 0 107 21t68.5 56.5t34 72t10.5 76.5v3h-229v53z
M301 -234l46 161h60l-61 -161h-45z" />
    <glyph glyph-name="IJ.ss05" horiz-adv-x="610" 
d="M513 660v-440q0 -107 -56.5 -168.5t-154.5 -61.5q-104 0 -154 49t-42 142h55q-7 -68 29.5 -103t111.5 -35q74 0 114 49.5t40 140.5v427h57zM162 660v-382h-57v382h57z" />
    <glyph glyph-name="Iacute_J.loclNLD.ss05" horiz-adv-x="603" 
d="M292 891h67l-83 -148h-47zM389 891h67l-84 -148h-47zM505 660v-440q0 -107 -56 -168.5t-154 -61.5q-104 0 -154 49t-42 142h55q-7 -68 29.5 -103t111.5 -35q73 0 113 49.5t40 140.5v427h57zM154 660v-382h-57v382h57z" />
    <glyph glyph-name="A.swsh" horiz-adv-x="871" 
d="M790 0l-80 201h-312l-66 -167q-28 -75 -71 -109.5t-113 -34.5q-76 0 -120 34.5t-47 101.5l42 30q6 -66 36 -91t87 -25q53 0 81.5 27t60.5 107l215 539h-172q-152 0 -152 -125q0 -49 30.5 -81.5t81.5 -42.5l-23 -45q-64 11 -105 56t-41 114q0 81 52 126t144 45h271
l261 -660h-60zM419 254h270l-108 275l-26 76h-2l-24 -73z" />
    <glyph glyph-name="Aacute.swsh" horiz-adv-x="871" 
d="M657 891l-83 -148h-47l64 148h66zM790 0l-80 201h-312l-66 -167q-28 -75 -71 -109.5t-113 -34.5q-76 0 -120 34.5t-47 101.5l42 30q6 -66 36 -91t87 -25q53 0 81.5 27t60.5 107l215 539h-172q-152 0 -152 -125q0 -49 30.5 -81.5t81.5 -42.5l-23 -45q-64 11 -105 56
t-41 114q0 81 52 126t144 45h271l261 -660h-60zM419 254h270l-108 275l-26 76h-2l-24 -73z" />
    <glyph glyph-name="Abreve.swsh" horiz-adv-x="871" 
d="M555 738q-63 0 -100.5 38t-37.5 101h47q0 -41 25.5 -68t65.5 -27t65.5 27t25.5 68h47q0 -63 -38 -101t-100 -38zM790 0l-80 201h-312l-66 -167q-28 -75 -71 -109.5t-113 -34.5q-76 0 -120 34.5t-47 101.5l42 30q6 -66 36 -91t87 -25q53 0 81.5 27t60.5 107l215 539h-172
q-152 0 -152 -125q0 -49 30.5 -81.5t81.5 -42.5l-23 -45q-64 11 -105 56t-41 114q0 81 52 126t144 45h271l261 -660h-60zM419 254h270l-108 275l-26 76h-2l-24 -73z" />
    <glyph glyph-name="Acircumflex.swsh" horiz-adv-x="871" 
d="M555 858l-92 -120h-53l113 158h64l113 -158h-53zM790 0l-80 201h-312l-66 -167q-28 -75 -71 -109.5t-113 -34.5q-76 0 -120 34.5t-47 101.5l42 30q6 -66 36 -91t87 -25q53 0 81.5 27t60.5 107l215 539h-172q-152 0 -152 -125q0 -49 30.5 -81.5t81.5 -42.5l-23 -45
q-64 11 -105 56t-41 114q0 81 52 126t144 45h271l261 -660h-60zM419 254h270l-108 275l-26 76h-2l-24 -73z" />
    <glyph glyph-name="Adieresis.swsh" horiz-adv-x="871" 
d="M459 748q-20 0 -32.5 12t-12.5 32t12.5 32.5t32.5 12.5t32 -12.5t12 -32.5t-12.5 -32t-31.5 -12zM649 748q-19 0 -31.5 12t-12.5 32t12 32.5t32 12.5t32.5 -12.5t12.5 -32.5t-12.5 -32t-32.5 -12zM790 0l-80 201h-312l-66 -167q-28 -75 -71 -109.5t-113 -34.5
q-76 0 -120 34.5t-47 101.5l42 30q6 -66 36 -91t87 -25q53 0 81.5 27t60.5 107l215 539h-172q-152 0 -152 -125q0 -49 30.5 -81.5t81.5 -42.5l-23 -45q-64 11 -105 56t-41 114q0 81 52 126t144 45h271l261 -660h-60zM419 254h270l-108 275l-26 76h-2l-24 -73z" />
    <glyph glyph-name="Agrave.swsh" horiz-adv-x="871" 
d="M576 743h-47l-83 148h66zM790 0l-80 201h-312l-66 -167q-28 -75 -71 -109.5t-113 -34.5q-76 0 -120 34.5t-47 101.5l42 30q6 -66 36 -91t87 -25q53 0 81.5 27t60.5 107l215 539h-172q-152 0 -152 -125q0 -49 30.5 -81.5t81.5 -42.5l-23 -45q-64 11 -105 56t-41 114
q0 81 52 126t144 45h271l261 -660h-60zM419 254h270l-108 275l-26 76h-2l-24 -73z" />
    <glyph glyph-name="Amacron.swsh" horiz-adv-x="871" 
d="M718 807v-48h-326v48h326zM790 0l-80 201h-312l-66 -167q-28 -75 -71 -109.5t-113 -34.5q-76 0 -120 34.5t-47 101.5l42 30q6 -66 36 -91t87 -25q53 0 81.5 27t60.5 107l215 539h-172q-152 0 -152 -125q0 -49 30.5 -81.5t81.5 -42.5l-23 -45q-64 11 -105 56t-41 114
q0 81 52 126t144 45h271l261 -660h-60zM419 254h270l-108 275l-26 76h-2l-24 -73z" />
    <glyph glyph-name="Aogonek.swsh" horiz-adv-x="871" 
d="M851 -153l12 -38q-29 -19 -78 -19t-78.5 24.5t-29.5 69.5q0 80 109 127l-76 190h-312l-66 -167q-28 -75 -71 -109.5t-113 -34.5q-76 0 -120 34.5t-47 101.5l42 30q6 -66 36 -91t87 -25q53 0 81.5 27t60.5 107l215 539h-172q-152 0 -152 -125q0 -49 30.5 -81.5t81.5 -42.5
l-23 -45q-64 11 -105 56t-41 114q0 81 52 126t144 45h271l261 -660h1q-71 -25 -99 -52t-28 -60q0 -27 18.5 -42t48.5 -15q37 0 60 16zM419 254h270l-108 275l-26 76h-2l-24 -73z" />
    <glyph glyph-name="Atilde.swsh" horiz-adv-x="871" 
d="M484 817q-25 0 -37 -17t-19 -52h-46q12 116 103 116q32 0 56 -17t43.5 -34.5t40.5 -17.5q25 0 38 17.5t19 52.5h45q-12 -116 -102 -116q-32 0 -56.5 17t-44 34t-40.5 17zM790 0l-80 201h-312l-66 -167q-28 -75 -71 -109.5t-113 -34.5q-76 0 -120 34.5t-47 101.5l42 30
q6 -66 36 -91t87 -25q53 0 81.5 27t60.5 107l215 539h-172q-152 0 -152 -125q0 -49 30.5 -81.5t81.5 -42.5l-23 -45q-64 11 -105 56t-41 114q0 81 52 126t144 45h271l261 -660h-60zM419 254h270l-108 275l-26 76h-2l-24 -73z" />
    <glyph glyph-name="E.swsh" horiz-adv-x="835" 
d="M379 53h412v-53h-469v613h-103q-152 0 -152 -125q0 -49 30.5 -81.5t82.5 -42.5l-24 -45q-64 11 -105 56t-41 114q0 81 52 126t144 45h570v-53h-397v-245h312v-53h-312v-256z" />
    <glyph glyph-name="Eacute.swsh" horiz-adv-x="835" 
d="M651 891l-83 -148h-47l64 148h66zM379 53h412v-53h-469v613h-103q-152 0 -152 -125q0 -49 30.5 -81.5t82.5 -42.5l-24 -45q-64 11 -105 56t-41 114q0 81 52 126t144 45h570v-53h-397v-245h312v-53h-312v-256z" />
    <glyph glyph-name="Ecaron.swsh" horiz-adv-x="835" 
d="M580 740h-64l-113 158h53l92 -120l92 120h53zM379 53h412v-53h-469v613h-103q-152 0 -152 -125q0 -49 30.5 -81.5t82.5 -42.5l-24 -45q-64 11 -105 56t-41 114q0 81 52 126t144 45h570v-53h-397v-245h312v-53h-312v-256z" />
    <glyph glyph-name="Ecircumflex.swsh" horiz-adv-x="835" 
d="M548 858l-92 -120h-53l113 158h64l113 -158h-53zM379 53h412v-53h-469v613h-103q-152 0 -152 -125q0 -49 30.5 -81.5t82.5 -42.5l-24 -45q-64 11 -105 56t-41 114q0 81 52 126t144 45h570v-53h-397v-245h312v-53h-312v-256z" />
    <glyph glyph-name="Edieresis.swsh" horiz-adv-x="835" 
d="M453 748q-20 0 -32.5 12t-12.5 32t12.5 32.5t32.5 12.5t32 -12.5t12 -32.5t-12.5 -32t-31.5 -12zM643 748q-19 0 -31.5 12t-12.5 32t12 32.5t32 12.5t32.5 -12.5t12.5 -32.5t-12.5 -32t-32.5 -12zM379 53h412v-53h-469v613h-103q-152 0 -152 -125q0 -49 30.5 -81.5
t82.5 -42.5l-24 -45q-64 11 -105 56t-41 114q0 81 52 126t144 45h570v-53h-397v-245h312v-53h-312v-256z" />
    <glyph glyph-name="Edotaccent.swsh" horiz-adv-x="835" 
d="M548 757q-21 0 -33.5 12.5t-12.5 33.5t12.5 33.5t33.5 12.5t33.5 -12.5t12.5 -33.5t-12.5 -33.5t-33.5 -12.5zM379 53h412v-53h-469v613h-103q-152 0 -152 -125q0 -49 30.5 -81.5t82.5 -42.5l-24 -45q-64 11 -105 56t-41 114q0 81 52 126t144 45h570v-53h-397v-245h312
v-53h-312v-256z" />
    <glyph glyph-name="Egrave.swsh" horiz-adv-x="835" 
d="M569 743h-47l-83 148h66zM379 53h412v-53h-469v613h-103q-152 0 -152 -125q0 -49 30.5 -81.5t82.5 -42.5l-24 -45q-64 11 -105 56t-41 114q0 81 52 126t144 45h570v-53h-397v-245h312v-53h-312v-256z" />
    <glyph glyph-name="Emacron.swsh" horiz-adv-x="835" 
d="M711 807v-48h-326v48h326zM379 53h412v-53h-469v613h-103q-152 0 -152 -125q0 -49 30.5 -81.5t82.5 -42.5l-24 -45q-64 11 -105 56t-41 114q0 81 52 126t144 45h570v-53h-397v-245h312v-53h-312v-256z" />
    <glyph glyph-name="Eogonek.swsh" horiz-adv-x="835" 
d="M792 -153l12 -38q-28 -19 -78 -19q-49 0 -78.5 24t-29.5 66t24 70.5t75 49.5h-395v613h-103q-152 0 -152 -125q0 -49 30.5 -81.5t82.5 -42.5l-24 -45q-64 11 -105 56t-41 114q0 81 52 126t144 45h570v-53h-397v-245h312v-53h-312v-256h412v-52l1 -1q-71 -25 -99 -52
t-28 -60q0 -27 18.5 -42t48.5 -15q37 0 60 16z" />
    <glyph glyph-name="F.swsh" horiz-adv-x="807" 
d="M775 607h-396v-245h312v-53h-312v-309h-57v613h-103q-152 0 -152 -125q0 -49 30.5 -81.5t82.5 -42.5l-24 -45q-64 11 -105 56t-41 114q0 81 52 126t144 45h569v-53z" />
    <glyph glyph-name="L.swsh" horiz-adv-x="618" 
d="M462 334q64 -6 105 -48t41 -115q0 -85 -51.5 -128t-144.5 -43h-307v660h57v-607h237q152 0 152 119q0 54 -30.5 83t-82.5 34z" />
    <glyph glyph-name="Lacute.swsh" horiz-adv-x="618" 
d="M236 891l-83 -148h-47l64 148h66zM462 334q64 -6 105 -48t41 -115q0 -85 -51.5 -128t-144.5 -43h-307v660h57v-607h237q152 0 152 119q0 54 -30.5 83t-82.5 34z" />
    <glyph glyph-name="Lcaron.swsh" horiz-adv-x="618" 
d="M278 898l-113 -158h-64l-113 158h53l92 -120l92 120h53zM462 334q64 -6 105 -48t41 -115q0 -85 -51.5 -128t-144.5 -43h-307v660h57v-607h237q152 0 152 119q0 54 -30.5 83t-82.5 34z" />
    <glyph glyph-name="Lcommaaccent.swsh" horiz-adv-x="618" 
d="M462 334q64 -6 105 -48t41 -115q0 -85 -51.5 -128t-144.5 -43h-307v660h57v-607h237q152 0 152 119q0 54 -30.5 83t-82.5 34zM275 -234l46 161h60l-61 -161h-45z" />
    <glyph glyph-name="Lslash.swsh" horiz-adv-x="641" 
d="M485 334q64 -6 105 -48t41 -115q0 -85 -51.5 -128t-144.5 -43h-307v262l-104 -60v60l104 61v337h57v-304l188 110v-60l-188 -110v-243h237q152 0 152 119q0 54 -30.5 83t-82.5 34z" />
    <glyph glyph-name="M.swsh" horiz-adv-x="1047" 
d="M856 660h86v-660h-54v474l6 132h-1l-236 -606h-50l-236 606h-1l6 -132v-415q0 -73 -46.5 -121t-129.5 -48q-145 0 -163 126l42 30q9 -56 37.5 -81.5t83.5 -25.5q56 0 89 36.5t33 97.5v540h-103q-152 0 -152 -125q0 -49 30.5 -81.5t82.5 -42.5l-24 -45q-64 11 -105 56
t-41 114q0 81 52 126t144 45h202l187 -477l36 -116h2l37 115z" />
    <glyph glyph-name="N.swsh" horiz-adv-x="900" 
d="M737 735q145 0 163 -126l-43 -30q-8 56 -36.5 81.5t-83.5 25.5q-57 0 -89.5 -37.5t-32.5 -103.5v-545h-71l-333 501l-54 97h-1l3 -89v-509h-54v660h71l332 -499l55 -99l-3 89v408q0 78 47 127t130 49z" />
    <glyph glyph-name="Nacute.swsh" horiz-adv-x="900" 
d="M467 891l-83 -148h-47l64 148h66zM737 735q145 0 163 -126l-43 -30q-8 56 -36.5 81.5t-83.5 25.5q-57 0 -89.5 -37.5t-32.5 -103.5v-545h-71l-333 501l-54 97h-1l3 -89v-509h-54v660h71l332 -499l55 -99l-3 89v408q0 78 47 127t130 49z" />
    <glyph glyph-name="Ncaron.swsh" horiz-adv-x="900" 
d="M397 740h-64l-113 158h53l92 -120l92 120h53zM737 735q145 0 163 -126l-43 -30q-8 56 -36.5 81.5t-83.5 25.5q-57 0 -89.5 -37.5t-32.5 -103.5v-545h-71l-333 501l-54 97h-1l3 -89v-509h-54v660h71l332 -499l55 -99l-3 89v408q0 78 47 127t130 49z" />
    <glyph glyph-name="Ncommaaccent.swsh" horiz-adv-x="900" 
d="M737 735q145 0 163 -126l-43 -30q-8 56 -36.5 81.5t-83.5 25.5q-57 0 -89.5 -37.5t-32.5 -103.5v-545h-71l-333 501l-54 97h-1l3 -89v-509h-54v660h71l332 -499l55 -99l-3 89v408q0 78 47 127t130 49zM295 -234l46 161h60l-61 -161h-45z" />
    <glyph glyph-name="Ntilde.swsh" horiz-adv-x="900" 
d="M294 817q-25 0 -37 -17t-19 -52h-46q12 116 103 116q32 0 56 -17t43.5 -34.5t40.5 -17.5q25 0 38 17.5t19 52.5h45q-12 -116 -102 -116q-32 0 -56.5 17t-44 34t-40.5 17zM737 735q145 0 163 -126l-43 -30q-8 56 -36.5 81.5t-83.5 25.5q-57 0 -89.5 -37.5t-32.5 -103.5
v-545h-71l-333 501l-54 97h-1l3 -89v-509h-54v660h71l332 -499l55 -99l-3 89v408q0 78 47 127t130 49z" />
    <glyph glyph-name="R.swsh" horiz-adv-x="863" 
d="M755 0l-187 283h-189v-224q0 -73 -47.5 -121t-131.5 -48q-74 0 -115.5 35.5t-47.5 97.5l42 30q12 -114 121 -114q56 0 89 36.5t33 97.5v540h-103q-152 0 -152 -125q0 -49 30.5 -81.5t82.5 -42.5l-24 -45q-64 11 -105 56t-41 114q0 81 52 126t144 45h362q99 0 158.5 -50.5
t59.5 -137.5q0 -72 -41 -120t-113 -62l190 -290h-67zM379 607v-271h188q78 0 118.5 35t40.5 101t-40.5 100.5t-118.5 34.5h-188z" />
    <glyph glyph-name="Racute.swsh" horiz-adv-x="863" 
d="M631 891l-83 -148h-47l64 148h66zM755 0l-187 283h-189v-224q0 -73 -47.5 -121t-131.5 -48q-74 0 -115.5 35.5t-47.5 97.5l42 30q12 -114 121 -114q56 0 89 36.5t33 97.5v540h-103q-152 0 -152 -125q0 -49 30.5 -81.5t82.5 -42.5l-24 -45q-64 11 -105 56t-41 114
q0 81 52 126t144 45h362q99 0 158.5 -50.5t59.5 -137.5q0 -72 -41 -120t-113 -62l190 -290h-67zM379 607v-271h188q78 0 118.5 35t40.5 101t-40.5 100.5t-118.5 34.5h-188z" />
    <glyph glyph-name="Rcaron.swsh" horiz-adv-x="863" 
d="M561 740h-64l-113 158h53l92 -120l92 120h53zM755 0l-187 283h-189v-224q0 -73 -47.5 -121t-131.5 -48q-74 0 -115.5 35.5t-47.5 97.5l42 30q12 -114 121 -114q56 0 89 36.5t33 97.5v540h-103q-152 0 -152 -125q0 -49 30.5 -81.5t82.5 -42.5l-24 -45q-64 11 -105 56
t-41 114q0 81 52 126t144 45h362q99 0 158.5 -50.5t59.5 -137.5q0 -72 -41 -120t-113 -62l190 -290h-67zM379 607v-271h188q78 0 118.5 35t40.5 101t-40.5 100.5t-118.5 34.5h-188z" />
    <glyph glyph-name="Rcommaaccent.swsh" horiz-adv-x="863" 
d="M632 290l190 -290h-67l-187 283h-189v-224q0 -73 -47.5 -121t-131.5 -48q-74 0 -115.5 35.5t-47.5 97.5l42 30q12 -114 121 -114q56 0 89 36.5t33 97.5v540h-103q-152 0 -152 -125q0 -49 30.5 -81.5t82.5 -42.5l-24 -45q-64 11 -105 56t-41 114q0 81 52 126t144 45h362
q99 0 158.5 -50.5t59.5 -137.5q0 -72 -41 -120t-113 -62zM379 607v-271h188q78 0 118.5 35t40.5 101t-40.5 100.5t-118.5 34.5h-188zM491 -234l46 161h60l-61 -161h-45z" />
    <glyph glyph-name="S.swsh" horiz-adv-x="624" 
d="M320 -110q-120 0 -185.5 47t-65.5 133q0 18 5 48l54 15q-5 -20 -5 -48q0 -142 199 -142q92 0 141.5 39t49.5 112q0 55 -43 90t-152 65q-129 36 -182 84t-53 125q0 97 64.5 154.5t173.5 57.5q110 0 170 -48.5t64 -142.5l-56 -22q1 82 -42 121t-135 39q-85 0 -132 -40.5
t-47 -112.5q0 -59 43.5 -95.5t156.5 -69.5q128 -36 178.5 -81t50.5 -121q0 -94 -68.5 -150.5t-183.5 -56.5z" />
    <glyph glyph-name="Sacute.swsh" horiz-adv-x="624" 
d="M350 891h66l-83 -148h-47zM320 -110q-120 0 -185.5 47t-65.5 133q0 18 5 48l54 15q-5 -20 -5 -48q0 -142 199 -142q92 0 141.5 39t49.5 112q0 55 -43 90t-152 65q-129 36 -182 84t-53 125q0 97 64.5 154.5t173.5 57.5q110 0 170 -48.5t64 -142.5l-56 -22q1 82 -42 121
t-135 39q-85 0 -132 -40.5t-47 -112.5q0 -59 43.5 -95.5t156.5 -69.5q128 -36 178.5 -81t50.5 -121q0 -94 -68.5 -150.5t-183.5 -56.5z" />
    <glyph glyph-name="Scaron.swsh" horiz-adv-x="624" 
d="M458 898l-113 -158h-64l-113 158h53l92 -120l92 120h53zM320 -110q-120 0 -185.5 47t-65.5 133q0 18 5 48l54 15q-5 -20 -5 -48q0 -142 199 -142q92 0 141.5 39t49.5 112q0 55 -43 90t-152 65q-129 36 -182 84t-53 125q0 97 64.5 154.5t173.5 57.5q110 0 170 -48.5
t64 -142.5l-56 -22q1 82 -42 121t-135 39q-85 0 -132 -40.5t-47 -112.5q0 -59 43.5 -95.5t156.5 -69.5q128 -36 178.5 -81t50.5 -121q0 -94 -68.5 -150.5t-183.5 -56.5z" />
    <glyph glyph-name="Scedilla.swsh" horiz-adv-x="624" 
d="M572 97q0 -88 -60.5 -143.5t-163.5 -62.5q60 -42 60 -103q0 -41 -29 -69.5t-77 -28.5q-68 0 -104 37l22 40q28 -34 75 -34q27 0 45 17.5t18 44.5q0 29 -17.5 50.5t-64.5 46.5q-99 8 -153 54t-54 124q0 18 5 48l54 15q-5 -20 -5 -48q0 -142 199 -142q92 0 141.5 39
t49.5 112q0 55 -43 90t-152 65q-129 36 -182 84t-53 125q0 97 64.5 154.5t173.5 57.5q110 0 170 -48.5t64 -142.5l-56 -22q1 82 -42 121t-135 39q-85 0 -132 -40.5t-47 -112.5q0 -59 43.5 -95.5t156.5 -69.5q128 -36 178.5 -81t50.5 -121z" />
    <glyph glyph-name="Scommaaccent.swsh" horiz-adv-x="624" 
d="M320 -110q-120 0 -185.5 47t-65.5 133q0 18 5 48l54 15q-5 -20 -5 -48q0 -142 199 -142q92 0 141.5 39t49.5 112q0 55 -43 90t-152 65q-129 36 -182 84t-53 125q0 97 64.5 154.5t173.5 57.5q110 0 170 -48.5t64 -142.5l-56 -22q1 82 -42 121t-135 39q-85 0 -132 -40.5
t-47 -112.5q0 -59 43.5 -95.5t156.5 -69.5q128 -36 178.5 -81t50.5 -121q0 -94 -68.5 -150.5t-183.5 -56.5zM352 -173l-61 -161h-45l46 161h60z" />
    <glyph glyph-name="T.swsh" horiz-adv-x="677" 
d="M653 660v-53h-239v-607h-57v607h-138q-152 0 -152 -119q0 -49 30.5 -81.5t82.5 -42.5l-24 -45q-64 11 -105 56t-41 114q0 81 52 126t144 45h447z" />
    <glyph glyph-name="Tcaron.swsh" horiz-adv-x="677" 
d="M418 740h-64l-113 158h53l92 -120l92 120h53zM653 660v-53h-239v-607h-57v607h-138q-152 0 -152 -119q0 -49 30.5 -81.5t82.5 -42.5l-24 -45q-64 11 -105 56t-41 114q0 81 52 126t144 45h447z" />
    <glyph glyph-name="uni0162.swsh" horiz-adv-x="677" 
d="M653 607h-239v-600q76 -49 76 -119q0 -41 -29.5 -69.5t-77.5 -28.5q-66 0 -104 38l22 39q29 -34 75 -34q27 0 45 17.5t18 45.5q0 30 -18 52t-64 52v607h-138q-152 0 -152 -119q0 -49 30.5 -81.5t82.5 -42.5l-24 -45q-64 11 -105 56t-41 114q0 81 52 126t144 45h447v-53z
" />
    <glyph glyph-name="uni021A.swsh" horiz-adv-x="677" 
d="M653 660v-53h-239v-607h-57v607h-138q-152 0 -152 -119q0 -49 30.5 -81.5t82.5 -42.5l-24 -45q-64 11 -105 56t-41 114q0 81 52 126t144 45h447zM313 -234l46 161h60l-61 -161h-45z" />
    <glyph glyph-name="W.swsh" horiz-adv-x="1178" 
d="M1088 660h58l-202 -660h-71l-130 455l-36 144h-1l-36 -144l-129 -455h-71l-189 613h-62q-152 0 -152 -125q0 -49 30.5 -81.5t82.5 -42.5l-24 -45q-64 11 -105 56t-41 114q0 81 52 126t144 45h122l178 -614l169 614h66l169 -615z" />
    <glyph glyph-name="Adieresis.titl" horiz-adv-x="633" 
d="M182 576q-19 0 -31 12t-12 32q0 19 12 30.5t31 11.5t31 -11.5t12 -30.5t-12 -31.5t-31 -12.5zM452 576q-19 0 -31 12t-12 32q0 19 12 30.5t31 11.5t30.5 -11.5t11.5 -30.5q0 -20 -11.5 -32t-30.5 -12zM552 0l-80 201h-312l-79 -201h-60l262 660h68l261 -660h-60zM181 254
h270l-108 275l-26 76h-2l-24 -73z" />
    <glyph glyph-name="Odieresis.titl" horiz-adv-x="736" 
d="M368 670q140 0 222 -91.5t82 -248.5t-82 -248.5t-222 -91.5t-222 91.5t-82 248.5t82 248.5t222 91.5zM368 617q-113 0 -179 -77t-66 -210t66 -210t179 -77t178.5 77t65.5 210t-65.5 210t-178.5 77zM304 580q19 0 31 -11.5t12 -30.5t-12 -31.5t-31 -12.5t-31 12t-12 32
q0 19 12 30.5t31 11.5zM433 580q19 0 31 -11.5t12 -30.5t-12 -31.5t-31 -12.5t-31 12t-12 32q0 19 12 30.5t31 11.5z" />
    <glyph glyph-name="Udieresis.titl" horiz-adv-x="706" 
d="M279 576q-19 0 -30.5 12t-11.5 32q0 19 11.5 30.5t30.5 11.5q20 0 32 -11.5t12 -30.5q0 -20 -12.5 -32t-31.5 -12zM426 576q-20 0 -32 12t-12 32q0 19 12 30.5t32 11.5q19 0 30.5 -11.5t11.5 -30.5q0 -20 -11.5 -32t-30.5 -12zM608 660v-418q0 -123 -66 -187.5
t-189 -64.5t-189.5 64.5t-66.5 187.5v418h57v-405q0 -212 199 -212q198 0 198 212v405h57z" />
    <glyph glyph-name="i.loclTRK" horiz-adv-x="237" 
d="M119 597q-21 0 -34 12.5t-13 33.5t13 33.5t34 12.5q20 0 33 -12.5t13 -33.5t-13 -33.5t-33 -12.5zM147 500v-500h-57v500h57z" />
    <glyph glyph-name="germandbls.calt" horiz-adv-x="672" 
d="M428 361q96 0 149.5 -45.5t53.5 -132.5q0 -84 -55.5 -136t-143.5 -52q-58 0 -102.5 18t-61.5 45l26 42q40 -54 133 -54q64 0 104 38t40 99q0 129 -164 129h-82v49l198 246h-200q-70 0 -115.5 -46.5t-45.5 -118.5v-442h-57v443q0 97 60.5 157t157.5 60h268v-54l-205 -245
h42z" />
    <glyph glyph-name="longs.component" horiz-adv-x="232" 
d="M86 0v587q0 148 121 148q38 0 60 -19l-7 -51q-18 18 -44 18q-73 0 -73 -101v-582h-57z" />
    <glyph glyph-name="iacute_j.loclNLD" horiz-adv-x="475" 
d="M164 743h62l-95 -160h-47zM407 743h62l-95 -160h-47zM147 500v-500h-57v500h57zM384 500v-556q0 -79 -42 -119t-102 -40q-56 0 -90 29l13 54q30 -28 76 -28q41 0 64.5 27.5t23.5 81.5v551h57z" />
    <glyph glyph-name="g.ss01" horiz-adv-x="614" 
d="M476 500h48v-471q0 -120 -63 -182t-182 -62q-82 0 -137.5 31.5t-67.5 92.5l54 23q20 -97 158 -97q82 0 131 49.5t49 131.5v80q-24 -47 -71 -73.5t-109 -26.5q-106 0 -167 68.5t-61 188.5t61 188.5t167 68.5q64 0 111.5 -28t71.5 -78zM293 46q79 0 126 54.5t47 147.5v12
q0 92 -47 146t-126 54q-83 0 -130.5 -55.5t-47.5 -151.5t47.5 -151.5t130.5 -55.5z" />
    <glyph glyph-name="gbreve.ss01" horiz-adv-x="614" 
d="M285 578q-63 0 -100.5 38t-37.5 101h47q0 -41 25.5 -68t65.5 -27t65.5 27t25.5 68h47q0 -63 -38 -101t-100 -38zM476 500h48v-471q0 -120 -63 -182t-182 -62q-82 0 -137.5 31.5t-67.5 92.5l54 23q20 -97 158 -97q82 0 131 49.5t49 131.5v80q-24 -47 -71 -73.5t-109 -26.5
q-106 0 -167 68.5t-61 188.5t61 188.5t167 68.5q64 0 111.5 -28t71.5 -78zM293 46q79 0 126 54.5t47 147.5v12q0 92 -47 146t-126 54q-83 0 -130.5 -55.5t-47.5 -151.5t47.5 -151.5t130.5 -55.5z" />
    <glyph glyph-name="gcommaaccent.ss01" horiz-adv-x="614" 
d="M381 778l-46 -191h-63l66 191h43zM476 500h48v-471q0 -120 -63 -182t-182 -62q-82 0 -137.5 31.5t-67.5 92.5l54 23q20 -97 158 -97q82 0 131 49.5t49 131.5v80q-24 -47 -71 -73.5t-109 -26.5q-106 0 -167 68.5t-61 188.5t61 188.5t167 68.5q64 0 111.5 -28t71.5 -78z
M293 46q79 0 126 54.5t47 147.5v12q0 92 -47 146t-126 54q-83 0 -130.5 -55.5t-47.5 -151.5t47.5 -151.5t130.5 -55.5z" />
    <glyph glyph-name="l.ss02" horiz-adv-x="243" 
d="M150 730v-730h-57v730h57z" />
    <glyph glyph-name="lacute.ss02" horiz-adv-x="243" 
d="M134 930h63l-55 -133h-46zM150 730v-730h-57v730h57z" />
    <glyph glyph-name="lcaron.ss02" horiz-adv-x="252" 
d="M150 730v-730h-57v730h57zM294 730l-37 -197h-40l22 197h55z" />
    <glyph glyph-name="lcommaaccent.ss02" horiz-adv-x="243" 
d="M150 730v-730h-57v730h57zM154 -73l-61 -161h-45l46 161h60z" />
    <glyph glyph-name="ldot.ss02" horiz-adv-x="370" 
d="M150 730v-730h-57v730h57zM306 406q22 0 36 -14t14 -36t-14 -35.5t-36 -13.5t-35.5 13.5t-13.5 35.5t13.5 36t35.5 14z" />
    <glyph glyph-name="lslash.ss02" horiz-adv-x="283" 
d="M251 456v-59l-79 -52v-345h-57v307l-78 -51v59l78 52v363h57v-326z" />
    <glyph glyph-name="n.swsh" horiz-adv-x="615" 
d="M569 -45q28 0 50 13l-9 -44q-20 -14 -58 -14q-46 0 -68.5 27t-22.5 75v293q0 78 -38 116.5t-103 38.5q-71 0 -122 -48t-51 -133v-279h-57v500h51l3 -95q24 51 72.5 78t109.5 27q86 0 139 -48.5t53 -138.5v-313q0 -55 51 -55z" />
    <glyph glyph-name="nacute.swsh" horiz-adv-x="615" 
d="M417 743l-95 -160h-47l80 160h62zM569 -45q28 0 50 13l-9 -44q-20 -14 -58 -14q-46 0 -68.5 27t-22.5 75v293q0 78 -38 116.5t-103 38.5q-71 0 -122 -48t-51 -133v-279h-57v500h51l3 -95q24 51 72.5 78t109.5 27q86 0 139 -48.5t53 -138.5v-313q0 -55 51 -55z" />
    <glyph glyph-name="ncaron.swsh" horiz-adv-x="615" 
d="M342 583h-66l-110 158h53l90 -117l90 117h53zM569 -45q28 0 50 13l-9 -44q-20 -14 -58 -14q-46 0 -68.5 27t-22.5 75v293q0 78 -38 116.5t-103 38.5q-71 0 -122 -48t-51 -133v-279h-57v500h51l3 -95q24 51 72.5 78t109.5 27q86 0 139 -48.5t53 -138.5v-313q0 -55 51 -55z
" />
    <glyph glyph-name="ncommaaccent.swsh" horiz-adv-x="615" 
d="M569 -45q28 0 50 13l-9 -44q-20 -14 -58 -14q-46 0 -68.5 27t-22.5 75v293q0 78 -38 116.5t-103 38.5q-71 0 -122 -48t-51 -133v-279h-57v500h51l3 -95q24 51 72.5 78t109.5 27q86 0 139 -48.5t53 -138.5v-313q0 -55 51 -55zM244 -234l46 161h60l-61 -161h-45z" />
    <glyph glyph-name="ntilde.swsh" horiz-adv-x="615" 
d="M238 657q-25 0 -37 -17t-19 -52h-46q12 116 103 116q40 0 78.5 -34.5t61.5 -34.5q25 0 38 17.5t19 52.5h45q-12 -116 -102 -116q-32 0 -56.5 17t-44 34t-40.5 17zM569 -45q28 0 50 13l-9 -44q-20 -14 -58 -14q-46 0 -68.5 27t-22.5 75v293q0 78 -38 116.5t-103 38.5
q-71 0 -122 -48t-51 -133v-279h-57v500h51l3 -95q24 51 72.5 78t109.5 27q86 0 139 -48.5t53 -138.5v-313q0 -55 51 -55z" />
    <glyph glyph-name="r.swsh" horiz-adv-x="466" 
d="M287 510q54 0 106.5 -31.5t86.5 -36.5l-30 -42q-32 6 -77.5 31.5t-84.5 25.5q-60 0 -100.5 -42.5t-40.5 -121.5v-293h-57v500h48l7 -86q38 96 142 96z" />
    <glyph glyph-name="racute.swsh" horiz-adv-x="466" 
d="M319 743l-95 -160h-47l80 160h62zM287 510q54 0 106.5 -31.5t86.5 -36.5l-30 -42q-32 6 -77.5 31.5t-84.5 25.5q-60 0 -100.5 -42.5t-40.5 -121.5v-293h-57v500h48l7 -86q38 96 142 96z" />
    <glyph glyph-name="rcaron.swsh" horiz-adv-x="466" 
d="M244 583h-66l-110 158h53l90 -117l90 117h53zM287 510q54 0 106.5 -31.5t86.5 -36.5l-30 -42q-32 6 -77.5 31.5t-84.5 25.5q-60 0 -100.5 -42.5t-40.5 -121.5v-293h-57v500h48l7 -86q38 96 142 96z" />
    <glyph glyph-name="rcommaaccent.swsh" horiz-adv-x="466" 
d="M287 510q54 0 106.5 -31.5t86.5 -36.5l-30 -42q-32 6 -77.5 31.5t-84.5 25.5q-60 0 -100.5 -42.5t-40.5 -121.5v-293h-57v500h48l7 -86q38 96 142 96zM48 -234l46 161h60l-61 -161h-45z" />
    <glyph glyph-name="t.swsh" horiz-adv-x="428" 
d="M333 451h-152v-317q0 -91 85 -91q51 0 86 37l21 -48q-45 -42 -117 -42q-61 0 -96.5 33.5t-35.5 101.5v326h-100v49h100v124l57 15v-139h151q114 0 154 51l25 -38q-26 -33 -66 -47.5t-112 -14.5z" />
    <glyph glyph-name="tcaron.swsh" horiz-adv-x="428" 
d="M330 767l-37 -197h-40l22 197h55zM333 451h-152v-317q0 -91 85 -91q51 0 86 37l21 -48q-45 -42 -117 -42q-61 0 -96.5 33.5t-35.5 101.5v326h-100v49h100v124l57 15v-139h151q114 0 154 51l25 -38q-26 -33 -66 -47.5t-112 -14.5z" />
    <glyph glyph-name="uni0163.swsh" horiz-adv-x="387" 
d="M333 451h-152v-317q0 -91 85 -91q51 0 86 37l21 -48q-35 -31 -85 -40q62 -42 62 -104q0 -41 -28.5 -69.5t-76.5 -28.5q-68 0 -105 37l22 40q31 -34 76 -34q27 0 44.5 17t17.5 45t-16.5 50t-61.5 48q-98 19 -98 132v326h-100v49h100v124l57 15v-139h151q114 0 154 51
l25 -38q-26 -33 -66 -47.5t-112 -14.5z" />
    <glyph glyph-name="uni021B.swsh" horiz-adv-x="428" 
d="M333 451h-152v-317q0 -91 85 -91q51 0 86 37l21 -48q-45 -42 -117 -42q-61 0 -96.5 33.5t-35.5 101.5v326h-100v49h100v124l57 15v-139h151q114 0 154 51l25 -38q-26 -33 -66 -47.5t-112 -14.5zM159 -234l46 161h60l-61 -161h-45z" />
    <glyph glyph-name="y.swsh" horiz-adv-x="538" 
d="M107 -215q-65 0 -99 38l21 49q26 -37 77 -37q34 0 58 19.5t44 69.5l31 76l-211 500h65l147 -367l26 -72l29 79l131 328q24 61 54 87.5t74 26.5q48 0 73 -24l-12 -39q-21 17 -50 17q-31 0 -51 -18.5t-36 -58.5l-221 -549q-28 -69 -62.5 -97t-87.5 -28z" />
    <glyph glyph-name="yacute.swsh" horiz-adv-x="538" 
d="M308 743h62l-95 -160h-47zM107 -215q-65 0 -99 38l21 49q26 -37 77 -37q34 0 58 19.5t44 69.5l31 76l-211 500h65l147 -367l26 -72l29 79l131 328q24 61 54 87.5t74 26.5q48 0 73 -24l-12 -39q-21 17 -50 17q-31 0 -51 -18.5t-36 -58.5l-221 -549q-28 -69 -62.5 -97
t-87.5 -28z" />
    <glyph glyph-name="ydieresis.swsh" horiz-adv-x="538" 
d="M167 677q20 0 32 -12.5t12 -32.5t-12.5 -32t-31.5 -12q-20 0 -32.5 12t-12.5 32t12.5 32.5t32.5 12.5zM357 677q20 0 32.5 -12.5t12.5 -32.5t-12.5 -32t-32.5 -12q-19 0 -31.5 12t-12.5 32t12 32.5t32 12.5zM107 -215q-65 0 -99 38l21 49q26 -37 77 -37q34 0 58 19.5
t44 69.5l31 76l-211 500h65l147 -367l26 -72l29 79l131 328q24 61 54 87.5t74 26.5q48 0 73 -24l-12 -39q-21 17 -50 17q-31 0 -51 -18.5t-36 -58.5l-221 -549q-28 -69 -62.5 -97t-87.5 -28z" />
    <glyph glyph-name="c_t" horiz-adv-x="877" 
d="M842 80l21 -48q-45 -42 -117 -42q-60 0 -96 33.5t-36 101.5v431q0 127 -88 127t-88 -113q0 -72 60 -194l-54 -26q-16 53 -54.5 81.5t-95.5 28.5q-84 0 -131.5 -56t-47.5 -154t47 -154t131 -56q61 0 103 30.5t55 84.5l52 -17q-20 -69 -75 -108.5t-133 -39.5
q-112 0 -174.5 69t-62.5 191t63 191t175 69q66 0 109 -28q-19 44 -19 95q0 79 40 117t103 38q64 0 103 -38t39 -114v-80h188v-49h-188v-317q0 -91 85 -91q51 0 86 37z" />
    <glyph glyph-name="s_t" horiz-adv-x="832" 
d="M798 80l21 -48q-45 -42 -117 -42q-61 0 -97 33.5t-36 101.5v431q0 127 -89 127q-86 0 -86 -110q0 -80 59 -184l-48 -22q-31 93 -148 93q-58 0 -97 -26t-39 -63q0 -39 33 -60.5t117 -36.5q103 -18 145 -50t42 -91q0 -65 -55 -104t-148 -39q-75 0 -131.5 29.5t-79.5 86.5
l47 31q16 -48 61 -72.5t109 -24.5q66 0 103 25t37 65q0 35 -32 56t-113 35q-105 18 -148.5 51.5t-43.5 92.5q0 61 53.5 103t139.5 42q64 0 107 -20q-23 46 -23 83q0 79 39 119t104 40q64 0 103 -38t39 -114v-80h188v-49h-188v-317q0 -44 22.5 -67.5t63.5 -23.5q51 0 86 37z
" />
    <glyph glyph-name="longs_i" horiz-adv-x="469" 
d="M86 0v587q0 148 121 148q38 0 60 -19l-7 -51q-18 18 -44 18q-73 0 -73 -101v-582h-57zM351 597q-21 0 -34 12.5t-13 33.5t13 33.5t34 12.5q20 0 33 -12.5t13 -33.5t-13 -33.5t-33 -12.5zM379 500v-500h-57v500h57z" />
    <glyph glyph-name="longs_l" horiz-adv-x="523" 
d="M86 0v587q0 148 126 148q50 0 72 -24l-12 -46q-19 18 -50 18q-79 0 -79 -101v-582h-57zM385 730v-606q0 -44 14 -62t47 -18t67 14l-8 -55q-29 -13 -68 -13q-109 0 -109 128v612h57z" />
    <glyph glyph-name="longs_s" horiz-adv-x="741" 
d="M86 0v587q0 148 126 148q50 0 72 -24l-12 -46q-19 18 -50 18q-79 0 -79 -101v-582h-57zM487 -10q-75 0 -131.5 29.5t-79.5 86.5l47 31q16 -48 61 -72.5t109 -24.5q66 0 103 25t37 65q0 35 -32 56t-113 35q-106 19 -149 51.5t-43 92.5q0 61 53.5 103t139.5 42
q157 0 193 -122l-48 -28q-30 100 -145 100q-58 0 -97 -26t-39 -63q0 -39 33 -61t117 -36q102 -17 144.5 -49.5t42.5 -91.5q0 -65 -55 -104t-148 -39z" />
    <glyph glyph-name="fl.ss02" horiz-adv-x="609" 
d="M282 683q-48 0 -74 -26.5t-26 -77.5v-79h174v-49h-174v-451h-57v451h-100v49h100v84q0 70 39.5 110.5t113.5 40.5q54 0 82 -26l-16 -46q-24 20 -62 20zM460 730h57v-730h-57v730z" />
    <glyph glyph-name="longs_l.ss02" horiz-adv-x="478" 
d="M86 0v587q0 148 126 148q50 0 72 -24l-12 -46q-19 18 -50 18q-79 0 -79 -101v-582h-57zM385 730v-730h-57v730h57z" />
    <glyph glyph-name="Gcommaaccent.sc" horiz-adv-x="632" 
d="M322 278h246v-278h-46l-2 101q-50 -109 -197 -109q-121 0 -193.5 77.5t-72.5 210.5q0 132 74.5 210t197.5 78q176 0 235 -138l-51 -28q-41 117 -184 117q-96 0 -155.5 -64.5t-59.5 -174.5q0 -112 56.5 -175.5t157.5 -63.5q90 0 138 50.5t48 124.5v15h-192v47zM267 -234
l46 161h60l-61 -161h-45z" />
    <glyph glyph-name="Kcommaaccent.sc" horiz-adv-x="558" 
d="M304 332l233 -332h-71l-205 295l-111 -109v-186h-57v560h57v-306l309 306h71zM228 -234l46 161h60l-61 -161h-45z" />
    <glyph glyph-name="Lcommaaccent.sc" horiz-adv-x="551" 
d="M150 49h345v-49h-402v560h57v-511zM234 -234l46 161h60l-61 -161h-45z" />
    <glyph glyph-name="Ncommaaccent.sc" horiz-adv-x="646" 
d="M553 560v-560h-76l-291 433l-40 67h-1l3 -63v-437h-55v560h76l288 -429l43 -71h1l-3 63v437h55zM358 -73l-61 -161h-45l46 161h60z" />
    <glyph glyph-name="Rcommaaccent.sc" horiz-adv-x="581" 
d="M378 243l166 -243h-66l-161 237h-167v-237h-57v560h225q90 0 142.5 -43t52.5 -118q0 -62 -35.5 -102.5t-99.5 -53.5zM150 511v-225h166q68 0 104 28.5t36 83.5t-36 84t-104 29h-166zM237 -234l46 161h60l-61 -161h-45z" />
    <glyph glyph-name="Scedilla.sc" horiz-adv-x="560" 
d="M511 146q0 -63 -51.5 -104t-137.5 -49q64 -42 64 -105q0 -41 -29 -69.5t-77 -28.5q-68 0 -104 37l22 40q28 -34 75 -34q27 0 45 17.5t18 44.5q0 30 -18 51.5t-67 46.5q-160 14 -209 128l44 38q19 -58 71.5 -88t130.5 -30q74 0 120 27.5t46 75.5q0 43 -40.5 66.5t-98 33.5
t-115 22t-98 46.5t-40.5 93.5q0 69 59 115.5t159 46.5q164 0 225 -121l-44 -37q-24 57 -67 83t-113 26q-74 0 -118 -30.5t-44 -77.5q0 -37 29 -60.5t72.5 -32t94.5 -20t94.5 -24.5t72.5 -45.5t29 -82.5z" />
    <glyph glyph-name="Scommaaccent.sc" horiz-adv-x="560" 
d="M280 568q164 0 225 -121l-44 -37q-24 57 -67 83t-113 26q-74 0 -118 -30.5t-44 -77.5q0 -37 29 -60.5t72.5 -32t94.5 -20t94.5 -24.5t72.5 -45.5t29 -82.5q0 -70 -61.5 -112t-161.5 -42q-94 0 -157 33.5t-89 95.5l44 38q19 -58 71.5 -88t130.5 -30q74 0 120 27.5t46 75.5
q0 43 -40.5 66.5t-98 33.5t-115 22t-98 46.5t-40.5 93.5q0 69 59 115.5t159 46.5zM326 -73l-61 -161h-45l46 161h60z" />
    <glyph glyph-name="uni0162.sc" horiz-adv-x="528" 
d="M504 511h-211v-504q75 -50 75 -119q0 -41 -29.5 -69.5t-77.5 -28.5q-66 0 -104 38l23 39q28 -34 74 -34q28 0 45.5 17.5t17.5 45.5q0 30 -18 52t-63 52v511h-212v49h480v-49z" />
    <glyph glyph-name="uni021A.sc" horiz-adv-x="528" 
d="M504 560v-49h-211v-511h-57v511h-212v49h480zM186 -234l46 161h60l-61 -161h-45z" />
    <glyph glyph-name="a.sc" horiz-adv-x="569" 
d="M490 0l-69 169h-272l-69 -169h-60l231 560h67l232 -560h-60zM169 218h231l-94 229l-21 61h-1l-21 -61z" />
    <glyph glyph-name="aacute.sc" horiz-adv-x="569" 
d="M387 791l-83 -148h-47l64 148h66zM490 0l-69 169h-272l-69 -169h-60l231 560h67l232 -560h-60zM169 218h231l-94 229l-21 61h-1l-21 -61z" />
    <glyph glyph-name="abreve.sc" horiz-adv-x="569" 
d="M285 638q-63 0 -100.5 38t-37.5 101h47q0 -41 25.5 -68t65.5 -27t65.5 27t25.5 68h47q0 -63 -38 -101t-100 -38zM490 0l-69 169h-272l-69 -169h-60l231 560h67l232 -560h-60zM169 218h231l-94 229l-21 61h-1l-21 -61z" />
    <glyph glyph-name="acircumflex.sc" horiz-adv-x="569" 
d="M284 758l-92 -120h-53l113 158h64l113 -158h-53zM490 0l-69 169h-272l-69 -169h-60l231 560h67l232 -560h-60zM169 218h231l-94 229l-21 61h-1l-21 -61z" />
    <glyph glyph-name="adieresis.sc" horiz-adv-x="569" 
d="M189 648q-20 0 -32.5 12t-12.5 32t12.5 32.5t32.5 12.5t32 -12.5t12 -32.5t-12.5 -32t-31.5 -12zM379 648q-19 0 -31.5 12t-12.5 32t12 32.5t32 12.5t32.5 -12.5t12.5 -32.5t-12.5 -32t-32.5 -12zM490 0l-69 169h-272l-69 -169h-60l231 560h67l232 -560h-60zM169 218h231
l-94 229l-21 61h-1l-21 -61z" />
    <glyph glyph-name="agrave.sc" horiz-adv-x="569" 
d="M305 643h-47l-83 148h66zM490 0l-69 169h-272l-69 -169h-60l231 560h67l232 -560h-60zM169 218h231l-94 229l-21 61h-1l-21 -61z" />
    <glyph glyph-name="amacron.sc" horiz-adv-x="569" 
d="M447 707v-48h-326v48h326zM490 0l-69 169h-272l-69 -169h-60l231 560h67l232 -560h-60zM169 218h231l-94 229l-21 61h-1l-21 -61z" />
    <glyph glyph-name="aogonek.sc" horiz-adv-x="569" 
d="M550 -153l12 -38q-28 -19 -78 -19q-49 0 -78.5 24.5t-29.5 69.5q0 82 109 127l-64 158h-272l-69 -169h-60l231 560h67l232 -560q-71 -25 -99 -52t-28 -60q0 -27 18.5 -42t48.5 -15q37 0 60 16zM169 218h231l-94 229l-21 61h-1l-21 -61z" />
    <glyph glyph-name="aring.sc" horiz-adv-x="569" 
d="M490 0l-69 169h-272l-69 -169h-60l220 534q-62 24 -62 94q0 44 30 72t77 28q48 0 77 -28t29 -72q0 -71 -62 -94l221 -534h-60zM219 628q0 -28 18.5 -46.5t46.5 -18.5q29 0 47.5 18t18.5 47q0 28 -18.5 46t-47.5 18q-28 0 -46.5 -18t-18.5 -46zM169 218h231l-94 229
l-21 61h-1l-21 -61z" />
    <glyph glyph-name="atilde.sc" horiz-adv-x="569" 
d="M213 717q-25 0 -37 -17t-19 -52h-46q12 116 103 116q32 0 56 -17t43.5 -34.5t40.5 -17.5q25 0 38 17.5t19 52.5h45q-12 -116 -102 -116q-32 0 -56.5 17t-44 34t-40.5 17zM490 0l-69 169h-272l-69 -169h-60l231 560h67l232 -560h-60zM169 218h231l-94 229l-21 61h-1
l-21 -61z" />
    <glyph glyph-name="ae.sc" horiz-adv-x="797" 
d="M422 49h336v-49h-391v193h-202l-109 -193h-58l320 560h426v-49h-322v-203h251v-49h-251v-210zM193 242h174v269h-21z" />
    <glyph glyph-name="b.sc" horiz-adv-x="575" 
d="M93 0v560h217q192 0 192 -149q0 -49 -28 -83t-78 -44v-1q59 -7 91 -43.5t32 -89.5q0 -72 -53.5 -111t-154.5 -39h-218zM150 306h164q131 0 131 103q0 102 -131 102h-164v-205zM150 49h169q143 0 143 104q0 105 -143 105h-169v-209z" />
    <glyph glyph-name="c.sc" horiz-adv-x="601" 
d="M564 147q-20 -75 -84 -115t-157 -40q-120 0 -193 78t-73 210q0 133 73 210.5t195 77.5q185 0 232 -150l-55 -24q-17 64 -60 94.5t-118 30.5q-95 0 -152.5 -64t-57.5 -175q0 -110 58 -174.5t150 -64.5q158 0 188 125z" />
    <glyph glyph-name="cacute.sc" horiz-adv-x="601" 
d="M359 791h66l-83 -148h-47zM564 147q-20 -75 -84 -115t-157 -40q-120 0 -193 78t-73 210q0 133 73 210.5t195 77.5q185 0 232 -150l-55 -24q-17 64 -60 94.5t-118 30.5q-95 0 -152.5 -64t-57.5 -175q0 -110 58 -174.5t150 -64.5q158 0 188 125z" />
    <glyph glyph-name="ccaron.sc" horiz-adv-x="601" 
d="M467 798l-113 -158h-64l-113 158h53l92 -120l92 120h53zM564 147q-20 -75 -84 -115t-157 -40q-120 0 -193 78t-73 210q0 133 73 210.5t195 77.5q185 0 232 -150l-55 -24q-17 64 -60 94.5t-118 30.5q-95 0 -152.5 -64t-57.5 -175q0 -110 58 -174.5t150 -64.5
q158 0 188 125z" />
    <glyph glyph-name="ccedilla.sc" horiz-adv-x="601" 
d="M564 147q-18 -65 -69.5 -104.5t-127.5 -48.5q66 -42 66 -106q0 -41 -29 -69.5t-77 -28.5q-68 0 -104 37l22 40q28 -34 75 -34q27 0 45 17.5t18 44.5q0 29 -18 50.5t-66 47.5q-110 8 -176 85t-66 202q0 133 73 210.5t195 77.5q185 0 232 -150l-55 -24q-17 64 -60 94.5
t-118 30.5q-95 0 -152.5 -64t-57.5 -175q0 -110 58 -174.5t150 -64.5q158 0 188 125z" />
    <glyph glyph-name="d.sc" horiz-adv-x="634" 
d="M285 560q140 0 215.5 -71.5t75.5 -204.5q0 -138 -75 -211t-216 -73h-192v560h192zM289 49q112 0 171 60.5t59 174.5q0 110 -59 168.5t-171 58.5h-139v-462h139z" />
    <glyph glyph-name="eth.sc" horiz-adv-x="646" 
d="M301 560q140 0 215.5 -71.5t75.5 -204.5q0 -138 -75 -211t-216 -73h-192v261h-91v42h91v257h192zM305 49q112 0 171 60.5t59 174.5q0 110 -59 168.5t-171 58.5h-139v-208h168v-42h-168v-212h139z" />
    <glyph glyph-name="dcaron.sc" horiz-adv-x="634" 
d="M319 640h-64l-113 158h53l92 -120l92 120h53zM285 560q140 0 215.5 -71.5t75.5 -204.5q0 -138 -75 -211t-216 -73h-192v560h192zM289 49q112 0 171 60.5t59 174.5q0 110 -59 168.5t-171 58.5h-139v-462h139z" />
    <glyph glyph-name="dcroat.sc" horiz-adv-x="646" 
d="M301 560q140 0 215.5 -71.5t75.5 -204.5q0 -138 -75 -211t-216 -73h-192v261h-91v42h91v257h192zM305 49q112 0 171 60.5t59 174.5q0 110 -59 168.5t-171 58.5h-139v-208h168v-42h-168v-212h139z" />
    <glyph glyph-name="e.sc" horiz-adv-x="553" 
d="M150 49h364v-49h-421v560h407v-49h-350v-202h276v-49h-276v-211z" />
    <glyph glyph-name="eacute.sc" horiz-adv-x="553" 
d="M395 791l-84 -148h-47l64 148h67zM150 49h364v-49h-421v560h407v-49h-350v-202h276v-49h-276v-211z" />
    <glyph glyph-name="ecaron.sc" horiz-adv-x="553" 
d="M323 640h-64l-113 158h53l92 -120l92 120h53zM150 49h364v-49h-421v560h407v-49h-350v-202h276v-49h-276v-211z" />
    <glyph glyph-name="ecircumflex.sc" horiz-adv-x="553" 
d="M291 758l-92 -120h-53l113 158h64l113 -158h-53zM150 49h364v-49h-421v560h407v-49h-350v-202h276v-49h-276v-211z" />
    <glyph glyph-name="edieresis.sc" horiz-adv-x="553" 
d="M196 648q-20 0 -32.5 12t-12.5 32t12.5 32.5t32.5 12.5t32 -12.5t12 -32.5t-12 -32t-32 -12zM386 648q-20 0 -32 12t-12 32t12 32.5t32 12.5t32.5 -12.5t12.5 -32.5t-12.5 -32t-32.5 -12zM150 49h364v-49h-421v560h407v-49h-350v-202h276v-49h-276v-211z" />
    <glyph glyph-name="edotaccent.sc" horiz-adv-x="553" 
d="M291 657q-21 0 -33.5 12.5t-12.5 33.5t12.5 33.5t33.5 12.5t33.5 -12.5t12.5 -33.5t-12.5 -33.5t-33.5 -12.5zM150 49h364v-49h-421v560h407v-49h-350v-202h276v-49h-276v-211z" />
    <glyph glyph-name="egrave.sc" horiz-adv-x="553" 
d="M322 643h-47l-83 148h66zM150 49h364v-49h-421v560h407v-49h-350v-202h276v-49h-276v-211z" />
    <glyph glyph-name="emacron.sc" horiz-adv-x="553" 
d="M454 707v-48h-326v48h326zM150 49h364v-49h-421v560h407v-49h-350v-202h276v-49h-276v-211z" />
    <glyph glyph-name="eogonek.sc" horiz-adv-x="553" 
d="M514 -153l12 -38q-29 -19 -78 -19t-78.5 24t-29.5 66t24 70.5t75 49.5h-346v560h407v-49h-350v-202h276v-49h-276v-211h364v-49q-71 -25 -99 -52t-28 -60q0 -27 18.5 -42t48.5 -15q37 0 60 16z" />
    <glyph glyph-name="f.sc" horiz-adv-x="530" 
d="M500 511h-350v-202h276v-49h-276v-260h-57v560h407v-49z" />
    <glyph glyph-name="g.sc" horiz-adv-x="632" 
d="M322 278h246v-278h-46l-2 101q-50 -109 -197 -109q-121 0 -193.5 77.5t-72.5 210.5q0 132 74.5 210t197.5 78q176 0 235 -138l-51 -28q-41 117 -184 117q-96 0 -155.5 -64.5t-59.5 -174.5q0 -112 56.5 -175.5t157.5 -63.5q90 0 138 50.5t48 124.5v15h-192v47z" />
    <glyph glyph-name="gbreve.sc" horiz-adv-x="632" 
d="M328 638q-63 0 -100.5 38t-37.5 101h47q0 -41 25.5 -68t65.5 -27t65.5 27t25.5 68h47q0 -63 -38 -101t-100 -38zM322 278h246v-278h-46l-2 101q-50 -109 -197 -109q-121 0 -193.5 77.5t-72.5 210.5q0 132 74.5 210t197.5 78q176 0 235 -138l-51 -28q-41 117 -184 117
q-96 0 -155.5 -64.5t-59.5 -174.5q0 -112 56.5 -175.5t157.5 -63.5q90 0 138 50.5t48 124.5v15h-192v47z" />
    <glyph glyph-name="h.sc" horiz-adv-x="646" 
d="M496 560h57v-560h-57v260h-346v-260h-57v560h57v-251h346v251z" />
    <glyph glyph-name="i.sc" horiz-adv-x="242" 
d="M150 560v-560h-57v560h57z" />
    <glyph glyph-name="iacute.sc" horiz-adv-x="242" 
d="M158 791h66l-83 -148h-47zM150 560v-560h-57v560h57z" />
    <glyph glyph-name="iacute_j.loclNLD.sc" horiz-adv-x="733" 
d="M159 791h66l-83 -148h-47zM656 791h66l-83 -148h-47zM150 560v-560h-57v560h57zM647 560v-370q0 -93 -51 -145.5t-143 -52.5q-97 0 -142.5 52t-29.5 140l54 12q-23 -155 118 -155q137 0 137 158v361h57z" />
    <glyph glyph-name="icircumflex.sc" horiz-adv-x="242" 
d="M266 638h-53l-92 120l-92 -120h-53l113 158h64zM150 560v-560h-57v560h57z" />
    <glyph glyph-name="idieresis.sc" horiz-adv-x="242" 
d="M51 737q20 0 32.5 -12.5t12.5 -32.5t-12.5 -32t-32.5 -12q-19 0 -31.5 12t-12.5 32t12 32.5t32 12.5zM191 737q20 0 32 -12.5t12 -32.5t-12.5 -32t-31.5 -12q-20 0 -32 12t-12 32t12 32.5t32 12.5zM150 560v-560h-57v560h57z" />
    <glyph glyph-name="i.sc.loclTRK" horiz-adv-x="242" 
d="M121 713q21 0 33.5 -13t12.5 -34q0 -20 -12.5 -33t-33.5 -13t-33.5 13t-12.5 33q0 21 12.5 34t33.5 13zM150 560v-560h-57v560h57z" />
    <glyph glyph-name="igrave.sc" horiz-adv-x="242" 
d="M78 791l64 -148h-47l-83 148h66zM150 560v-560h-57v560h57z" />
    <glyph glyph-name="ij.sc" horiz-adv-x="733" 
d="M150 560v-560h-57v560h57zM647 560v-370q0 -93 -51 -145.5t-143 -52.5q-97 0 -142.5 52t-29.5 140l54 12q-23 -155 118 -155q137 0 137 158v361h57z" />
    <glyph glyph-name="imacron.sc" horiz-adv-x="242" 
d="M219 707v-48h-196v48h196zM150 560v-560h-57v560h57z" />
    <glyph glyph-name="iogonek.sc" horiz-adv-x="242" 
d="M167 -151l15 -37q-32 -22 -78 -22t-75.5 25t-29.5 67q0 73 94 123v555h57v-560h-1q-58 -32 -80.5 -57t-22.5 -52q0 -28 17 -43.5t46 -15.5q35 0 58 17z" />
    <glyph glyph-name="j.sc" horiz-adv-x="490" 
d="M405 560v-370q0 -93 -51 -145.5t-143 -52.5q-97 0 -142.5 52t-29.5 140l54 12q-23 -155 118 -155q137 0 137 158v361h57z" />
    <glyph glyph-name="k.sc" horiz-adv-x="558" 
d="M466 0l-205 295l-111 -109v-186h-57v560h57v-306l309 306h71l-226 -228l233 -332h-71z" />
    <glyph glyph-name="l.sc" horiz-adv-x="551" 
d="M150 49h345v-49h-402v560h57v-511z" />
    <glyph glyph-name="lacute.sc" horiz-adv-x="551" 
d="M229 791l-83 -148h-47l64 148h66zM150 49h345v-49h-402v560h57v-511z" />
    <glyph glyph-name="lcaron.sc" horiz-adv-x="551" 
d="M150 49h345v-49h-402v560h57v-511zM319 560l-37 -197h-40l22 197h55z" />
    <glyph glyph-name="ldot.sc" horiz-adv-x="552" 
d="M150 560v-511h345v-49h-402v560h57zM454 246q-22 0 -36 13.5t-14 35.5q0 23 14 36.5t36 13.5t35.5 -14t13.5 -36t-13.5 -35.5t-35.5 -13.5z" />
    <glyph glyph-name="lslash.sc" horiz-adv-x="528" 
d="M161 49h345v-49h-402v221l-96 -53v53l96 53v286h57v-255l165 91v-52l-165 -91v-204z" />
    <glyph glyph-name="m.sc" horiz-adv-x="747" 
d="M93 0v560h85l164 -411l31 -87h2l30 87l165 411h84v-560h-55v383l5 121h-1l-202 -504h-55l-202 504h-1l4 -121v-383h-54z" />
    <glyph glyph-name="n.sc" horiz-adv-x="646" 
d="M553 560v-560h-76l-291 433l-40 67h-1l3 -63v-437h-55v560h76l288 -429l43 -71h1l-3 63v437h55z" />
    <glyph glyph-name="nacute.sc" horiz-adv-x="646" 
d="M360 791h66l-83 -148h-47zM553 560v-560h-76l-291 433l-40 67h-1l3 -63v-437h-55v560h76l288 -429l43 -71h1l-3 63v437h55z" />
    <glyph glyph-name="ncaron.sc" horiz-adv-x="646" 
d="M469 798l-113 -158h-64l-113 158h53l92 -120l92 120h53zM553 560v-560h-76l-291 433l-40 67h-1l3 -63v-437h-55v560h76l288 -429l43 -71h1l-3 63v437h55z" />
    <glyph glyph-name="ntilde.sc" horiz-adv-x="646" 
d="M496 765q-12 -116 -102 -116q-32 0 -56.5 17t-44 34t-40.5 17q-25 0 -37 -17t-19 -52h-46q12 116 103 116q32 0 56 -17t43.5 -34.5t40.5 -17.5q25 0 38 17.5t19 52.5h45zM553 560v-560h-76l-291 433l-40 67h-1l3 -63v-437h-55v560h76l288 -429l43 -71h1l-3 63v437h55z
" />
    <glyph glyph-name="o.sc" horiz-adv-x="658" 
d="M329 568q126 0 199 -77.5t73 -210.5t-73 -210.5t-199 -77.5q-125 0 -198.5 77.5t-73.5 210.5t73.5 210.5t198.5 77.5zM329 519q-99 0 -157 -64t-58 -175t58 -175t157 -64t157 64t58 175t-58 175t-157 64z" />
    <glyph glyph-name="oacute.sc" horiz-adv-x="658" 
d="M366 791h66l-83 -148h-47zM329 568q126 0 199 -77.5t73 -210.5t-73 -210.5t-199 -77.5q-125 0 -198.5 77.5t-73.5 210.5t73.5 210.5t198.5 77.5zM329 519q-99 0 -157 -64t-58 -175t58 -175t157 -64t157 64t58 175t-58 175t-157 64z" />
    <glyph glyph-name="ocircumflex.sc" horiz-adv-x="658" 
d="M474 638h-53l-92 120l-92 -120h-53l113 158h64zM329 568q126 0 199 -77.5t73 -210.5t-73 -210.5t-199 -77.5q-125 0 -198.5 77.5t-73.5 210.5t73.5 210.5t198.5 77.5zM329 519q-99 0 -157 -64t-58 -175t58 -175t157 -64t157 64t58 175t-58 175t-157 64z" />
    <glyph glyph-name="odieresis.sc" horiz-adv-x="658" 
d="M234 737q20 0 32 -12.5t12 -32.5t-12 -32t-32 -12t-32.5 12t-12.5 32t12.5 32.5t32.5 12.5zM424 737q20 0 32.5 -12.5t12.5 -32.5t-12.5 -32t-32.5 -12t-32 12t-12 32t12 32.5t32 12.5zM329 568q126 0 199 -77.5t73 -210.5t-73 -210.5t-199 -77.5q-125 0 -198.5 77.5
t-73.5 210.5t73.5 210.5t198.5 77.5zM329 519q-99 0 -157 -64t-58 -175t58 -175t157 -64t157 64t58 175t-58 175t-157 64z" />
    <glyph glyph-name="ograve.sc" horiz-adv-x="658" 
d="M286 791l64 -148h-47l-83 148h66zM329 568q126 0 199 -77.5t73 -210.5t-73 -210.5t-199 -77.5q-125 0 -198.5 77.5t-73.5 210.5t73.5 210.5t198.5 77.5zM329 519q-99 0 -157 -64t-58 -175t58 -175t157 -64t157 64t58 175t-58 175t-157 64z" />
    <glyph glyph-name="ohungarumlaut.sc" horiz-adv-x="658" 
d="M287 791h66l-83 -148h-47zM432 791h67l-84 -148h-47zM329 568q126 0 199 -77.5t73 -210.5t-73 -210.5t-199 -77.5q-125 0 -198.5 77.5t-73.5 210.5t73.5 210.5t198.5 77.5zM329 519q-99 0 -157 -64t-58 -175t58 -175t157 -64t157 64t58 175t-58 175t-157 64z" />
    <glyph glyph-name="omacron.sc" horiz-adv-x="658" 
d="M492 707v-48h-326v48h326zM329 568q126 0 199 -77.5t73 -210.5t-73 -210.5t-199 -77.5q-125 0 -198.5 77.5t-73.5 210.5t73.5 210.5t198.5 77.5zM329 519q-99 0 -157 -64t-58 -175t58 -175t157 -64t157 64t58 175t-58 175t-157 64z" />
    <glyph glyph-name="oslash.sc" horiz-adv-x="658" 
d="M519 499q82 -77 82 -219q0 -133 -73 -210.5t-199 -77.5q-92 0 -158 43l-46 -63h-46l63 86q-85 79 -85 222q0 133 73.5 210.5t198.5 77.5q96 0 162 -46l44 59h45zM114 280q0 -114 61 -178l284 378q-55 39 -130 39q-99 0 -157 -64t-58 -175zM329 41q99 0 157 64t58 175
t-58 175l-283 -378q53 -36 126 -36z" />
    <glyph glyph-name="otilde.sc" horiz-adv-x="658" 
d="M501 765q-12 -116 -102 -116q-32 0 -56.5 17t-44 34t-40.5 17q-25 0 -37 -17t-19 -52h-46q12 116 103 116q32 0 56 -17t43.5 -34.5t40.5 -17.5q25 0 38 17.5t19 52.5h45zM329 568q126 0 199 -77.5t73 -210.5t-73 -210.5t-199 -77.5q-125 0 -198.5 77.5t-73.5 210.5
t73.5 210.5t198.5 77.5zM329 519q-99 0 -157 -64t-58 -175t58 -175t157 -64t157 64t58 175t-58 175t-157 64z" />
    <glyph glyph-name="oe.sc" horiz-adv-x="953" 
d="M572 49h341v-49h-389v97q-62 -105 -205 -105q-120 0 -191 77.5t-71 210.5t71 210.5t193 77.5q142 0 203 -104v96h375v-49h-327v-202h258v-49h-258v-211zM322 41q96 0 146.5 61t50.5 178t-50.5 178t-146.5 61t-152 -64t-56 -175t56 -175t152 -64z" />
    <glyph glyph-name="p.sc" horiz-adv-x="538" 
d="M297 560q93 0 147 -44.5t54 -123.5q0 -77 -54 -121t-147 -44h-147v-227h-57v560h204zM297 276q70 0 107 30t37 86q0 57 -37 88t-107 31h-147v-235h147z" />
    <glyph glyph-name="thorn.sc" horiz-adv-x="546" 
d="M286 456q107 0 161.5 -43t54.5 -126t-54.5 -126t-161.5 -43h-136v-118h-57v560h57v-104h136zM298 167q147 0 147 120q0 119 -147 119h-148v-239h148z" />
    <glyph glyph-name="q.sc" horiz-adv-x="658" 
d="M474 -117q63 0 100 35l18 -49q-43 -37 -119 -35q-74 0 -120 40t-50 119q-114 8 -180 84.5t-66 202.5q0 133 73.5 210.5t198.5 77.5q126 0 199 -77.5t73 -210.5q0 -127 -67.5 -204t-183.5 -83q9 -110 124 -110zM114 280q0 -111 58 -175t157 -64t157 64t58 175t-58 175
t-157 64t-157 -64t-58 -175z" />
    <glyph glyph-name="r.sc" horiz-adv-x="581" 
d="M478 0l-161 237h-167v-237h-57v560h225q90 0 142.5 -43t52.5 -118q0 -62 -35.5 -102.5t-99.5 -53.5l166 -243h-66zM150 511v-225h166q68 0 104 28.5t36 83.5t-36 84t-104 29h-166z" />
    <glyph glyph-name="racute.sc" horiz-adv-x="581" 
d="M382 791l-83 -148h-47l64 148h66zM478 0l-161 237h-167v-237h-57v560h225q90 0 142.5 -43t52.5 -118q0 -62 -35.5 -102.5t-99.5 -53.5l166 -243h-66zM150 511v-225h166q68 0 104 28.5t36 83.5t-36 84t-104 29h-166z" />
    <glyph glyph-name="rcaron.sc" horiz-adv-x="581" 
d="M312 640h-64l-113 158h53l92 -120l92 120h53zM478 0l-161 237h-167v-237h-57v560h225q90 0 142.5 -43t52.5 -118q0 -62 -35.5 -102.5t-99.5 -53.5l166 -243h-66zM150 511v-225h166q68 0 104 28.5t36 83.5t-36 84t-104 29h-166z" />
    <glyph glyph-name="s.sc" horiz-adv-x="560" 
d="M280 568q164 0 225 -121l-44 -37q-24 57 -67 83t-113 26q-74 0 -118 -30.5t-44 -77.5q0 -37 29 -60.5t72.5 -32t94.5 -20t94.5 -24.5t72.5 -45.5t29 -82.5q0 -70 -61.5 -112t-161.5 -42q-94 0 -157 33.5t-89 95.5l44 38q19 -58 71.5 -88t130.5 -30q74 0 120 27.5t46 75.5
q0 43 -40.5 66.5t-98 33.5t-115 22t-98 46.5t-40.5 93.5q0 69 59 115.5t159 46.5z" />
    <glyph glyph-name="sacute.sc" horiz-adv-x="560" 
d="M317 791h66l-83 -148h-47zM280 568q164 0 225 -121l-44 -37q-24 57 -67 83t-113 26q-74 0 -118 -30.5t-44 -77.5q0 -37 29 -60.5t72.5 -32t94.5 -20t94.5 -24.5t72.5 -45.5t29 -82.5q0 -70 -61.5 -112t-161.5 -42q-94 0 -157 33.5t-89 95.5l44 38q19 -58 71.5 -88
t130.5 -30q74 0 120 27.5t46 75.5q0 43 -40.5 66.5t-98 33.5t-115 22t-98 46.5t-40.5 93.5q0 69 59 115.5t159 46.5z" />
    <glyph glyph-name="scaron.sc" horiz-adv-x="560" 
d="M426 798l-113 -158h-64l-113 158h53l92 -120l92 120h53zM280 568q164 0 225 -121l-44 -37q-24 57 -67 83t-113 26q-74 0 -118 -30.5t-44 -77.5q0 -37 29 -60.5t72.5 -32t94.5 -20t94.5 -24.5t72.5 -45.5t29 -82.5q0 -70 -61.5 -112t-161.5 -42q-94 0 -157 33.5t-89 95.5
l44 38q19 -58 71.5 -88t130.5 -30q74 0 120 27.5t46 75.5q0 43 -40.5 66.5t-98 33.5t-115 22t-98 46.5t-40.5 93.5q0 69 59 115.5t159 46.5z" />
    <glyph glyph-name="germandbls.sc" horiz-adv-x="605" 
d="M391 304q82 0 128.5 -38.5t46.5 -112.5q0 -72 -48.5 -114.5t-128.5 -42.5q-101 0 -146 52l26 43q44 -46 114 -46q57 0 91.5 29.5t34.5 79.5q0 57 -34 81.5t-99 24.5h-85v44l177 207h-174q-64 0 -104 -39.5t-40 -102.5v-369h-57v372q0 85 54.5 136.5t143.5 51.5h240v-50
l-181 -206h41z" />
    <glyph glyph-name="t.sc" horiz-adv-x="528" 
d="M504 560v-49h-211v-511h-57v511h-212v49h480z" />
    <glyph glyph-name="tcaron.sc" horiz-adv-x="528" 
d="M296 640h-64l-113 158h53l92 -120l92 120h53zM504 560v-49h-211v-511h-57v511h-212v49h480z" />
    <glyph glyph-name="u.sc" horiz-adv-x="632" 
d="M546 560v-352q0 -106 -59.5 -161t-170.5 -55t-170.5 55t-59.5 161v352h57v-345q0 -174 173 -174t173 174v345h57z" />
    <glyph glyph-name="uacute.sc" horiz-adv-x="632" 
d="M352 791h66l-83 -148h-47zM546 560v-352q0 -106 -59.5 -161t-170.5 -55t-170.5 55t-59.5 161v352h57v-345q0 -174 173 -174t173 174v345h57z" />
    <glyph glyph-name="ucircumflex.sc" horiz-adv-x="632" 
d="M461 638h-53l-92 120l-92 -120h-53l113 158h64zM546 560v-352q0 -106 -59.5 -161t-170.5 -55t-170.5 55t-59.5 161v352h57v-345q0 -174 173 -174t173 174v345h57z" />
    <glyph glyph-name="udieresis.sc" horiz-adv-x="632" 
d="M221 737q20 0 32 -12.5t12 -32.5t-12.5 -32t-31.5 -12q-20 0 -32.5 12t-12.5 32t12.5 32.5t32.5 12.5zM411 737q20 0 32.5 -12.5t12.5 -32.5t-12.5 -32t-32.5 -12q-19 0 -31.5 12t-12.5 32t12 32.5t32 12.5zM546 560v-352q0 -106 -59.5 -161t-170.5 -55t-170.5 55
t-59.5 161v352h57v-345q0 -174 173 -174t173 174v345h57z" />
    <glyph glyph-name="ugrave.sc" horiz-adv-x="632" 
d="M273 791l64 -148h-47l-83 148h66zM546 560v-352q0 -106 -59.5 -161t-170.5 -55t-170.5 55t-59.5 161v352h57v-345q0 -174 173 -174t173 174v345h57z" />
    <glyph glyph-name="uhungarumlaut.sc" horiz-adv-x="632" 
d="M275 791h67l-83 -148h-47zM420 791h67l-83 -148h-47zM546 560v-352q0 -106 -59.5 -161t-170.5 -55t-170.5 55t-59.5 161v352h57v-345q0 -174 173 -174t173 174v345h57z" />
    <glyph glyph-name="umacron.sc" horiz-adv-x="632" 
d="M479 707v-48h-326v48h326zM546 560v-352q0 -106 -59.5 -161t-170.5 -55t-170.5 55t-59.5 161v352h57v-345q0 -174 173 -174t173 174v345h57z" />
    <glyph glyph-name="uogonek.sc" horiz-adv-x="632" 
d="M489 560h57v-352q0 -86 -39.5 -138.5t-114.5 -69.5q-114 -55 -114 -115q0 -27 18.5 -42t48.5 -15q38 0 61 15l12 -37q-29 -19 -79 -19q-48 0 -78 24.5t-30 66.5q0 69 76 114q-107 2 -164 57.5t-57 158.5v352h57v-345q0 -174 173 -174t173 174v345z" />
    <glyph glyph-name="uring.sc" horiz-adv-x="632" 
d="M316 748q49 0 79.5 -29t30.5 -75q0 -47 -30.5 -76t-79.5 -29q-48 0 -79 29.5t-31 75.5t31 75t79 29zM316 712q-29 0 -49 -19.5t-20 -48.5t20 -48.5t49 -19.5q30 0 50 19.5t20 48.5t-20 48.5t-50 19.5zM546 560v-352q0 -106 -59.5 -161t-170.5 -55t-170.5 55t-59.5 161
v352h57v-345q0 -174 173 -174t173 174v345h57z" />
    <glyph glyph-name="v.sc" horiz-adv-x="561" 
d="M539 560l-225 -560h-66l-226 560h61l167 -421l31 -89l31 88l167 422h60z" />
    <glyph glyph-name="w.sc" horiz-adv-x="847" 
d="M423 508l-35 -133l-109 -375h-72l-178 560h59l104 -340l53 -171l147 511h65l147 -512l54 174l103 338h57l-178 -560h-71l-110 375l-35 133h-1z" />
    <glyph glyph-name="x.sc" horiz-adv-x="518" 
d="M495 0h-67l-170 246l-173 -246h-69l209 289l-190 271h68l158 -228l160 228h66l-194 -271z" />
    <glyph glyph-name="y.sc" horiz-adv-x="502" 
d="M487 560l-208 -344v-216h-57v216l-208 344h66l110 -189l61 -106l61 106l111 189h64z" />
    <glyph glyph-name="yacute.sc" horiz-adv-x="502" 
d="M287 791h66l-83 -148h-47zM487 560l-208 -344v-216h-57v216l-208 344h66l110 -189l61 -106l61 106l111 189h64z" />
    <glyph glyph-name="ydieresis.sc" horiz-adv-x="502" 
d="M156 737q20 0 32 -12.5t12 -32.5t-12 -32t-32 -12t-32.5 12t-12.5 32t12.5 32.5t32.5 12.5zM346 737q20 0 32.5 -12.5t12.5 -32.5t-12.5 -32t-32.5 -12t-32 12t-12 32t12 32.5t32 12.5zM487 560l-208 -344v-216h-57v216l-208 344h66l110 -189l61 -106l61 106l111 189h64z
" />
    <glyph glyph-name="z.sc" horiz-adv-x="540" 
d="M102 49h399v-49h-459v46l337 413l47 52h-383v49h443v-48l-322 -395z" />
    <glyph glyph-name="zacute.sc" horiz-adv-x="540" 
d="M369 791l-83 -148h-47l64 148h66zM102 49h399v-49h-459v46l337 413l47 52h-383v49h443v-48l-322 -395z" />
    <glyph glyph-name="zcaron.sc" horiz-adv-x="540" 
d="M302 640h-64l-113 158h53l92 -120l92 120h53zM102 49h399v-49h-459v46l337 413l47 52h-383v49h443v-48l-322 -395z" />
    <glyph glyph-name="zdotaccent.sc" horiz-adv-x="540" 
d="M266 657q-21 0 -33.5 12.5t-12.5 33.5t12.5 33.5t33.5 12.5t33.5 -12.5t12.5 -33.5t-12.5 -33.5t-33.5 -12.5zM102 49h399v-49h-459v46l337 413l47 52h-383v49h443v-48l-322 -395z" />
    <glyph glyph-name="Rcommaaccent.sc.ss03" horiz-adv-x="576" 
d="M93 0v560h225q90 0 142.5 -43t52.5 -118q0 -58 -33 -94.5t-92 -48.5v-1q103 -16 108 -116q5 -105 26 -136v-3h-61q-15 34 -21 132q-5 105 -139 105h-151v-237h-57zM150 286h164q69 0 105.5 28.5t36.5 83.5t-36.5 84t-105.5 29h-164v-225zM339 -73l-61 -161h-45l46 161h60
z" />
    <glyph glyph-name="r.sc.ss03" horiz-adv-x="576" 
d="M93 0v560h225q90 0 142.5 -43t52.5 -118q0 -58 -33 -94.5t-92 -48.5v-1q103 -16 108 -116q5 -105 26 -136v-3h-61q-15 34 -21 132q-5 105 -139 105h-151v-237h-57zM150 286h164q69 0 105.5 28.5t36.5 83.5t-36.5 84t-105.5 29h-164v-225z" />
    <glyph glyph-name="racute.sc.ss03" horiz-adv-x="576" 
d="M325 803h62l-95 -160h-47zM93 0v560h225q90 0 142.5 -43t52.5 -118q0 -58 -33 -94.5t-92 -48.5v-1q103 -16 108 -116q5 -105 26 -136v-3h-61q-15 34 -21 132q-5 105 -139 105h-151v-237h-57zM150 286h164q69 0 105.5 28.5t36.5 83.5t-36.5 84t-105.5 29h-164v-225z" />
    <glyph glyph-name="rcaron.sc.ss03" horiz-adv-x="576" 
d="M423 801l-110 -158h-66l-110 158h53l90 -117l90 117h53zM93 0v560h225q90 0 142.5 -43t52.5 -118q0 -58 -33 -94.5t-92 -48.5v-1q103 -16 108 -116q5 -105 26 -136v-3h-61q-15 34 -21 132q-5 105 -139 105h-151v-237h-57zM150 286h164q69 0 105.5 28.5t36.5 83.5
t-36.5 84t-105.5 29h-164v-225z" />
    <glyph glyph-name="Gcommaaccent.sc.ss04" horiz-adv-x="623" 
d="M323 278h252v-26q0 -120 -62.5 -190t-187.5 -70q-123 0 -195.5 77.5t-72.5 210.5t74 210.5t196 77.5q177 0 235 -138l-52 -26q-39 115 -183 115q-96 0 -154.5 -64t-58.5 -175q0 -113 57 -176t159 -63q54 0 93.5 17.5t60 47t29.5 60t9 63.5v2h-199v47zM258 -234l46 161h60
l-61 -161h-45z" />
    <glyph glyph-name="g.sc.ss04" horiz-adv-x="623" 
d="M323 278h252v-26q0 -120 -62.5 -190t-187.5 -70q-123 0 -195.5 77.5t-72.5 210.5t74 210.5t196 77.5q177 0 235 -138l-52 -26q-39 115 -183 115q-96 0 -154.5 -64t-58.5 -175q0 -113 57 -176t159 -63q54 0 93.5 17.5t60 47t29.5 60t9 63.5v2h-199v47z" />
    <glyph glyph-name="gbreve.sc.ss04" horiz-adv-x="623" 
d="M324 638q-63 0 -100.5 38t-37.5 101h47q0 -41 25.5 -68t65.5 -27t65.5 27t25.5 68h47q0 -63 -38 -101t-100 -38zM323 278h252v-26q0 -120 -62.5 -190t-187.5 -70q-123 0 -195.5 77.5t-72.5 210.5t74 210.5t196 77.5q177 0 235 -138l-52 -26q-39 115 -183 115
q-96 0 -154.5 -64t-58.5 -175q0 -113 57 -176t159 -63q54 0 93.5 17.5t60 47t29.5 60t9 63.5v2h-199v47z" />
    <glyph glyph-name="iacute_j.loclNLD.sc.ss05" horiz-adv-x="542" 
d="M157 791h67l-83 -148h-48zM466 791h67l-83 -148h-47zM457 560v-370q0 -94 -50.5 -146t-140.5 -52q-97 0 -142 42t-39 122h57q-4 -57 28 -86t96 -29q65 0 99.5 40t34.5 116v363h57zM143 560v-325h-57v325h57z" />
    <glyph glyph-name="ij.sc.ss05" horiz-adv-x="543" 
d="M457 560v-370q0 -94 -50.5 -146t-140.5 -52q-97 0 -142 42t-39 122h57q-4 -57 28 -86t96 -29q65 0 99.5 40t34.5 116v363h57zM143 560v-325h-57v325h57z" />
    <glyph glyph-name="zero.osf" horiz-adv-x="588" 
d="M294 570q115 0 174.5 -74.5t59.5 -215.5t-59.5 -215.5t-174.5 -74.5t-175 74.5t-60 215.5t60 215.5t175 74.5zM294 521q-87 0 -132.5 -61.5t-45.5 -179.5t45.5 -179.5t132.5 -61.5q86 0 131.5 61.5t45.5 179.5t-45.5 179.5t-131.5 61.5z" />
    <glyph glyph-name="one.osf" horiz-adv-x="356" 
d="M213 560h51v-560h-57v422q0 43 1 66q-64 -72 -167 -100l-14 47q51 15 106 49.5t80 75.5z" />
    <glyph glyph-name="two.osf" horiz-adv-x="532" 
d="M262 570q96 0 151 -49.5t55 -140.5q0 -96 -71 -167t-210 -146q-16 -9 -44 -20v-2q44 4 70 4h280v-49h-437v51q91 45 146.5 77t108 73t76.5 85t24 96q0 69 -42 104t-106 35q-73 0 -118.5 -48.5t-38.5 -126.5l-50 24q-2 89 55 144.5t151 55.5z" />
    <glyph glyph-name="three.osf" horiz-adv-x="529" 
d="M252 570q95 0 147.5 -49t52.5 -125q0 -68 -32 -110t-93 -52v-1q68 -4 104.5 -47t36.5 -108q0 -84 -61.5 -136t-159.5 -52q-171 0 -225 155l51 29q37 -135 178 -135q73 0 116.5 39t43.5 103q0 128 -160 128h-35v48h35q69 0 106.5 35.5t37.5 95.5q0 66 -37 99.5t-105 33.5
q-60 0 -100 -30.5t-55 -84.5l-52 25q23 64 78.5 101.5t127.5 37.5z" />
    <glyph glyph-name="four.osf" horiz-adv-x="589" 
d="M547 134v-49h-125v-185h-57v185h-326v42l311 433h72v-426h125zM308 421l-208 -287h265v288l3 90h-2q-22 -41 -58 -91z" />
    <glyph glyph-name="five.osf" horiz-adv-x="551" 
d="M295 315q94 0 151 -58t57 -152q0 -98 -60 -156.5t-161 -58.5q-180 0 -228 154l52 28q31 -133 176 -133q76 0 120 44.5t44 118.5q0 75 -42.5 119.5t-117.5 44.5q-110 0 -164 -76h-51l37 370h366v-49h-319l-26 -248l-2 -13h1q58 65 167 65z" />
    <glyph glyph-name="six.osf" horiz-adv-x="577" 
d="M315 670q142 0 195 -132l-52 -24q-32 107 -144 107q-98 0 -150 -87t-52 -218q0 -19 4 -59h3q8 72 65 112.5t126 40.5q98 0 156 -57t58 -153t-59.5 -153t-159.5 -57q-119 0 -182.5 91t-63.5 249q0 163 71 251.5t185 88.5zM306 361q-71 0 -117 -46.5t-46 -113.5
q0 -71 45 -116.5t116 -45.5q76 0 119.5 43.5t43.5 119.5q0 74 -43 116.5t-118 42.5z" />
    <glyph glyph-name="seven.osf" horiz-adv-x="518" 
d="M14 560h478v-53q-126 -133 -184 -279t-63 -328h-58q13 362 246 610h-419v50z" />
    <glyph glyph-name="eight.osf" horiz-adv-x="580" 
d="M290 669q93 0 148.5 -45.5t55.5 -123.5q0 -55 -29 -95t-80 -57v-1q64 -18 101 -63.5t37 -108.5q0 -84 -64 -134.5t-169 -50.5t-169 50.5t-64 134.5q0 63 37.5 108.5t101.5 63.5v1q-51 17 -80.5 57t-29.5 95q0 78 55.5 123.5t148.5 45.5zM290 621q-67 0 -107 -33.5
t-40 -90.5q0 -58 40 -91.5t107 -33.5t107 33.5t40 91.5q0 57 -40 90.5t-107 33.5zM290 39q80 0 128 38t48 102q0 65 -48.5 104t-127.5 39t-127.5 -39t-48.5 -104q0 -64 48 -102t128 -38z" />
    <glyph glyph-name="nine.osf" horiz-adv-x="596" 
d="M288 570q119 0 183 -91.5t64 -248.5q0 -159 -65 -249.5t-181 -90.5q-173 0 -222 146l53 28q25 -125 168 -125q95 0 145 81.5t50 210.5q0 43 -5 76h-3q-6 -74 -62.5 -115.5t-129.5 -41.5q-99 0 -158.5 57t-59.5 153t60.5 153t162.5 57zM289 521q-78 0 -122.5 -43
t-44.5 -119q0 -74 44.5 -117t120.5 -43q71 0 118 46.5t47 113.5q0 71 -45 116.5t-118 45.5z" />
    <glyph glyph-name="zero.tf" 
d="M302 -10q-118 0 -180 87.5t-62 252.5t62 252.5t180 87.5t180 -87.5t62 -252.5t-62 -252.5t-180 -87.5zM302 41q89 0 136 74.5t47 214.5t-47 214.5t-136 74.5t-136 -74.5t-47 -214.5t47 -214.5t136 -74.5z" />
    <glyph glyph-name="one.tf" 
d="M371 51h185v-51h-447v51h205v464q0 23 2 73q-37 -38 -93.5 -69t-108.5 -45l-15 52q49 12 123 53t99 81h50v-609z" />
    <glyph glyph-name="two.tf" 
d="M90 0v47q206 158 284.5 244.5t78.5 175.5q0 69 -42.5 109.5t-114.5 40.5q-75 0 -120.5 -47.5t-51.5 -128.5l-50 29q10 91 68.5 145.5t155.5 54.5q98 0 156 -55.5t58 -147.5q0 -96 -78 -189t-261 -226v-1q34 2 73 2h286v-53h-442z" />
    <glyph glyph-name="three.tf" 
d="M304 670q94 0 147 -48.5t53 -123.5q0 -67 -36 -113.5t-90 -50.5v-1q63 -2 102 -48t39 -110q0 -82 -61.5 -133.5t-158.5 -51.5q-86 0 -143.5 40t-82.5 115l55 30q33 -132 174 -132q72 0 115.5 38t42.5 101q0 124 -158 124h-34v53h34q69 0 105.5 33.5t37.5 93.5
q0 63 -36.5 97t-104.5 34q-60 0 -99 -29.5t-54 -81.5l-53 25q23 64 78 101.5t128 37.5z" />
    <glyph glyph-name="four.tf" 
d="M370 0v185h-321v42l302 433h76v-426h133v-49h-133v-185h-57zM108 234h262v243q0 88 2 133h-1q-24 -44 -59 -93z" />
    <glyph glyph-name="five.tf" 
d="M323 415q93 0 150.5 -58t57.5 -152q0 -98 -60 -156.5t-161 -58.5q-180 0 -228 154l55 28q30 -129 171 -129q75 0 119.5 43t44.5 116q-1 75 -43 117.5t-115 42.5q-113 0 -164 -72h-51l37 370h366v-53h-318l-26 -244l-1 -13h1q54 65 165 65z" />
    <glyph glyph-name="six.tf" 
d="M337 670q146 0 199 -132l-53 -25q-34 104 -149 104q-95 0 -147.5 -86.5t-52.5 -214.5q0 -10 1.5 -29.5t1.5 -26.5h4q10 71 66.5 110.5t125.5 39.5q99 0 158 -57t59 -153t-60 -153t-162 -57q-119 0 -183.5 91.5t-64.5 248.5q0 163 71.5 251.5t185.5 88.5zM329 355
q-72 0 -118 -45t-46 -109q0 -69 45 -113t117 -44q76 0 120 42t44 115q0 70 -43.5 112t-118.5 42z" />
    <glyph glyph-name="seven.tf" 
d="M55 660h512v-53q-261 -259 -268 -607h-59q9 350 263 607h-448v53z" />
    <glyph glyph-name="eight.tf" 
d="M302 669q91 0 145.5 -45.5t54.5 -123.5q0 -54 -29 -94.5t-79 -57.5v-1q63 -18 99.5 -63.5t36.5 -108.5q0 -84 -62.5 -134.5t-165.5 -50.5q-102 0 -165.5 50.5t-63.5 134.5q0 63 37 108.5t100 63.5v1q-50 17 -79 57t-29 95q0 78 54.5 123.5t145.5 45.5zM302 616
q-65 0 -103 -32.5t-38 -88.5q0 -55 38.5 -88.5t102.5 -33.5q63 0 102 33.5t39 88.5q0 56 -38 88.5t-103 32.5zM302 43q77 0 123 37.5t46 99.5q0 63 -46.5 101t-122.5 38t-123 -38t-47 -101q0 -62 46.5 -99.5t123.5 -37.5z" />
    <glyph glyph-name="nine.tf" 
d="M287 670q119 0 183.5 -91.5t64.5 -248.5q0 -166 -64.5 -253t-182.5 -87q-173 0 -222 146l57 30q30 -123 164 -123q196 0 196 306q0 26 -5 54h-3q-8 -75 -65 -114t-128 -39q-99 0 -158 57t-59 153t60 153t162 57zM288 616q-76 0 -120 -42t-44 -115q0 -71 43.5 -112.5
t118.5 -41.5q71 0 117.5 45t46.5 109q0 69 -45 113t-117 44z" />
    <glyph glyph-name="zero.tosf" 
d="M302 570q114 0 174 -74.5t60 -215.5t-60 -215.5t-174 -74.5t-174 74.5t-60 215.5t60 215.5t174 74.5zM302 521q-86 0 -131.5 -61.5t-45.5 -179.5t45.5 -179.5t131.5 -61.5t131.5 61.5t45.5 179.5t-45.5 179.5t-131.5 61.5z" />
    <glyph glyph-name="one.tosf" 
d="M370 50h184v-50h-446v50h205v352q0 26 2 90q-35 -38 -86.5 -68t-102.5 -43l-16 48q47 11 115 51t94 80h51v-510z" />
    <glyph glyph-name="two.tosf" 
d="M287 570q97 0 152 -49.5t55 -140.5q0 -96 -71 -167t-210 -146q-16 -9 -44 -20v-2q44 4 69 4h281v-49h-437v51q91 45 146.5 77t108 73t76.5 85t24 96q0 69 -42 104t-106 35q-74 0 -119 -48.5t-38 -126.5l-50 24q-2 89 54.5 144.5t150.5 55.5z" />
    <glyph glyph-name="three.tosf" 
d="M306 570q95 0 147 -49t52 -125q0 -68 -32 -110t-93 -52v-1q69 -4 105 -47t36 -108q0 -84 -61.5 -136t-159.5 -52q-170 0 -224 155l50 29q37 -135 178 -135q73 0 116.5 39t43.5 103q0 128 -160 128h-34v48h34q69 0 106.5 35.5t37.5 95.5q0 133 -142 133q-60 0 -100 -30.5
t-55 -84.5l-52 25q23 64 78.5 101.5t128.5 37.5z" />
    <glyph glyph-name="four.tosf" 
d="M380 -100v185h-327v42l309 433h75v-426h127v-49h-127v-185h-57zM113 134h267v243q0 65 3 133h-2q-11 -22 -59 -91z" />
    <glyph glyph-name="five.tosf" 
d="M327 315q93 0 150 -58t57 -152q0 -98 -60 -156.5t-161 -58.5q-179 0 -228 154l53 28q30 -133 175 -133q75 0 119.5 44.5t44.5 118.5q0 76 -42.5 120t-117.5 44q-110 0 -164 -76h-50l36 370h367v-49h-319l-26 -248l-2 -13h1q56 65 167 65z" />
    <glyph glyph-name="six.tosf" 
d="M333 670q143 0 196 -132l-52 -24q-32 107 -144 107q-98 0 -150 -87t-52 -218q0 -19 4 -59h3q8 72 65 112.5t126 40.5q98 0 156 -57t58 -153t-59.5 -153t-159.5 -57q-119 0 -182.5 91t-63.5 249q0 163 71 251.5t184 88.5zM325 361q-71 0 -117 -46.5t-46 -113.5
q0 -71 45 -116.5t116 -45.5q76 0 119.5 43.5t43.5 119.5q0 74 -43 116.5t-118 42.5z" />
    <glyph glyph-name="seven.tosf" 
d="M63 560h478v-53q-122 -129 -182 -277.5t-66 -329.5h-57q11 361 246 610h-419v50z" />
    <glyph glyph-name="eight.tosf" 
d="M300 669q93 0 148.5 -45.5t55.5 -123.5q0 -55 -29 -95t-80 -57v-1q64 -18 101 -63.5t37 -108.5q0 -84 -64 -134.5t-169 -50.5t-169 50.5t-64 134.5q0 63 37.5 108.5t101.5 63.5v1q-51 17 -80.5 57t-29.5 95q0 78 55.5 123.5t148.5 45.5zM300 621q-67 0 -107 -33.5
t-40 -90.5q0 -58 40 -91.5t107 -33.5t107 33.5t40 91.5q0 57 -40 90.5t-107 33.5zM300 39q80 0 128 38t48 102q0 65 -48.5 104t-127.5 39t-127.5 -39t-48.5 -104q0 -64 48 -102t128 -38z" />
    <glyph glyph-name="nine.tosf" 
d="M280 570q119 0 183.5 -91.5t64.5 -248.5q0 -159 -65.5 -249.5t-181.5 -90.5q-173 0 -221 146l53 28q25 -125 168 -125q95 0 145 81.5t50 210.5q0 33 -5 76h-3q-6 -74 -62.5 -115.5t-129.5 -41.5q-99 0 -158.5 57t-59.5 153t60.5 153t161.5 57zM281 521q-78 0 -122 -43
t-44 -119q0 -74 44 -117t121 -43q72 0 118.5 46.5t46.5 113.5q0 72 -45.5 117t-118.5 45z" />
    <glyph glyph-name="zero.zero" horiz-adv-x="611" 
d="M305 670q118 0 180 -87.5t62 -252.5t-62 -252.5t-180 -87.5t-180 87.5t-62 252.5t62 252.5t180 87.5zM122 330q0 -162 62 -235l210 499q-39 25 -89 25q-89 0 -136 -74.5t-47 -214.5zM305 41q89 0 136 74.5t47 214.5q0 161 -61 234l-210 -499q37 -24 88 -24z" />
    <glyph glyph-name="zero.osf.zero" horiz-adv-x="588" 
d="M294 570q115 0 174.5 -74.5t59.5 -215.5t-59.5 -215.5t-174.5 -74.5t-175 74.5t-60 215.5t60 215.5t175 74.5zM116 280q0 -133 59 -195l209 413q-36 23 -90 23q-87 0 -132.5 -61.5t-45.5 -179.5zM294 39q86 0 131.5 61.5t45.5 179.5q0 128 -53 190l-209 -411
q34 -20 85 -20z" />
    <glyph glyph-name="zero.tf.zero" 
d="M302 670q118 0 180 -87.5t62 -252.5t-62 -252.5t-180 -87.5t-180 87.5t-62 252.5t62 252.5t180 87.5zM119 330q0 -168 66 -240l203 506q-37 23 -86 23q-89 0 -136 -74.5t-47 -214.5zM302 41q89 0 136 74.5t47 214.5q0 165 -64 238l-203 -505q35 -22 84 -22z" />
    <glyph glyph-name="zero.tosf.zero" 
d="M302 570q114 0 174 -74.5t60 -215.5t-60 -215.5t-174 -74.5t-174 74.5t-60 215.5t60 215.5t174 74.5zM125 280q0 -143 65 -202l211 415q-40 28 -99 28q-86 0 -131.5 -61.5t-45.5 -179.5zM302 39q86 0 131.5 61.5t45.5 179.5q0 120 -46 181l-207 -407q33 -15 76 -15z" />
    <glyph glyph-name="zero.dnom" horiz-adv-x="382" 
d="M191 -10q-76 0 -116 52t-40 152t40 152t116 52t116 -52t40 -152t-40 -152t-116 -52zM191 32q105 0 105 162t-105 162t-105 -162t105 -162z" />
    <glyph glyph-name="one.dnom" horiz-adv-x="225" 
d="M126 393h44v-397h-51v272q0 21 2 69q-47 -49 -111 -63v43q29 7 65 29t51 47z" />
    <glyph glyph-name="two.dnom" horiz-adv-x="352" 
d="M38 -4v36q71 55 100 78q65 52 92.5 88t27.5 74t-23 61t-64 23q-43 0 -69 -26.5t-28 -73.5l-45 15q4 59 42 93t101 34q65 0 102 -35t37 -89q0 -84 -137 -184q-46 -36 -70 -53v-1q5 0 25 1t26 1h167v-42h-284z" />
    <glyph glyph-name="three.dnom" horiz-adv-x="342" 
d="M167 398q61 0 95.5 -29.5t34.5 -77.5q0 -40 -22.5 -64.5t-54.5 -30.5v-1q35 -2 60.5 -27t25.5 -66q0 -50 -39.5 -81t-101.5 -31q-115 0 -145 94l48 22q14 -74 97 -74q40 0 64.5 20.5t24.5 55.5q0 68 -87 68h-24v37h22q38 0 58.5 19.5t20.5 51.5q0 34 -20.5 53t-58.5 19
q-72 0 -86 -65l-47 17q12 43 48 66.5t87 23.5z" />
    <glyph glyph-name="four.dnom" horiz-adv-x="348" 
d="M328 140v-37h-75v-107h-43v107h-199v28l186 262h56v-253h75zM61 140h149v146q0 43 2 64h-3q-21 -35 -32 -51z" />
    <glyph glyph-name="five.dnom" horiz-adv-x="349" 
d="M190 248q57 0 92.5 -35t35.5 -90q0 -62 -39 -97t-103 -35q-112 0 -146 89l45 25q16 -72 99 -72q42 0 68 25t26 64q0 42 -23.5 65t-67.5 23q-66 0 -93 -43h-40l18 226h237v-42h-197l-10 -112q-3 -22 -5 -28h1q30 37 102 37z" />
    <glyph glyph-name="six.dnom" horiz-adv-x="362" 
d="M191 -10q-75 0 -115 52.5t-40 151.5t44.5 151.5t117.5 52.5q94 0 125 -79l-42 -21q-20 58 -84 58q-56 0 -85 -47t-29 -115q0 -18 1 -26h1q28 73 112 73q61 0 97 -34t36 -91q0 -58 -37 -92t-102 -34zM191 31q43 0 67 22.5t24 62.5q0 39 -24.5 62t-65.5 23t-67 -26t-26 -59
q0 -37 25.5 -61t66.5 -24z" />
    <glyph glyph-name="seven.dnom" horiz-adv-x="306" 
d="M4 393h294v-42q-142 -149 -142 -355h-50q0 204 142 355h-244v42z" />
    <glyph glyph-name="eight.dnom" horiz-adv-x="371" 
d="M185 397q62 0 98 -28t36 -76q0 -69 -72 -91v-1q41 -11 64.5 -36.5t23.5 -62.5q0 -52 -40.5 -82t-109.5 -30q-68 0 -109 30.5t-41 81.5q0 37 23.5 63t64.5 36v1q-34 11 -53 34.5t-19 56.5q0 48 36 76t98 28zM185 358q-39 0 -61.5 -18t-22.5 -50q0 -31 23 -50t61 -19t61 19
t23 50q0 32 -22.5 50t-61.5 18zM185 30q45 0 72 20.5t27 54.5q0 35 -27 56t-72 21q-44 0 -71.5 -21.5t-27.5 -55.5t27 -54.5t72 -20.5z" />
    <glyph glyph-name="nine.dnom" horiz-adv-x="370" 
d="M178 398q74 0 115 -53.5t41 -151.5t-41.5 -150.5t-115.5 -52.5q-111 0 -140 86l47 20q15 -65 94 -65q56 0 82.5 45t26.5 108q0 20 -3 39h-1q-4 -32 -37.5 -54.5t-71.5 -22.5q-65 0 -102 34t-37 91q0 59 38.5 93t104.5 34zM179 356q-44 0 -69 -23t-25 -62t25 -62t68 -23
q40 0 66.5 25t26.5 60q0 37 -25.5 61t-66.5 24z" />
    <glyph glyph-name="zero.numr" horiz-adv-x="382" 
d="M191 262q-76 0 -116 52t-40 152t40 152t116 52t116 -52t40 -152t-40 -152t-116 -52zM191 304q105 0 105 162t-105 162t-105 -162t105 -162z" />
    <glyph glyph-name="one.numr" horiz-adv-x="225" 
d="M126 665h44v-397h-51v272q0 21 2 69q-47 -49 -111 -63v43q29 7 65 29t51 47z" />
    <glyph glyph-name="two.numr" horiz-adv-x="352" 
d="M38 268v36q71 55 100 78q65 52 92.5 88t27.5 74t-23 61t-64 23q-43 0 -69 -26.5t-28 -73.5l-45 15q4 59 42 93t101 34q65 0 102 -35t37 -89q0 -84 -137 -184q-46 -36 -70 -53v-1q5 0 25 1t26 1h167v-42h-284z" />
    <glyph glyph-name="three.numr" horiz-adv-x="342" 
d="M167 670q61 0 95.5 -29.5t34.5 -77.5q0 -40 -22.5 -64.5t-54.5 -30.5v-1q35 -2 60.5 -27t25.5 -66q0 -50 -39.5 -81t-101.5 -31q-115 0 -145 94l48 22q14 -74 97 -74q40 0 64.5 20.5t24.5 55.5q0 68 -87 68h-24v37h22q38 0 58.5 19.5t20.5 51.5q0 34 -20.5 53t-58.5 19
q-72 0 -86 -65l-47 17q12 43 48 66.5t87 23.5z" />
    <glyph glyph-name="four.numr" horiz-adv-x="348" 
d="M328 412v-37h-75v-107h-43v107h-199v28l186 262h56v-253h75zM61 412h149v146q0 43 2 64h-3q-21 -35 -32 -51z" />
    <glyph glyph-name="five.numr" horiz-adv-x="349" 
d="M190 520q57 0 92.5 -35t35.5 -90q0 -62 -39 -97t-103 -35q-112 0 -146 89l45 25q16 -72 99 -72q42 0 68 25t26 64q0 42 -23.5 65t-67.5 23q-66 0 -93 -43h-40l18 226h237v-42h-197l-10 -112q-3 -22 -5 -28h1q30 37 102 37z" />
    <glyph glyph-name="six.numr" horiz-adv-x="362" 
d="M191 262q-75 0 -115 52.5t-40 151.5t44.5 151.5t117.5 52.5q94 0 125 -79l-42 -21q-20 58 -84 58q-56 0 -85 -47t-29 -115q0 -18 1 -26h1q28 73 112 73q61 0 97 -34t36 -91q0 -58 -37 -92t-102 -34zM191 303q43 0 67 22.5t24 62.5q0 39 -24.5 62t-65.5 23t-67 -26
t-26 -59q0 -37 25.5 -61t66.5 -24z" />
    <glyph glyph-name="seven.numr" horiz-adv-x="306" 
d="M4 665h294v-42q-142 -149 -142 -355h-50q0 204 142 355h-244v42z" />
    <glyph glyph-name="eight.numr" horiz-adv-x="371" 
d="M185 669q62 0 98 -28t36 -76q0 -69 -72 -91v-1q41 -11 64.5 -36.5t23.5 -62.5q0 -52 -40.5 -82t-109.5 -30q-68 0 -109 30.5t-41 81.5q0 37 23.5 63t64.5 36v1q-34 11 -53 34.5t-19 56.5q0 48 36 76t98 28zM185 630q-39 0 -61.5 -18t-22.5 -50q0 -31 23 -50t61 -19t61 19
t23 50q0 32 -22.5 50t-61.5 18zM185 302q45 0 72 20.5t27 54.5q0 35 -27 56t-72 21q-44 0 -71.5 -21.5t-27.5 -55.5t27 -54.5t72 -20.5z" />
    <glyph glyph-name="nine.numr" horiz-adv-x="370" 
d="M178 670q74 0 115 -53.5t41 -151.5t-41.5 -150.5t-115.5 -52.5q-111 0 -140 86l47 20q15 -65 94 -65q56 0 82.5 45t26.5 108q0 20 -3 39h-1q-4 -32 -37.5 -54.5t-71.5 -22.5q-65 0 -102 34t-37 91q0 59 38.5 93t104.5 34zM179 628q-44 0 -69 -23t-25 -62t25 -62t68 -23
q40 0 66.5 25t26.5 60q0 37 -25.5 61t-66.5 24z" />
    <glyph glyph-name="zero.sc" horiz-adv-x="564" 
d="M282 570q111 0 170 -74.5t59 -215.5t-59 -215.5t-170 -74.5t-169.5 74.5t-58.5 215.5t58.5 215.5t169.5 74.5zM282 521q-83 0 -127 -61.5t-44 -179.5t44 -179.5t127 -61.5q84 0 128 61.5t44 179.5t-44 179.5t-128 61.5z" />
    <glyph glyph-name="one.sc" horiz-adv-x="349" 
d="M207 560h50v-560h-57v418q0 20 2 66q-63 -68 -167 -96l-15 49q47 12 104.5 47.5t82.5 75.5z" />
    <glyph glyph-name="two.sc" horiz-adv-x="518" 
d="M257 568q92 0 144.5 -47.5t52.5 -123.5q0 -52 -22.5 -99.5t-67.5 -91.5t-92.5 -79.5t-118.5 -79.5v-1q31 3 66 3h254v-49h-407v47q172 107 251.5 183.5t79.5 159.5q0 58 -37 93.5t-105 35.5q-70 0 -111 -46t-33 -113l-50 24q-3 80 50 132t146 52z" />
    <glyph glyph-name="three.sc" horiz-adv-x="503" 
d="M250 568q84 0 132 -41t48 -106q0 -57 -32 -95.5t-80 -42.5v-1q56 -2 91 -36t35 -89q0 -75 -55 -120t-143 -45q-157 0 -202 132l54 26q26 -109 150 -109q63 0 101 31t38 83q0 104 -136 104h-34v46h33q59 0 90.5 28.5t32.5 76.5q1 52 -32 80.5t-91 28.5q-53 0 -87.5 -24.5
t-46.5 -69.5l-53 22q20 57 70 89t117 32z" />
    <glyph glyph-name="four.sc" horiz-adv-x="526" 
d="M331 0v153h-292v38l274 369h73v-361h110v-46h-110v-153h-55zM101 199h230v311h-2q-18 -30 -41 -61z" />
    <glyph glyph-name="five.sc" horiz-adv-x="501" 
d="M265 352q83 0 133.5 -49t50.5 -128q0 -85 -54 -134t-144 -49q-161 0 -206 128l53 28q25 -107 151 -107q65 0 104.5 36t38.5 96t-38 95.5t-101 35.5q-97 0 -144 -59l-47 2l32 313h330v-49h-284l-20 -193l-3 -22h1q51 56 147 56z" />
    <glyph glyph-name="six.sc" horiz-adv-x="514" 
d="M274 -8q-110 0 -166.5 73.5t-56.5 212.5t63.5 214.5t164.5 75.5q129 0 176 -112l-50 -24q-28 87 -128 87q-83 0 -128 -71t-45 -176q0 -16 2 -48h3q9 55 58.5 88.5t108.5 33.5q87 0 138.5 -48t51.5 -129t-52 -129t-140 -48zM269 41q66 0 103 34t37 94q0 59 -37 93.5
t-101 34.5q-62 0 -101.5 -37.5t-39.5 -90.5q0 -57 38.5 -92.5t100.5 -35.5z" />
    <glyph glyph-name="seven.sc" horiz-adv-x="486" 
d="M33 560h429v-48q-208 -208 -220 -512h-57q11 302 217 511h-369v49z" />
    <glyph glyph-name="eight.sc" horiz-adv-x="537" 
d="M268 -8q-95 0 -153 42.5t-58 113.5q0 53 34.5 92t93.5 53v1q-50 14 -78 48t-28 81q0 67 51 105.5t138 38.5t138.5 -39t51.5 -105q0 -47 -28 -81t-78 -48v-1q59 -15 93.5 -53.5t34.5 -91.5q0 -71 -58 -113.5t-154 -42.5zM268 317q60 0 96.5 28t36.5 74q0 47 -36 73.5
t-97 26.5t-96.5 -26.5t-35.5 -73.5q0 -46 36 -74t96 -28zM268 40q71 0 113 30.5t42 82.5t-42.5 83.5t-112.5 31.5q-69 0 -111.5 -31.5t-42.5 -83.5t42 -82.5t112 -30.5z" />
    <glyph glyph-name="nine.sc" horiz-adv-x="524" 
d="M251 -8q-156 0 -197 122l54 27q25 -100 143 -100q90 0 130 67t40 177q0 21 -4 53h-3q-7 -60 -56 -93t-106 -33q-93 0 -146.5 48.5t-53.5 129.5q0 82 54 130t147 48q104 0 161.5 -76.5t57.5 -211.5q0 -140 -58.5 -214t-162.5 -74zM251 262q63 0 102.5 37t39.5 90
q0 57 -39 93.5t-101 36.5q-67 0 -105.5 -35t-38.5 -94t38.5 -93.5t103.5 -34.5z" />
    <glyph glyph-name="periodcentered.case" horiz-adv-x="214" 
d="M107 389q22 0 35.5 -13.5t13.5 -36.5q0 -22 -13.5 -35.5t-35.5 -13.5t-36 13.5t-14 35.5q0 23 13.5 36.5t36.5 13.5z" />
    <glyph glyph-name="exclamdown.case" horiz-adv-x="232" 
d="M116 569q-22 0 -36 13.5t-14 36.5q0 22 14 35.5t36 13.5t35.5 -13.5t13.5 -35.5t-13.5 -36t-35.5 -14zM86 0v312l8 154h44l8 -154v-312h-60z" />
    <glyph glyph-name="periodcentered.loclCAT.case" horiz-adv-x="20" 
d="M-64 389q22 0 35.5 -14t13.5 -36t-13.5 -35.5t-35.5 -13.5t-36 13.5t-14 35.5q0 23 14 36.5t36 13.5z" />
    <glyph glyph-name="questiondown.case" horiz-adv-x="513" 
d="M267 571q-23 0 -36.5 13.5t-13.5 36.5q0 22 14 35.5t36 13.5t35.5 -13.5t13.5 -35.5t-13.5 -36t-35.5 -14zM253 -8q-93 0 -151 46t-58 124q0 163 192 197v116h59v-146q-105 -23 -148 -59t-43 -102q0 -57 40 -90t113 -33q75 0 119 38t52 107l51 -28q-15 -80 -73.5 -125
t-152.5 -45z" />
    <glyph glyph-name="periodcentered.loclCAT" horiz-adv-x="85" 
d="M18 406q22 0 36 -13.5t14 -35.5q0 -23 -14 -36.5t-36 -13.5t-35.5 14t-13.5 36t13.5 35.5t35.5 13.5z" />
    <glyph glyph-name="periodcentered.loclCAT.ss02" horiz-adv-x="214" 
d="M107 406q22 0 35.5 -13.5t13.5 -35.5q0 -23 -13.5 -36.5t-35.5 -13.5q-23 0 -36.5 13.5t-13.5 36.5q0 22 14 35.5t36 13.5z" />
    <glyph glyph-name="colon.tf" horiz-adv-x="302" 
d="M151 506q23 0 36.5 -13.5t13.5 -35.5q0 -23 -13.5 -36.5t-36.5 -13.5t-36.5 13.5t-13.5 36.5q0 22 13.5 35.5t36.5 13.5zM151 91q23 0 36.5 -13.5t13.5 -36.5q0 -22 -14 -35.5t-36 -13.5t-36 13.5t-14 35.5q0 23 13.5 36.5t36.5 13.5z" />
    <glyph glyph-name="comma.tf" horiz-adv-x="302" 
d="M153 91q28 0 44 -21.5t16 -56.5q0 -45 -23 -84t-68 -61l-32 28q36 13 59 43t24 60l-3 2q-8 -9 -24 -9q-17 0 -30 13t-13 35q0 21 14.5 36t35.5 15z" />
    <glyph glyph-name="numbersign.tf" 
d="M578 426h-125l-28 -186h110v-44h-117l-30 -196h-50l29 196h-165l-30 -196h-51l30 196h-125v44h132l28 186h-117v44h123l29 190h50l-28 -190h166l28 190h51l-29 -190h119v-44zM374 240l28 186h-166l-28 -186h166z" />
    <glyph glyph-name="period.tf" horiz-adv-x="302" 
d="M151 91q23 0 36.5 -13.5t13.5 -36.5q0 -22 -14 -35.5t-36 -13.5t-36 13.5t-14 35.5q0 23 13.5 36.5t36.5 13.5z" />
    <glyph glyph-name="semicolon.tf" horiz-adv-x="302" 
d="M156 407q-22 0 -35.5 14t-13.5 36t13.5 35.5t35.5 13.5q23 0 36.5 -13.5t13.5 -35.5q0 -23 -14 -36.5t-36 -13.5zM153 91q28 0 44 -21.5t16 -56.5q0 -45 -23 -84t-68 -61l-32 28q36 13 59 43t24 60l-3 2q-8 -9 -24 -9q-17 0 -30 13t-13 35q0 21 14.5 36t35.5 15z" />
    <glyph glyph-name="braceleft.case" horiz-adv-x="318" 
d="M187 5q0 -70 97 -70l-8 -46q-142 0 -142 120v194q0 52 -27.5 76t-85.5 24v50q58 0 85.5 24t27.5 76v196q0 120 142 120l8 -47q-97 0 -97 -69v-204q0 -98 -101 -121q101 -23 101 -121v-202z" />
    <glyph glyph-name="braceright.case" horiz-adv-x="318" 
d="M184 453q0 -52 27.5 -76t85.5 -24v-50q-58 0 -85.5 -24t-27.5 -76v-194q0 -120 -142 -120l-9 46q98 0 98 70v202q0 98 100 121q-100 23 -100 121v204q0 69 -98 69l9 47q142 0 142 -120v-196z" />
    <glyph glyph-name="bracketleft.case" horiz-adv-x="319" 
d="M294 702h-158v-749h158v-50h-211v849h211v-50z" />
    <glyph glyph-name="bracketright.case" horiz-adv-x="319" 
d="M236 752v-849h-211v50h158v749h-158v50h211z" />
    <glyph glyph-name="parenleft.case" horiz-adv-x="315" 
d="M261 792l32 -33q-95 -84 -136 -186.5t-41 -245.5t41 -245.5t136 -186.5l-32 -33q-203 176 -203 465t203 465z" />
    <glyph glyph-name="parenright.case" horiz-adv-x="315" 
d="M54 792q203 -176 203 -465t-203 -465l-32 33q95 84 136 186.5t41 245.5t-41 245.5t-136 186.5z" />
    <glyph glyph-name="emdash.case" horiz-adv-x="987" 
d="M910 362v-53h-833v53h833z" />
    <glyph glyph-name="endash.case" horiz-adv-x="644" 
d="M567 362v-53h-490v53h490z" />
    <glyph glyph-name="hyphen.case" horiz-adv-x="477" 
d="M394 365v-59h-312v59h312z" />
    <glyph glyph-name="guillemotleft.case" horiz-adv-x="458" 
d="M245 523l-134 -196l134 -196h-63l-133 196l133 196h63zM401 523l-134 -196l134 -196h-64l-132 196l132 196h64z" />
    <glyph glyph-name="guillemotright.case" horiz-adv-x="458" 
d="M49 523h64l132 -196l-132 -196h-64l134 196zM205 523h63l133 -196l-133 -196h-63l134 196z" />
    <glyph glyph-name="guilsinglleft.case" horiz-adv-x="303" 
d="M245 523l-134 -196l134 -196h-63l-133 196l133 196h63z" />
    <glyph glyph-name="guilsinglright.case" horiz-adv-x="303" 
d="M51 523h64l132 -196l-132 -196h-64l134 196z" />
    <glyph glyph-name="periodcentered.sc" horiz-adv-x="214" 
d="M107 345q22 0 35.5 -13.5t13.5 -36.5q0 -22 -13.5 -35.5t-35.5 -13.5t-36 13.5t-14 35.5q0 23 13.5 36.5t36.5 13.5z" />
    <glyph glyph-name="exclam.sc" horiz-adv-x="218" 
d="M139 560v-259l-7 -137h-46l-6 137v259h59zM110 86q21 0 34 -13t13 -34t-13 -34t-34 -13q-22 0 -35 13t-13 34t13 34t35 13z" />
    <glyph glyph-name="exclamdown.sc" horiz-adv-x="218" 
d="M108 474q-21 0 -34 13t-13 34t13 34t34 13q22 0 35 -13t13 -34t-13 -34t-35 -13zM79 0v259l7 137h46l6 -137v-259h-59z" />
    <glyph glyph-name="periodcentered.loclCAT.sc" horiz-adv-x="0" 
d="M-97 345q22 0 35.5 -14t13.5 -36t-13.5 -35.5t-35.5 -13.5t-36 13.5t-14 35.5q0 23 13.5 36.5t36.5 13.5z" />
    <glyph glyph-name="question.sc" horiz-adv-x="449" 
d="M230 568q84 0 136 -38.5t52 -106.5q0 -138 -172 -170v-89h-56v117q92 19 130 49.5t38 85.5q0 47 -35 74.5t-97 27.5q-132 0 -148 -119l-52 25q13 67 64.5 105.5t139.5 38.5zM216 86q21 0 34.5 -13t13.5 -34t-13.5 -34t-34.5 -13q-22 0 -35 13t-13 34t13 34t35 13z" />
    <glyph glyph-name="questiondown.sc" horiz-adv-x="439" 
d="M235 476q-21 0 -34.5 13t-13.5 34t13.5 34t34.5 13q22 0 35 -13t13 -34t-13 -34t-35 -13zM221 -6q-84 0 -136 38.5t-52 106.5q0 138 172 170v89h56v-117q-92 -19 -129.5 -49.5t-37.5 -85.5q0 -48 34.5 -75t96.5 -27q132 0 148 119l53 -25q-13 -67 -65 -105.5t-140 -38.5z
" />
    <glyph glyph-name="quotedbl.sc" horiz-adv-x="347" 
d="M139 584l-17 -215h-46v215h63zM280 584l-17 -215h-45v215h62z" />
    <glyph glyph-name="quotedblleft.sc" horiz-adv-x="390" 
d="M119 372q-28 0 -44 21.5t-16 56.5q0 45 23 84t68 61l32 -28q-36 -13 -59 -43t-24 -60l3 -2q7 9 24 9t30 -13t13 -35q0 -21 -14.5 -36t-35.5 -15zM271 372q-28 0 -44 21.5t-16 56.5q0 45 23 84t68 61l32 -28q-36 -13 -59 -43t-24 -60l3 -2q8 9 24 9q17 0 30 -13t13 -35
q0 -21 -14.5 -36t-35.5 -15z" />
    <glyph glyph-name="quotedblright.sc" horiz-adv-x="390" 
d="M123 588q28 0 44 -21.5t16 -56.5q0 -45 -23 -84t-68 -61l-32 28q36 13 59 43t24 60l-3 2q-8 -9 -24 -9q-17 0 -30 13t-13 35q0 21 14.5 36t35.5 15zM275 588q28 0 44 -21.5t16 -56.5q0 -45 -23 -84t-68 -61l-32 28q36 13 59 43t24 60l-3 2q-8 -9 -24 -9q-17 0 -30 13
t-13 35q0 21 14.5 36t35.5 15z" />
    <glyph glyph-name="quoteleft.sc" horiz-adv-x="238" 
d="M120 372q-28 0 -44 21.5t-16 56.5q0 45 23 84t68 61l31 -29q-36 -12 -59 -42.5t-24 -60.5l4 -1q6 9 24 9q16 0 29.5 -13t13.5 -35q0 -21 -14.5 -36t-35.5 -15z" />
    <glyph glyph-name="quoteright.sc" horiz-adv-x="238" 
d="M123 588q28 0 44 -21.5t16 -56.5q0 -45 -23 -84t-68 -61l-31 28q36 13 59 43t23 60l-3 2q-6 -9 -24 -9q-17 0 -30 13t-13 35q0 21 14.5 36t35.5 15z" />
    <glyph glyph-name="quotesingle.sc" horiz-adv-x="205" 
d="M139 584l-17 -215h-46v215h63z" />
    <glyph glyph-name="space.tf" horiz-adv-x="302" 
 />
    <glyph glyph-name="cent.tf" 
d="M523 138q-19 -65 -69 -103.5t-121 -43.5v-91h-48v91q-98 10 -152.5 78t-54.5 181q0 112 54.5 180.5t152.5 78.5v91h48v-90q139 -9 185 -134l-54 -26q-14 50 -48 78.5t-83 33.5v-424q53 5 89.5 35t49.5 82zM132 250q0 -92 40 -147t113 -64v422q-73 -10 -113 -65t-40 -146z
" />
    <glyph glyph-name="currency.tf" 
d="M500 330q0 -74 -39 -125l95 -93l-37 -37l-94 93q-51 -39 -123 -39q-74 0 -125 40l-92 -94l-37 37l93 94q-38 54 -38 124q0 72 38 124l-93 92l37 37l92 -92q52 40 125 40t125 -41l92 93l37 -37l-92 -94q36 -52 36 -122zM302 180q62 0 101.5 41.5t39.5 108.5t-39.5 108.5
t-101.5 41.5q-63 0 -102.5 -41.5t-39.5 -108.5t39.5 -108.5t102.5 -41.5z" />
    <glyph glyph-name="dollar.tf" 
d="M548 177q0 -77 -57 -124.5t-152 -52.5v-100h-50v101q-86 7 -144.5 50.5t-81.5 119.5l53 27q12 -61 60 -101t113 -48v259q-48 10 -76.5 19.5t-62 27.5t-49.5 48t-16 72q0 74 55 126t149 58v101h50v-101q77 -5 126 -39.5t79 -102.5l-46 -36q-23 63 -60.5 94t-98.5 35v-263
q39 -8 62.5 -14.5t54.5 -20t49 -30t30.5 -43.5t12.5 -62zM139 479q0 -53 38.5 -79t111.5 -42v253q-72 -5 -111 -40.5t-39 -91.5zM339 48q71 3 113 35t42 90q0 29 -11.5 50.5t-35.5 35.5t-48 22t-60 16v-249z" />
    <glyph glyph-name="Euro.tf" 
d="M527 189l52 -20q-20 -86 -79 -132.5t-142 -46.5q-98 0 -161.5 62t-83.5 174h-86v47h79q-2 36 -2 57q0 17 2 47h-79v47h84q20 116 84.5 181t163.5 65q81 0 135.5 -38.5t73.5 -111.5l-50 -25q-13 60 -53.5 92.5t-100.5 32.5q-74 0 -125.5 -51.5t-69.5 -144.5h244l-16 -47
h-234q-2 -30 -2 -47q0 -30 3 -57h210l-16 -47h-187q18 -88 67 -137t121 -49q65 0 110 38.5t58 110.5z" />
    <glyph glyph-name="florin.tf" 
d="M482 683q-91 0 -110 -101l-32 -182h186v-49h-195l-60 -331q-26 -148 -160 -148q-48 0 -89 21l11 51q29 -20 74 -20q89 0 107 101l59 326h-164v49h173l34 187q25 148 158 148q52 0 88 -20l-8 -51q-34 19 -72 19z" />
    <glyph glyph-name="uni20BA.tf" 
d="M505 264h54q-3 -130 -66.5 -197t-182.5 -67h-149v269l-125 -36v42l125 36v101l-125 -37v43l125 36v206h54v-190l217 63v-42l-217 -64v-100l217 63v-42l-217 -64v-235h87q99 0 151 54.5t52 160.5z" />
    <glyph glyph-name="uni20BD.tf" 
d="M343 272h-154v-81h185v-45h-185v-146h-54v146h-97v45h97v81h-97v50h97v338h208q101 0 160 -52.5t59 -142.5q0 -89 -59 -141t-160 -52zM189 608v-286h146q168 0 168 143t-168 143h-146z" />
    <glyph glyph-name="sterling.tf" 
d="M509 139h46q0 -74 -33.5 -111.5t-93.5 -37.5q-28 0 -56.5 10t-45 20.5t-43.5 30.5q-49 -61 -129 -61q-46 0 -72 21.5t-26 57.5q0 35 28.5 58.5t77.5 23.5q57 0 109 -36q7 22 7 51q0 58 -42 121h-145v47h112q-54 77 -54 141q0 86 55 140.5t141 54.5q148 0 182 -152
l-50 -27q-23 127 -135 127q-64 0 -102 -37t-38 -98q0 -35 12 -65t45 -79q2 -4 4 -5h195v-47h-167q32 -61 32 -123q-1 -39 -17 -76q21 -17 34 -26t35.5 -17.5t45.5 -8.5q87 0 88 103zM161 30q57 0 90 45q-48 32 -88 32q-56 0 -56 -38q0 -39 54 -39z" />
    <glyph glyph-name="yen.tf" 
d="M342 284l32 3h151v-43h-198v-87h198v-41h-198v-116h-50v116h-197v41h197v87h-197v43h150l32 -3l-223 376h66l160 -286l36 -72h2l36 73l160 285h66z" />
    <glyph glyph-name="uni25CF.case" horiz-adv-x="737" 
d="M368 21q-132 0 -220.5 88t-88.5 221t88.5 221t220.5 88q133 0 221.5 -88t88.5 -221t-88.5 -221t-221.5 -88z" />
    <glyph glyph-name="circle.case" horiz-adv-x="737" 
d="M368 21q-132 0 -220.5 88t-88.5 221t88.5 221t220.5 88q133 0 221.5 -88t88.5 -221t-88.5 -221t-221.5 -88zM368 74q110 0 181.5 72.5t71.5 183.5t-71.5 183.5t-181.5 72.5q-109 0 -180.5 -72.5t-71.5 -183.5t71.5 -183.5t180.5 -72.5z" />
    <glyph glyph-name="uni25C6.case" horiz-adv-x="737" 
d="M368 10l-320 320l320 320l321 -320z" />
    <glyph glyph-name="uni25C7.case" horiz-adv-x="737" 
d="M368 10l-320 320l320 320l321 -320zM368 86l244 244l-244 244l-244 -244z" />
    <glyph glyph-name="uni25AA.case" horiz-adv-x="737" 
d="M74 624h589v-588h-589v588z" />
    <glyph glyph-name="uni25AB.case" horiz-adv-x="737" 
d="M77 37v586h583v-586h-583zM134 87h469v486h-469v-486z" />
    <glyph glyph-name="bar.case" horiz-adv-x="216" 
d="M133 752v-849h-50v849h50z" />
    <glyph glyph-name="at.case" horiz-adv-x="970" 
d="M496 758q105 0 185 -32.5t127.5 -90t71.5 -129.5t24 -157q0 -121 -43.5 -191t-118.5 -70q-98 0 -110 113q-24 -52 -71 -81t-111 -29q-83 0 -136 59t-53 159q0 116 66 185t161 69q129 0 165 -107l13 97h39l-25 -316q-7 -108 71 -108q52 0 80 56.5t28 163.5
q0 77 -21.5 142.5t-65 116.5t-114 79.5t-162.5 28.5q-178 0 -282 -106.5t-104 -287.5q0 -174 104.5 -276t271.5 -102q135 0 223 70l26 -34q-107 -79 -249 -79q-192 0 -308 114.5t-116 306.5q0 196 118.5 316t315.5 120zM493 521q-82 0 -131.5 -56t-49.5 -153
q0 -82 41 -129.5t112 -47.5q70 0 117.5 46.5t53.5 124.5l4 42q5 76 -32 124.5t-115 48.5z" />
    <glyph glyph-name="ampersand.sc" horiz-adv-x="544" 
d="M545 33l-11 -41q-34 0 -62.5 14.5t-68.5 53.5q-70 -68 -179 -68q-79 0 -130 37.5t-51 98.5q0 56 34.5 95.5t110.5 79.5q-41 50 -56 79.5t-15 62.5q0 51 37 86.5t100 35.5q59 0 96.5 -29.5t37.5 -82.5q0 -48 -27.5 -85t-102.5 -78q5 -5 59 -69q64 -75 84 -97q48 72 44 184
l43 -10q2 -123 -57 -206q36 -37 60 -49.5t54 -11.5zM254 522q-40 0 -62.5 -21.5t-22.5 -56.5q0 -26 11.5 -48.5t50.5 -70.5q64 34 85.5 62.5t21.5 64.5q0 33 -22.5 51.5t-61.5 18.5zM223 34q91 0 149 58q-25 27 -89 100q-55 63 -67 78q-66 -35 -93.5 -65.5t-27.5 -71.5
q0 -44 37 -71.5t91 -27.5z" />
    <glyph glyph-name="spacesuperior" horiz-adv-x="124" 
 />
    <glyph glyph-name="emdashsuperior" horiz-adv-x="637" 
d="M587 549v-36h-537v36h537z" />
    <glyph glyph-name="endashsuperior" horiz-adv-x="416" 
d="M366 549v-36h-316v36h316z" />
    <glyph glyph-name="hyphensuperior" horiz-adv-x="287" 
d="M238 549v-36h-189v36h189z" />
    <glyph glyph-name="bracketleftsuperior" horiz-adv-x="196" 
d="M195 771h-83v-479h83v-39h-127v557h127v-39z" />
    <glyph glyph-name="bracketrightsuperior" horiz-adv-x="196" 
d="M128 810v-557h-127v39h82v479h-82v39h127z" />
    <glyph glyph-name="colonsuperior" horiz-adv-x="165" 
d="M83 669q16 0 25.5 -10t9.5 -26t-9.5 -25.5t-25.5 -9.5t-26 9.5t-10 25.5q0 17 9.5 26.5t26.5 9.5zM83 399q16 0 25.5 -9.5t9.5 -25.5t-9.5 -26t-25.5 -10q-17 0 -26.5 10t-9.5 26t10 25.5t26 9.5z" />
    <glyph glyph-name="commasuperior" horiz-adv-x="165" 
d="M84 399q21 0 32.5 -15.5t11.5 -41.5q0 -70 -61 -100l-24 21q23 9 39 30t14 39l-2 1q-3 -5 -13 -5q-13 0 -23.5 10t-10.5 26q0 35 37 35z" />
    <glyph glyph-name="periodsuperior" horiz-adv-x="165" 
d="M83 399q16 0 25.5 -9.5t9.5 -25.5t-9.5 -26t-25.5 -10q-17 0 -26.5 10t-9.5 26t10 25.5t26 9.5z" />
    <glyph glyph-name="Hsuperior" horiz-adv-x="447" 
d="M337 730h52v-397h-52v181h-227v-181h-52v397h52v-173h227v173z" />
    <glyph glyph-name="Osuperior" horiz-adv-x="453" 
d="M226 735q89 0 140 -54.5t51 -149.5t-51 -149.5t-140 -54.5q-88 0 -139 54.5t-51 149.5t51 149.5t139 54.5zM226 693q-65 0 -102.5 -43.5t-37.5 -118.5t37.5 -118.5t102.5 -43.5t102.5 43.5t37.5 118.5t-37.5 118.5t-102.5 43.5z" />
    <glyph glyph-name="indexring" horiz-adv-x="910" 
d="M455 -40q-165 0 -267.5 103t-102.5 267t102.5 267t267.5 103t267.5 -103t102.5 -267t-102.5 -267t-267.5 -103zM455 3q143 0 232.5 91t89.5 236t-89.5 236t-232.5 91t-232.5 -91t-89.5 -236t89.5 -236t232.5 -91z" />
    <glyph glyph-name="registeredsuperior" horiz-adv-x="541" 
d="M270 670q109 0 178.5 -68.5t69.5 -176.5t-69.5 -176.5t-178.5 -68.5t-178 68.5t-69 176.5t69 176.5t178 68.5zM270 223q88 0 144.5 56.5t56.5 145.5t-56 145.5t-145 56.5q-88 0 -144 -56.5t-56 -145.5t56 -145.5t144 -56.5zM383 475q0 -61 -63 -75l69 -105h-50l-63 102
h-54v-102h-44v260h113q42 0 67 -21.5t25 -58.5zM222 520v-92h64q53 0 53 46t-53 46h-64z" />
    <glyph glyph-name="daggerdblsuperior" horiz-adv-x="409" 
d="M376 550h-149v-112h149v-42h-149v-138h-49v138h-145v42h145v112h-145v42h145v138h49v-138h149v-42z" />
    <glyph glyph-name="daggersuperior" horiz-adv-x="409" 
d="M376 592v-42h-149v-292h-49v292h-145v42h145v138h49v-138h149z" />
    <glyph glyph-name="coloninferior" horiz-adv-x="165" 
d="M83 147q16 0 25.5 -10t9.5 -26t-9.5 -25.5t-25.5 -9.5t-26 9.5t-10 25.5q0 17 9.5 26.5t26.5 9.5zM83 -123q16 0 25.5 -9.5t9.5 -25.5t-9.5 -26t-25.5 -10q-17 0 -26.5 10t-9.5 26t10 25.5t26 9.5z" />
    <glyph glyph-name="commainferior" horiz-adv-x="165" 
d="M84 -123q21 0 32.5 -15.5t11.5 -41.5q0 -70 -61 -100l-24 21q23 9 39 30t14 39l-2 1q-3 -5 -13 -5q-13 0 -23.5 10t-10.5 26q0 35 37 35z" />
    <glyph glyph-name="periodinferior" horiz-adv-x="165" 
d="M83 -123q16 0 25.5 -9.5t9.5 -25.5t-9.5 -26t-25.5 -10q-17 0 -26.5 10t-9.5 26t10 25.5t26 9.5z" />
    <glyph glyph-name="bracketleftinferior" horiz-adv-x="196" 
d="M195 249h-83v-479h83v-39h-127v557h127v-39z" />
    <glyph glyph-name="bracketrightinferior" horiz-adv-x="196" 
d="M128 288v-557h-127v39h82v479h-82v39h127z" />
    <glyph glyph-name="emdashinferior" horiz-adv-x="637" 
d="M587 27v-36h-537v36h537z" />
    <glyph glyph-name="endashinferior" horiz-adv-x="416" 
d="M366 27v-36h-316v36h316z" />
    <glyph glyph-name="hypheninferior" horiz-adv-x="287" 
d="M238 27v-36h-189v36h189z" />
    <glyph glyph-name="Hinferior" horiz-adv-x="447" 
d="M337 208h52v-397h-52v181h-227v-181h-52v397h52v-173h227v173z" />
    </font>
</defs>
</svg>
